<svg xmlns="http://www.w3.org/2000/svg" viewBox="0 0 750 440" font-family="sans-serif">
  <defs>
    <marker id="ecR" markerWidth="10" markerHeight="7" refX="10" refY="3.5" orient="auto"><polygon points="0 0, 10 3.5, 0 7" fill="#8B0029"/></marker>
    <marker id="ecB" markerWidth="10" markerHeight="7" refX="10" refY="3.5" orient="auto"><polygon points="0 0, 10 3.5, 0 7" fill="#2563EB"/></marker>
    <marker id="ecG" markerWidth="10" markerHeight="7" refX="10" refY="3.5" orient="auto"><polygon points="0 0, 10 3.5, 0 7" fill="#6B7280"/></marker>
  </defs>
  <rect width="100%" height="100%" fill="white"/>
  <line x1="375" y1="30" x2="375" y2="320" stroke="#6B7280" stroke-width="1" fill="none" stroke-dasharray="4 3"/>
  <text x="188" y="30" font-size="14" fill="#1a1a1a" text-anchor="middle" font-weight="bold">충돌 전</text>
  <line x1="40" y1="200" x2="350" y2="200" stroke="#6B7280" stroke-width="1" fill="none" marker-end="url(#ecG)" stroke-dasharray="4 3"/>
  <text x="358" y="205" font-size="14" fill="#6B7280" font-style="italic">x</text>
  <circle cx="100" cy="200" r="22" fill="#F3F4F6" stroke="#1a1a1a" stroke-width="2"/>
  <text x="100" y="206" font-size="14" fill="#1a1a1a" text-anchor="middle" font-weight="bold">m₁</text>
  <line x1="127" y1="200" x2="200" y2="200" stroke="#8B0029" stroke-width="2.5" fill="none" marker-end="url(#ecR)"/>
  <text x="165" y="188" font-size="14" fill="#8B0029" text-anchor="middle" font-weight="bold" font-style="italic">v₁ᵢ</text>
  <circle cx="270" cy="200" r="26" fill="#F3F4F6" stroke="#1a1a1a" stroke-width="2"/>
  <text x="270" y="206" font-size="14" fill="#1a1a1a" text-anchor="middle" font-weight="bold">m₂</text>
  <text x="270" y="247" font-size="13" fill="#6B7280" text-anchor="middle">(정지)</text>
  <text x="562" y="30" font-size="14" fill="#1a1a1a" text-anchor="middle" font-weight="bold">충돌 후</text>
  <line x1="400" y1="200" x2="720" y2="200" stroke="#6B7280" stroke-width="1" fill="none" marker-end="url(#ecG)" stroke-dasharray="4 3"/>
  <text x="728" y="205" font-size="14" fill="#6B7280" font-style="italic">x</text>
  <circle cx="470" cy="200" r="4" fill="#6B7280" stroke="#6B7280" stroke-width="0"/>
  <circle cx="590" cy="105" r="22" fill="#F3F4F6" stroke="#1a1a1a" stroke-width="2"/>
  <text x="590" y="111" font-size="14" fill="#1a1a1a" text-anchor="middle" font-weight="bold">m₁</text>
  <line x1="476" y1="194" x2="564" y2="118" stroke="#8B0029" stroke-width="2.5" fill="none" marker-end="url(#ecR)"/>
  <text x="505" y="140" font-size="14" fill="#8B0029" font-weight="bold" font-style="italic">v₁f</text>
  <path d="M 510,200 A 40,40 0 0,0 500.1,173.7" fill="none" stroke="#8B0029" stroke-width="1.2" data-angle-origin="470,200" data-angle-radius="40" data-angle-start="0" data-angle-end="41.1"/>
  <text x="522.4" y="185.3" font-size="14" fill="#8B0029" text-anchor="middle" font-weight="bold" font-style="italic">θ₁</text>
  <circle cx="630" cy="300" r="26" fill="#F3F4F6" stroke="#1a1a1a" stroke-width="2"/>
  <text x="630" y="306" font-size="14" fill="#1a1a1a" text-anchor="middle" font-weight="bold">m₂</text>
  <line x1="476" y1="206" x2="601" y2="286" stroke="#2563EB" stroke-width="2.5" fill="none" marker-end="url(#ecB)"/>
  <text x="555" y="275" font-size="14" fill="#2563EB" font-weight="bold" font-style="italic">v₂f</text>
  <path d="M 515,200 A 45,45 0 0,1 507.6,224.7" fill="none" stroke="#2563EB" stroke-width="1.2" data-angle-origin="470,200" data-angle-radius="45" data-angle-start="0" data-angle-end="-33.3"/>
  <text x="528.4" y="222.5" font-size="14" fill="#2563EB" text-anchor="middle" font-weight="bold" font-style="italic">θ₂</text>
  <rect x="60" y="340" width="630" height="85" rx="8" fill="#F3F4F6" stroke="#8B0029" stroke-width="1"/>
  <text x="375" y="365" font-size="14" fill="#8B0029" text-anchor="middle" font-weight="bold">2차원 탄성 충돌 보존법칙</text>
  <text x="375" y="390" font-size="14" fill="#8B0029" text-anchor="middle">x : m₁v₁ᵢ = m₁v₁f cosθ₁ + m₂v₂f cosθ₂</text>
  <text x="375" y="415" font-size="14" fill="#2563EB" text-anchor="middle">y : 0 = m₁v₁f sinθ₁ − m₂v₂f sinθ₂</text>
</svg>
