<svg xmlns="http://www.w3.org/2000/svg" viewBox="0 0 700 400" font-family="sans-serif">
  <defs>
    <marker id="wcR" markerWidth="10" markerHeight="7" refX="10" refY="3.5" orient="auto"><polygon points="0 0, 10 3.5, 0 7" fill="#8B0029"/></marker>
    <marker id="wcB" markerWidth="10" markerHeight="7" refX="10" refY="3.5" orient="auto"><polygon points="0 0, 10 3.5, 0 7" fill="#2563EB"/></marker>
    <marker id="wcG" markerWidth="10" markerHeight="7" refX="10" refY="3.5" orient="auto"><polygon points="0 0, 10 3.5, 0 7" fill="#6B7280"/></marker>
  </defs>
  <rect width="100%" height="100%" fill="white"/>
  <rect x="100" y="185" width="70" height="70" rx="3" fill="#F3F4F6" stroke="#1a1a1a" stroke-width="2"/>
  <text x="135" y="227" font-size="14" fill="#1a1a1a" text-anchor="middle" font-weight="bold">m</text>
  <line x1="40" y1="255" x2="660" y2="255" stroke="#6B7280" stroke-width="1" fill="none"/>
  <line x1="50" y1="255" x2="40" y2="265" stroke="#6B7280" stroke-width="1" fill="none"/>
  <line x1="70" y1="255" x2="60" y2="265" stroke="#6B7280" stroke-width="1" fill="none"/>
  <line x1="90" y1="255" x2="80" y2="265" stroke="#6B7280" stroke-width="1" fill="none"/>
  <line x1="110" y1="255" x2="100" y2="265" stroke="#6B7280" stroke-width="1" fill="none"/>
  <line x1="130" y1="255" x2="120" y2="265" stroke="#6B7280" stroke-width="1" fill="none"/>
  <line x1="150" y1="255" x2="140" y2="265" stroke="#6B7280" stroke-width="1" fill="none"/>
  <line x1="170" y1="255" x2="160" y2="265" stroke="#6B7280" stroke-width="1" fill="none"/>
  <line x1="190" y1="255" x2="180" y2="265" stroke="#6B7280" stroke-width="1" fill="none"/>
  <line x1="135" y1="290" x2="430" y2="290" stroke="#6B7280" stroke-width="2.5" fill="none" marker-end="url(#wcG)"/>
  <text x="285" y="315" font-size="14" fill="#6B7280" text-anchor="middle" font-weight="bold" font-style="italic">d</text>
  <line x1="170" y1="220" x2="420" y2="100" stroke="#8B0029" stroke-width="2.5" fill="none" marker-end="url(#wcR)"/>
  <text x="430" y="100" font-size="14" fill="#8B0029" font-weight="bold" font-style="italic">F</text>
  <line x1="170" y1="220" x2="420" y2="220" stroke="#2563EB" stroke-width="2" fill="none" marker-end="url(#wcB)" stroke-dasharray="4 3"/>
  <line x1="420" y1="220" x2="420" y2="100" stroke="#2563EB" stroke-width="2" fill="none" marker-end="url(#wcB)" stroke-dasharray="4 3"/>
  <text x="310" y="210" font-size="14" fill="#2563EB" text-anchor="middle" font-weight="bold">F cos φ</text>
  <text x="460" y="165" font-size="14" fill="#2563EB" font-weight="bold">F sin φ</text>
  <rect x="408" y="208" width="12" height="12" fill="none" stroke="#2563EB" stroke-width="1"/>
  <path d="M 240,220 A 70,70 0 0,0 233.1,189.7" fill="none" stroke="#8B0029" stroke-width="1.3" data-angle-origin="170,220" data-angle-radius="70" data-angle-start="0" data-angle-end="25.6"/>
  <text x="253.9" y="205.9" font-size="14" fill="#8B0029" text-anchor="middle" font-weight="bold" font-style="italic">φ</text>
  <text x="300" y="350" font-size="14" fill="#8B0029" text-anchor="middle" font-style="italic">W = Fd cos φ</text>
  <text x="540" y="150" font-size="14" fill="#2563EB">F cos φ : 일을 하는 성분</text>
  <text x="540" y="175" font-size="14" fill="#6B7280">F sin φ : 일을 하지 않는 성분</text>
</svg>
