<svg xmlns="http://www.w3.org/2000/svg" viewBox="0 0 700 400" font-family="sans-serif">
  <defs>
    <marker id="epR" markerWidth="10" markerHeight="7" refX="10" refY="3.5" orient="auto" fill="#8B0029">
      <polygon points="0 0, 10 3.5, 0 7"/>
    </marker>
    <marker id="epB" markerWidth="10" markerHeight="7" refX="10" refY="3.5" orient="auto" fill="#2563EB">
      <polygon points="0 0, 10 3.5, 0 7"/>
    </marker>
    <marker id="epG" markerWidth="10" markerHeight="7" refX="10" refY="3.5" orient="auto" fill="#6B7280">
      <polygon points="0 0, 10 3.5, 0 7"/>
    </marker>
    <marker id="epK" markerWidth="10" markerHeight="7" refX="10" refY="3.5" orient="auto" fill="#1a1a1a">
      <polygon points="0 0, 10 3.5, 0 7"/>
    </marker>
  </defs>
  <line x1="100" y1="340" x2="620" y2="340" stroke="#000000" stroke-width="2" marker-end="url(#epK)"/><text x="630" y="345" font-size="14" font-style="italic" fill="#000000">x</text>
  <line x1="350" y1="360" x2="350" y2="40" stroke="#000000" stroke-width="2" marker-end="url(#epK)"/><text x="340" y="35" font-size="14" font-style="italic" fill="#000000">U</text>
  <path d="M 130.0,90.0 L 132.4,95.5 L 134.9,101.0 L 137.3,106.4 L 139.8,111.7 L 142.2,117.0 L 144.7,122.2 L 147.1,127.4 L 149.6,132.5 L 152.0,137.5 L 154.4,142.5 L 156.9,147.4 L 159.3,152.2 L 161.8,157.0 L 164.2,161.7 L 166.7,166.4 L 169.1,171.0 L 171.6,175.5 L 174.0,180.0 L 176.4,184.4 L 178.9,188.8 L 181.3,193.1 L 183.8,197.3 L 186.2,201.5 L 188.7,205.6 L 191.1,209.6 L 193.6,213.6 L 196.0,217.5 L 198.4,221.4 L 200.9,225.2 L 203.3,228.9 L 205.8,232.6 L 208.2,236.2 L 210.7,239.7 L 213.1,243.2 L 215.6,246.6 L 218.0,250.0 L 220.4,253.3 L 222.9,256.5 L 225.3,259.7 L 227.8,262.8 L 230.2,265.9 L 232.7,268.9 L 235.1,271.8 L 237.6,274.7 L 240.0,277.5 L 242.4,280.2 L 244.9,282.9 L 247.3,285.6 L 249.8,288.1 L 252.2,290.6 L 254.7,293.1 L 257.1,295.4 L 259.6,297.7 L 262.0,300.0 L 264.4,302.2 L 266.9,304.3 L 269.3,306.4 L 271.8,308.4 L 274.2,310.3 L 276.7,312.2 L 279.1,314.0 L 281.6,315.8 L 284.0,317.5 L 286.4,319.1 L 288.9,320.7 L 291.3,322.2 L 293.8,323.7 L 296.2,325.1 L 298.7,326.4 L 301.1,327.7 L 303.6,328.9 L 306.0,330.0 L 308.4,331.1 L 310.9,332.1 L 313.3,333.1 L 315.8,334.0 L 318.2,334.8 L 320.7,335.6 L 323.1,336.3 L 325.6,336.9 L 328.0,337.5 L 330.4,338.0 L 332.9,338.5 L 335.3,338.9 L 337.8,339.2 L 340.2,339.5 L 342.7,339.7 L 345.1,339.9 L 347.6,340.0 L 350.0,340.0 L 352.4,340.0 L 354.9,339.9 L 357.3,339.7 L 359.8,339.5 L 362.2,339.2 L 364.7,338.9 L 367.1,338.5 L 369.6,338.0 L 372.0,337.5 L 374.4,336.9 L 376.9,336.3 L 379.3,335.6 L 381.8,334.8 L 384.2,334.0 L 386.7,333.1 L 389.1,332.1 L 391.6,331.1 L 394.0,330.0 L 396.4,328.9 L 398.9,327.7 L 401.3,326.4 L 403.8,325.1 L 406.2,323.7 L 408.7,322.2 L 411.1,320.7 L 413.6,319.1 L 416.0,317.5 L 418.4,315.8 L 420.9,314.0 L 423.3,312.2 L 425.8,310.3 L 428.2,308.4 L 430.7,306.4 L 433.1,304.3 L 435.6,302.2 L 438.0,300.0 L 440.4,297.7 L 442.9,295.4 L 445.3,293.1 L 447.8,290.6 L 450.2,288.1 L 452.7,285.6 L 455.1,282.9 L 457.6,280.2 L 460.0,277.5 L 462.4,274.7 L 464.9,271.8 L 467.3,268.9 L 469.8,265.9 L 472.2,262.8 L 474.7,259.7 L 477.1,256.5 L 479.6,253.3 L 482.0,250.0 L 484.4,246.6 L 486.9,243.2 L 489.3,239.7 L 491.8,236.2 L 494.2,232.6 L 496.7,228.9 L 499.1,225.2 L 501.6,221.4 L 504.0,217.5 L 506.4,213.6 L 508.9,209.6 L 511.3,205.6 L 513.8,201.5 L 516.2,197.3 L 518.7,193.1 L 521.1,188.8 L 523.6,184.4 L 526.0,180.0 L 528.4,175.5 L 530.9,171.0 L 533.3,166.4 L 535.8,161.7 L 538.2,157.0 L 540.7,152.2 L 543.1,147.4 L 545.6,142.5 L 548.0,137.5 L 550.4,132.5 L 552.9,127.4 L 555.3,122.2 L 557.8,117.0 L 560.2,111.7 L 562.7,106.4 L 565.1,101.0 L 567.6,95.5 L 570.0,90.0 L 570.0,340.0 L 130.0,340.0" fill="#F3F4F6" stroke="none"/>
  <path d="M 130.0,90.0 L 132.4,95.5 L 134.9,101.0 L 137.3,106.4 L 139.8,111.7 L 142.2,117.0 L 144.7,122.2 L 147.1,127.4 L 149.6,132.5 L 152.0,137.5 L 154.4,142.5 L 156.9,147.4 L 159.3,152.2 L 161.8,157.0 L 164.2,161.7 L 166.7,166.4 L 169.1,171.0 L 171.6,175.5 L 174.0,180.0 L 176.4,184.4 L 178.9,188.8 L 181.3,193.1 L 183.8,197.3 L 186.2,201.5 L 188.7,205.6 L 191.1,209.6 L 193.6,213.6 L 196.0,217.5 L 198.4,221.4 L 200.9,225.2 L 203.3,228.9 L 205.8,232.6 L 208.2,236.2 L 210.7,239.7 L 213.1,243.2 L 215.6,246.6 L 218.0,250.0 L 220.4,253.3 L 222.9,256.5 L 225.3,259.7 L 227.8,262.8 L 230.2,265.9 L 232.7,268.9 L 235.1,271.8 L 237.6,274.7 L 240.0,277.5 L 242.4,280.2 L 244.9,282.9 L 247.3,285.6 L 249.8,288.1 L 252.2,290.6 L 254.7,293.1 L 257.1,295.4 L 259.6,297.7 L 262.0,300.0 L 264.4,302.2 L 266.9,304.3 L 269.3,306.4 L 271.8,308.4 L 274.2,310.3 L 276.7,312.2 L 279.1,314.0 L 281.6,315.8 L 284.0,317.5 L 286.4,319.1 L 288.9,320.7 L 291.3,322.2 L 293.8,323.7 L 296.2,325.1 L 298.7,326.4 L 301.1,327.7 L 303.6,328.9 L 306.0,330.0 L 308.4,331.1 L 310.9,332.1 L 313.3,333.1 L 315.8,334.0 L 318.2,334.8 L 320.7,335.6 L 323.1,336.3 L 325.6,336.9 L 328.0,337.5 L 330.4,338.0 L 332.9,338.5 L 335.3,338.9 L 337.8,339.2 L 340.2,339.5 L 342.7,339.7 L 345.1,339.9 L 347.6,340.0 L 350.0,340.0 L 352.4,340.0 L 354.9,339.9 L 357.3,339.7 L 359.8,339.5 L 362.2,339.2 L 364.7,338.9 L 367.1,338.5 L 369.6,338.0 L 372.0,337.5 L 374.4,336.9 L 376.9,336.3 L 379.3,335.6 L 381.8,334.8 L 384.2,334.0 L 386.7,333.1 L 389.1,332.1 L 391.6,331.1 L 394.0,330.0 L 396.4,328.9 L 398.9,327.7 L 401.3,326.4 L 403.8,325.1 L 406.2,323.7 L 408.7,322.2 L 411.1,320.7 L 413.6,319.1 L 416.0,317.5 L 418.4,315.8 L 420.9,314.0 L 423.3,312.2 L 425.8,310.3 L 428.2,308.4 L 430.7,306.4 L 433.1,304.3 L 435.6,302.2 L 438.0,300.0 L 440.4,297.7 L 442.9,295.4 L 445.3,293.1 L 447.8,290.6 L 450.2,288.1 L 452.7,285.6 L 455.1,282.9 L 457.6,280.2 L 460.0,277.5 L 462.4,274.7 L 464.9,271.8 L 467.3,268.9 L 469.8,265.9 L 472.2,262.8 L 474.7,259.7 L 477.1,256.5 L 479.6,253.3 L 482.0,250.0 L 484.4,246.6 L 486.9,243.2 L 489.3,239.7 L 491.8,236.2 L 494.2,232.6 L 496.7,228.9 L 499.1,225.2 L 501.6,221.4 L 504.0,217.5 L 506.4,213.6 L 508.9,209.6 L 511.3,205.6 L 513.8,201.5 L 516.2,197.3 L 518.7,193.1 L 521.1,188.8 L 523.6,184.4 L 526.0,180.0 L 528.4,175.5 L 530.9,171.0 L 533.3,166.4 L 535.8,161.7 L 538.2,157.0 L 540.7,152.2 L 543.1,147.4 L 545.6,142.5 L 548.0,137.5 L 550.4,132.5 L 552.9,127.4 L 555.3,122.2 L 557.8,117.0 L 560.2,111.7 L 562.7,106.4 L 565.1,101.0 L 567.6,95.5 L 570.0,90.0" fill="none" stroke="#8B0029" stroke-width="2.5"/>
  <text x="350" y="365" text-anchor="middle" font-size="14" fill="#000000">0</text>
  <line x1="200" y1="340" x2="200" y2="335" stroke="#000000" stroke-width="1"/><text x="200" y="365" text-anchor="middle" font-size="14" fill="#000000">−x</text>
  <line x1="500" y1="340" x2="500" y2="335" stroke="#000000" stroke-width="1"/><text x="500" y="365" text-anchor="middle" font-size="14" fill="#000000">+x</text>
  <line x1="200" y1="340" x2="200" y2="223.8" stroke="#6B7280" stroke-width="1" stroke-dasharray="4 3"/><line x1="500" y1="340" x2="500" y2="223.8" stroke="#6B7280" stroke-width="1" stroke-dasharray="4 3"/><line x1="200" y1="223.8" x2="500" y2="223.8" stroke="#6B7280" stroke-width="1" stroke-dasharray="4 3"/>
  <text x="340" y="215.8" text-anchor="end" font-size="14" fill="#6B7280" font-style="italic">½kx²</text><text x="575" y="80" font-size="14" font-weight="bold" fill="#8B0029" font-style="italic">U(x) = ½kx²</text>
  <circle cx="350" cy="340" r="5" fill="#8B0029"/><text x="370" y="325" font-size="14" fill="#8B0029" font-weight="bold">최솟값: U = 0</text><text x="370" y="310" font-size="14" fill="#6B7280">(평형 위치)</text>
  <line x1="230" y1="290" x2="290" y2="290" stroke="#2563EB" stroke-width="2.5" marker-end="url(#epB)"/><line x1="470" y1="290" x2="410" y2="290" stroke="#2563EB" stroke-width="2.5" marker-end="url(#epB)"/>
  <text x="260" y="280" text-anchor="middle" font-size="14" fill="#2563EB" font-weight="bold">F</text><text x="440" y="280" text-anchor="middle" font-size="14" fill="#2563EB" font-weight="bold">F</text>
</svg>
