<svg xmlns="http://www.w3.org/2000/svg" viewBox="0 0 750 420" font-family="sans-serif">
  <defs>
    <marker id="peR" markerWidth="10" markerHeight="7" refX="10" refY="3.5" orient="auto" fill="#8B0029">
      <polygon points="0 0, 10 3.5, 0 7"/>
    </marker>
    <marker id="peB" markerWidth="10" markerHeight="7" refX="10" refY="3.5" orient="auto" fill="#2563EB">
      <polygon points="0 0, 10 3.5, 0 7"/>
    </marker>
    <marker id="peG" markerWidth="10" markerHeight="7" refX="10" refY="3.5" orient="auto" fill="#6B7280">
      <polygon points="0 0, 10 3.5, 0 7"/>
    </marker>
    <marker id="peK" markerWidth="10" markerHeight="7" refX="10" refY="3.5" orient="auto" fill="#1a1a1a">
      <polygon points="0 0, 10 3.5, 0 7"/>
    </marker>
  </defs>
  <rect x="330" y="20" width="90" height="12" fill="#6B7280" rx="3"/><circle cx="375" cy="32" r="5" fill="#000000"/>
  <line x1="375" y1="32" x2="195.2" y2="205.7" stroke="#6B7280" stroke-width="1" stroke-dasharray="4 3"/><circle cx="195.2" cy="205.7" r="18" fill="#F3F4F6" stroke="#000000" stroke-width="2"/><text x="195.2" y="210.7" text-anchor="middle" font-size="14" font-weight="bold" fill="#000000">m</text><text x="165.2" y="193.7" text-anchor="middle" font-size="14" font-weight="bold" fill="#8B0029">A</text>
  <line x1="375" y1="32" x2="375.0" y2="282.0" stroke="#000000" stroke-width="2"/><circle cx="375.0" cy="282.0" r="18" fill="#F3F4F6" stroke="#000000" stroke-width="2"/><text x="375.0" y="287.0" text-anchor="middle" font-size="14" font-weight="bold" fill="#000000">m</text><text x="400" y="278" text-anchor="start" font-size="14" font-weight="bold" fill="#8B0029">B</text>
  <line x1="375" y1="32" x2="554.8" y2="205.7" stroke="#6B7280" stroke-width="1" stroke-dasharray="4 3"/><circle cx="554.8" cy="205.7" r="18" fill="#F3F4F6" stroke="#000000" stroke-width="2"/><text x="554.8" y="210.7" text-anchor="middle" font-size="14" font-weight="bold" fill="#000000">m</text><text x="584.8" y="193.7" text-anchor="middle" font-size="14" font-weight="bold" fill="#8B0029">C</text>
  <path d="M 195.2,205.7 L 197.5,208.1 L 199.9,210.4 L 202.3,212.7 L 204.7,215.0 L 207.2,217.3 L 209.7,219.5 L 212.2,221.7 L 214.7,223.9 L 217.3,226.0 L 219.9,228.1 L 222.6,230.2 L 225.2,232.2 L 227.9,234.2 L 230.7,236.1 L 233.4,238.0 L 236.2,239.9 L 239.0,241.7 L 241.8,243.5 L 244.6,245.3 L 247.5,247.0 L 250.4,248.7 L 253.3,250.4 L 256.2,252.0 L 259.2,253.6 L 262.2,255.1 L 265.1,256.6 L 268.2,258.0 L 271.2,259.4 L 274.2,260.8 L 277.3,262.1 L 280.4,263.4 L 283.5,264.7 L 286.6,265.9 L 289.8,267.0 L 292.9,268.1 L 296.1,269.2 L 299.3,270.3 L 302.5,271.2 L 305.7,272.2 L 308.9,273.1 L 312.1,274.0 L 315.4,274.8 L 318.6,275.6 L 321.9,276.3 L 325.2,277.0 L 328.4,277.6 L 331.7,278.2 L 335.0,278.8 L 338.3,279.3 L 341.6,279.8 L 345.0,280.2 L 348.3,280.6 L 351.6,280.9 L 355.0,281.2 L 358.3,281.4 L 361.6,281.6 L 365.0,281.8 L 368.3,281.9 L 371.7,282.0 L 375.0,282.0 L 378.3,282.0 L 381.7,281.9 L 385.0,281.8 L 388.4,281.6 L 391.7,281.4 L 395.0,281.2 L 398.4,280.9 L 401.7,280.6 L 405.0,280.2 L 408.4,279.8 L 411.7,279.3 L 415.0,278.8 L 418.3,278.2 L 421.6,277.6 L 424.8,277.0 L 428.1,276.3 L 431.4,275.6 L 434.6,274.8 L 437.9,274.0 L 441.1,273.1 L 444.3,272.2 L 447.5,271.2 L 450.7,270.3 L 453.9,269.2 L 457.1,268.1 L 460.2,267.0 L 463.4,265.9 L 466.5,264.7 L 469.6,263.4 L 472.7,262.1 L 475.8,260.8 L 478.8,259.4 L 481.8,258.0 L 484.9,256.6 L 487.8,255.1 L 490.8,253.6 L 493.8,252.0 L 496.7,250.4 L 499.6,248.7 L 502.5,247.0 L 505.4,245.3 L 508.2,243.5 L 511.0,241.7 L 513.8,239.9 L 516.6,238.0 L 519.3,236.1 L 522.1,234.2 L 524.8,232.2 L 527.4,230.2 L 530.1,228.1 L 532.7,226.0 L 535.3,223.9 L 537.8,221.7 L 540.3,219.5 L 542.8,217.3 L 545.3,215.0 L 547.7,212.7 L 550.1,210.4 L 552.5,208.1 L 554.8,205.7" fill="none" stroke="#6B7280" stroke-width="1" stroke-dasharray="4 3"/>
  <line x1="160" y1="205.7" x2="160" y2="282.0" stroke="#6B7280" stroke-width="1" stroke-dasharray="4 3"/><line x1="155" y1="205.7" x2="165" y2="205.7" stroke="#6B7280" stroke-width="1"/><line x1="155" y1="282.0" x2="165" y2="282.0" stroke="#6B7280" stroke-width="1"/><text x="145" y="242" text-anchor="middle" font-size="14" font-style="italic" fill="#6B7280">h</text>
  <line x1="140" y1="282.0" x2="610" y2="282.0" stroke="#6B7280" stroke-width="1" stroke-dasharray="4 3"/>
  <line x1="375" y1="263" x2="425" y2="263" stroke="#2563EB" stroke-width="2.5" marker-end="url(#peB)"/><text x="430" y="258" font-size="14" font-weight="bold" fill="#2563EB" font-style="italic">v_max</text>
  <rect x="60" y="345" width="28" height="55" fill="#8B0029" stroke="#8B0029" stroke-width="1"/><rect x="92" y="400" width="28" height="0" fill="#2563EB" stroke="#2563EB" stroke-width="1"/><text x="88" y="415" text-anchor="middle" font-size="14" fill="#000000" font-weight="bold">A</text><text x="74" y="340" text-anchor="middle" font-size="14" fill="#8B0029">U</text><text x="106" y="398" text-anchor="middle" font-size="14" fill="#2563EB">K=0</text>
  <rect x="270" y="400" width="28" height="0" fill="#8B0029" stroke="#8B0029" stroke-width="1"/><rect x="302" y="345" width="28" height="55" fill="#2563EB" stroke="#2563EB" stroke-width="1"/><text x="300" y="415" text-anchor="middle" font-size="14" fill="#000000" font-weight="bold">B</text><text x="284" y="398" text-anchor="middle" font-size="14" fill="#8B0029">U=0</text><text x="316" y="340" text-anchor="middle" font-size="14" fill="#2563EB">K</text>
  <rect x="480" y="345" width="28" height="55" fill="#8B0029" stroke="#8B0029" stroke-width="1"/><rect x="512" y="400" width="28" height="0" fill="#2563EB" stroke="#2563EB" stroke-width="1"/><text x="510" y="415" text-anchor="middle" font-size="14" fill="#000000" font-weight="bold">C</text><text x="494" y="340" text-anchor="middle" font-size="14" fill="#8B0029">U</text><text x="526" y="398" text-anchor="middle" font-size="14" fill="#2563EB">K=0</text>
  <line x1="55" y1="345" x2="545" y2="345" stroke="#8B0029" stroke-width="1" stroke-dasharray="4 3"/><text x="580" y="348" font-size="14" fill="#8B0029" font-weight="bold" font-style="italic">E_mec = K + U = const</text>
</svg>
