<svg xmlns="http://www.w3.org/2000/svg" viewBox="0 0 760 380" font-family="sans-serif">
  <defs>
    <marker id="axis-arrow" markerWidth="9" markerHeight="7" refX="9" refY="3.5" orient="auto">
      <path d="M0,0 L9,3.5 L0,7 Z" fill="#6B7280"/>
    </marker>
  </defs>

  <rect x="0" y="0" width="760" height="380" fill="#ffffff"/>

  <line x1="92" y1="190" x2="692" y2="190" stroke="#6B7280" stroke-width="2" marker-end="url(#axis-arrow)"/>
  <line x1="92" y1="314" x2="92" y2="58" stroke="#6B7280" stroke-width="2" marker-end="url(#axis-arrow)"/>
  <text x="710" y="197" font-size="17" font-style="italic" fill="#6B7280">t</text>
  <text x="68" y="63" font-size="17" font-style="italic" fill="#6B7280">x</text>

  <g opacity="0.08">
    <polyline points="92.0,78.0 98.5,79.7 105.0,81.3 111.5,83.0 118.0,84.6 124.5,86.2 131.0,87.7 137.5,89.2 144.0,90.8 150.5,92.2 157.0,93.7 163.5,95.2 170.0,96.6 176.5,98.0 183.0,99.4 189.5,100.7 196.0,102.1 202.5,103.4 209.0,104.7 215.5,106.0 222.0,107.2 228.5,108.5 235.0,109.7 241.5,110.9 248.0,112.1 254.5,113.2 261.0,114.4 267.5,115.5 274.0,116.6 280.5,117.7 287.0,118.8 293.5,119.9 300.0,120.9 306.5,122.0 313.0,123.0 319.5,124.0 326.0,125.0 332.5,126.0 339.0,126.9 345.5,127.9 352.0,128.8 358.5,129.7 365.0,130.6 371.5,131.5 378.0,132.4 384.5,133.3 391.0,134.1 397.5,134.9 404.0,135.8 410.5,136.6 417.0,137.4 423.5,138.2 430.0,139.0 436.5,139.7 443.0,140.5 449.5,141.2 456.0,141.9 462.5,142.7 469.0,143.4 475.5,144.1 482.0,144.8 488.5,145.4 495.0,146.1 501.5,146.8 508.0,147.4 514.5,148.1 521.0,148.7 527.5,149.3 534.0,149.9 540.5,150.5 547.0,151.1 553.5,151.7 560.0,152.3 566.5,152.8 573.0,153.4 579.5,153.9 586.0,154.5 592.5,155.0 599.0,155.5 605.5,156.1 612.0,156.6 618.5,157.1 625.0,157.6 631.5,158.0 638.0,158.5 644.5,159.0 651.0,159.5 657.5,159.9 664.0,160.4 670.5,160.8 677.0,161.3 677.0,218.7 670.5,219.2 664.0,219.6 657.5,220.1 651.0,220.5 644.5,221.0 638.0,221.5 631.5,222.0 625.0,222.4 618.5,222.9 612.0,223.4 605.5,223.9 599.0,224.5 592.5,225.0 586.0,225.5 579.5,226.1 573.0,226.6 566.5,227.2 560.0,227.7 553.5,228.3 547.0,228.9 540.5,229.5 534.0,230.1 527.5,230.7 521.0,231.3 514.5,231.9 508.0,232.6 501.5,233.2 495.0,233.9 488.5,234.6 482.0,235.2 475.5,235.9 469.0,236.6 462.5,237.3 456.0,238.1 449.5,238.8 443.0,239.5 436.5,240.3 430.0,241.0 423.5,241.8 417.0,242.6 410.5,243.4 404.0,244.2 397.5,245.1 391.0,245.9 384.5,246.7 378.0,247.6 371.5,248.5 365.0,249.4 358.5,250.3 352.0,251.2 345.5,252.1 339.0,253.1 332.5,254.0 326.0,255.0 319.5,256.0 313.0,257.0 306.5,258.0 300.0,259.1 293.5,260.1 287.0,261.2 280.5,262.3 274.0,263.4 267.5,264.5 261.0,265.6 254.5,266.8 248.0,267.9 241.5,269.1 235.0,270.3 228.5,271.5 222.0,272.8 215.5,274.0 209.0,275.3 202.5,276.6 196.0,277.9 189.5,279.3 183.0,280.6 176.5,282.0 170.0,283.4 163.5,284.8 157.0,286.3 150.5,287.8 144.0,289.2 137.5,290.8 131.0,292.3 124.5,293.8 118.0,295.4 111.5,297.0 105.0,298.7 98.5,300.3 92.0,302.0" fill="#8B0029"/>
  </g>

  <polyline points="92.0,78.0 98.5,79.7 105.0,81.3 111.5,83.0 118.0,84.6 124.5,86.2 131.0,87.7 137.5,89.2 144.0,90.8 150.5,92.2 157.0,93.7 163.5,95.2 170.0,96.6 176.5,98.0 183.0,99.4 189.5,100.7 196.0,102.1 202.5,103.4 209.0,104.7 215.5,106.0 222.0,107.2 228.5,108.5 235.0,109.7 241.5,110.9 248.0,112.1 254.5,113.2 261.0,114.4 267.5,115.5 274.0,116.6 280.5,117.7 287.0,118.8 293.5,119.9 300.0,120.9 306.5,122.0 313.0,123.0 319.5,124.0 326.0,125.0 332.5,126.0 339.0,126.9 345.5,127.9 352.0,128.8 358.5,129.7 365.0,130.6 371.5,131.5 378.0,132.4 384.5,133.3 391.0,134.1 397.5,134.9 404.0,135.8 410.5,136.6 417.0,137.4 423.5,138.2 430.0,139.0 436.5,139.7 443.0,140.5 449.5,141.2 456.0,141.9 462.5,142.7 469.0,143.4 475.5,144.1 482.0,144.8 488.5,145.4 495.0,146.1 501.5,146.8 508.0,147.4 514.5,148.1 521.0,148.7 527.5,149.3 534.0,149.9 540.5,150.5 547.0,151.1 553.5,151.7 560.0,152.3 566.5,152.8 573.0,153.4 579.5,153.9 586.0,154.5 592.5,155.0 599.0,155.5 605.5,156.1 612.0,156.6 618.5,157.1 625.0,157.6 631.5,158.0 638.0,158.5 644.5,159.0 651.0,159.5 657.5,159.9 664.0,160.4 670.5,160.8 677.0,161.3" fill="none" stroke="#8B0029" stroke-width="3.2" stroke-dasharray="9 7" stroke-linecap="round" stroke-linejoin="round"/>
  <polyline points="92.0,302.0 98.5,300.3 105.0,298.7 111.5,297.0 118.0,295.4 124.5,293.8 131.0,292.3 137.5,290.8 144.0,289.2 150.5,287.8 157.0,286.3 163.5,284.8 170.0,283.4 176.5,282.0 183.0,280.6 189.5,279.3 196.0,277.9 202.5,276.6 209.0,275.3 215.5,274.0 222.0,272.8 228.5,271.5 235.0,270.3 241.5,269.1 248.0,267.9 254.5,266.8 261.0,265.6 267.5,264.5 274.0,263.4 280.5,262.3 287.0,261.2 293.5,260.1 300.0,259.1 306.5,258.0 313.0,257.0 319.5,256.0 326.0,255.0 332.5,254.0 339.0,253.1 345.5,252.1 352.0,251.2 358.5,250.3 365.0,249.4 371.5,248.5 378.0,247.6 384.5,246.7 391.0,245.9 397.5,245.1 404.0,244.2 410.5,243.4 417.0,242.6 423.5,241.8 430.0,241.0 436.5,240.3 443.0,239.5 449.5,238.8 456.0,238.1 462.5,237.3 469.0,236.6 475.5,235.9 482.0,235.2 488.5,234.6 495.0,233.9 501.5,233.2 508.0,232.6 514.5,231.9 521.0,231.3 527.5,230.7 534.0,230.1 540.5,229.5 547.0,228.9 553.5,228.3 560.0,227.7 566.5,227.2 573.0,226.6 579.5,226.1 586.0,225.5 592.5,225.0 599.0,224.5 605.5,223.9 612.0,223.4 618.5,222.9 625.0,222.4 631.5,222.0 638.0,221.5 644.5,221.0 651.0,220.5 657.5,220.1 664.0,219.6 670.5,219.2 677.0,218.7" fill="none" stroke="#8B0029" stroke-width="3.2" stroke-dasharray="9 7" stroke-linecap="round" stroke-linejoin="round"/>

  <polyline points="92.0,78.0 95.2,80.4 98.5,87.1 101.7,97.5 105.0,111.0 108.2,127.0 111.5,144.8 114.7,163.9 118.0,183.6 121.2,203.3 124.4,222.4 127.7,240.3 130.9,256.3 134.2,269.8 137.4,280.2 140.7,286.9 143.9,289.3 147.2,287.2 150.4,281.2 153.7,272.0 156.9,260.0 160.1,245.8 163.4,230.0 166.6,213.1 169.9,195.6 173.1,178.2 176.4,161.3 179.6,145.4 182.9,131.3 186.1,119.3 189.3,110.1 192.6,104.1 195.8,102.0 199.1,103.9 202.3,109.2 205.6,117.3 208.8,128.0 212.1,140.5 215.3,154.5 218.6,169.5 221.8,185.0 225.0,200.5 228.3,215.5 231.5,229.5 234.8,242.0 238.0,252.7 241.3,260.8 244.5,266.1 247.8,268.0 251.0,266.3 254.2,261.7 257.5,254.4 260.7,245.0 264.0,233.9 267.2,221.4 270.5,208.2 273.7,194.4 277.0,180.7 280.2,167.4 283.5,155.0 286.7,143.9 289.9,134.5 293.2,127.2 296.4,122.5 299.7,120.9 302.9,122.4 306.2,126.5 309.4,132.9 312.7,141.3 315.9,151.1 319.1,162.1 322.4,173.9 325.6,186.1 328.9,198.2 332.1,210.0 335.4,221.0 338.6,230.9 341.9,239.2 345.1,245.7 348.3,249.8 351.6,251.3 354.8,250.0 358.1,246.3 361.3,240.6 364.6,233.2 367.8,224.5 371.1,214.7 374.3,204.3 377.6,193.5 380.8,182.7 384.0,172.3 387.3,162.5 390.5,153.8 393.8,146.4 397.0,140.7 400.3,137.0 403.5,135.7 406.8,136.9 410.0,140.1 413.2,145.2 416.5,151.7 419.7,159.5 423.0,168.1 426.2,177.4 429.5,186.9 432.7,196.5 436.0,205.7 439.2,214.4 442.5,222.1 445.7,228.7 448.9,233.7 452.2,237.0 455.4,238.1 458.7,237.1 461.9,234.2 465.2,229.7 468.4,223.9 471.7,217.1 474.9,209.4 478.1,201.2 481.4,192.7 484.6,184.3 487.9,176.1 491.1,168.4 494.4,161.5 497.6,155.7 500.9,151.3 504.1,148.4 507.3,147.4 510.6,148.3 513.8,150.8 517.1,154.8 520.3,159.9 523.6,166.0 526.8,172.8 530.1,180.1 533.3,187.6 536.6,195.1 539.8,202.3 543.0,209.1 546.3,215.2 549.5,220.4 552.8,224.3 556.0,226.9 559.3,227.8 562.5,227.0 565.8,224.7 569.0,221.2 572.2,216.7 575.5,211.3 578.7,205.2 582.0,198.8 585.2,192.1 588.5,185.5 591.7,179.1 595.0,173.0 598.2,167.6 601.5,163.1 604.7,159.6 607.9,157.3 611.2,156.5 614.4,157.2 617.7,159.2 620.9,162.3 624.2,166.4 627.4,171.2 630.7,176.5 633.9,182.2 637.1,188.1 640.4,194.0 643.6,199.7 646.9,205.0 650.1,209.8 653.4,213.9 656.6,217.0 659.9,219.0 663.1,219.7 664.0,219.0 664.8,217.2 665.7,214.3 666.6,210.6 667.4,206.1 668.3,201.2 669.2,195.9 670.1,190.5 670.9,185.0 671.8,179.7 672.7,174.8 673.5,170.4 674.4,166.6 675.3,163.8 676.1,161.9 677.0,161.3" fill="none" stroke="#2563EB" stroke-width="4.6" stroke-linecap="round" stroke-linejoin="round"/>

  <line x1="300" y1="190" x2="300" y2="121" stroke="#8B0029" stroke-width="2.3"/>
  <line x1="286" y1="121" x2="314" y2="121" stroke="#8B0029" stroke-width="2.3"/>
  <circle cx="300" cy="121" r="5" fill="#ffffff" stroke="#8B0029" stroke-width="2"/>

  <text x="318" y="151" font-size="17" font-weight="700" fill="#8B0029">A(t)</text>
  <text x="508" y="124" font-size="17" font-weight="700" fill="#8B0029">포락선</text>
  <text x="528" y="206" font-size="17" font-weight="700" fill="#2563EB">x(t)</text>
</svg>
