<svg xmlns="http://www.w3.org/2000/svg" viewBox="0 0 760 390" font-family="sans-serif">
  <defs><marker id="axisArrowEnergy" markerWidth="10" markerHeight="8" refX="10" refY="4" orient="auto"><path d="M0,0 L10,4 L0,8 Z" fill="#6B7280"/></marker></defs>
  <rect x="0" y="0" width="760" height="390" fill="#ffffff"/><rect x="104" y="48" width="586" height="270" rx="8" fill="#F3F4F6"/>
  <g stroke="#6B7280" stroke-width="1" opacity="0.35"><line x1="250" y1="64" x2="250" y2="318"/><line x1="380" y1="64" x2="380" y2="318"/><line x1="510" y1="64" x2="510" y2="318"/><line x1="120" y1="140" x2="676" y2="140"/><line x1="120" y1="206" x2="676" y2="206"/><line x1="120" y1="272" x2="676" y2="272"/></g>
  <g stroke="#6B7280" stroke-width="2.5" marker-end="url(#axisArrowEnergy)"><line x1="92" y1="318" x2="700" y2="318"/><line x1="104" y1="332" x2="104" y2="48"/></g>
  <g stroke="#6B7280" stroke-width="1.6" stroke-dasharray="7 5" opacity="0.8"><line x1="150" y1="80" x2="150" y2="318"/><line x1="610" y1="80" x2="610" y2="318"/></g>
  <line x1="150" y1="80" x2="610" y2="80" stroke="#6B7280" stroke-width="5" stroke-linecap="round"/>
  <path d="M 150.0,80.0 L 152.6,85.3 L 155.1,90.5 L 157.7,95.6 L 160.2,100.7 L 162.8,105.7 L 165.3,110.7 L 167.9,115.6 L 170.4,120.4 L 173.0,125.2 L 175.6,130.0 L 178.1,134.6 L 180.7,139.2 L 183.2,143.8 L 185.8,148.3 L 188.3,152.7 L 190.9,157.1 L 193.4,161.4 L 196.0,165.7 L 198.6,169.9 L 201.1,174.0 L 203.7,178.1 L 206.2,182.1 L 208.8,186.1 L 211.3,190.0 L 213.9,193.9 L 216.4,197.6 L 219.0,201.4 L 221.6,205.1 L 224.1,208.7 L 226.7,212.2 L 229.2,215.7 L 231.8,219.2 L 234.3,222.5 L 236.9,225.9 L 239.4,229.1 L 242.0,232.3 L 244.6,235.5 L 247.1,238.5 L 249.7,241.6 L 252.2,244.5 L 254.8,247.5 L 257.3,250.3 L 259.9,253.1 L 262.4,255.8 L 265.0,258.5 L 267.6,261.1 L 270.1,263.7 L 272.7,266.2 L 275.2,268.6 L 277.8,271.0 L 280.3,273.3 L 282.9,275.6 L 285.4,277.8 L 288.0,279.9 L 290.6,282.0 L 293.1,284.0 L 295.7,286.0 L 298.2,287.9 L 300.8,289.8 L 303.3,291.6 L 305.9,293.3 L 308.4,295.0 L 311.0,296.6 L 313.6,298.1 L 316.1,299.6 L 318.7,301.1 L 321.2,302.5 L 323.8,303.8 L 326.3,305.0 L 328.9,306.2 L 331.4,307.4 L 334.0,308.5 L 336.6,309.5 L 339.1,310.5 L 341.7,311.4 L 344.2,312.2 L 346.8,313.0 L 349.3,313.8 L 351.9,314.4 L 354.4,315.1 L 357.0,315.6 L 359.6,316.1 L 362.1,316.6 L 364.7,316.9 L 367.2,317.3 L 369.8,317.5 L 372.3,317.7 L 374.9,317.9 L 377.4,318.0 L 380.0,318.0 L 382.6,318.0 L 385.1,317.9 L 387.7,317.7 L 390.2,317.5 L 392.8,317.3 L 395.3,316.9 L 397.9,316.6 L 400.4,316.1 L 403.0,315.6 L 405.6,315.1 L 408.1,314.4 L 410.7,313.8 L 413.2,313.0 L 415.8,312.2 L 418.3,311.4 L 420.9,310.5 L 423.4,309.5 L 426.0,308.5 L 428.6,307.4 L 431.1,306.2 L 433.7,305.0 L 436.2,303.8 L 438.8,302.5 L 441.3,301.1 L 443.9,299.6 L 446.4,298.1 L 449.0,296.6 L 451.6,295.0 L 454.1,293.3 L 456.7,291.6 L 459.2,289.8 L 461.8,287.9 L 464.3,286.0 L 466.9,284.0 L 469.4,282.0 L 472.0,279.9 L 474.6,277.8 L 477.1,275.6 L 479.7,273.3 L 482.2,271.0 L 484.8,268.6 L 487.3,266.2 L 489.9,263.7 L 492.4,261.1 L 495.0,258.5 L 497.6,255.8 L 500.1,253.1 L 502.7,250.3 L 505.2,247.5 L 507.8,244.5 L 510.3,241.6 L 512.9,238.5 L 515.4,235.5 L 518.0,232.3 L 520.6,229.1 L 523.1,225.9 L 525.7,222.5 L 528.2,219.2 L 530.8,215.7 L 533.3,212.2 L 535.9,208.7 L 538.4,205.1 L 541.0,201.4 L 543.6,197.6 L 546.1,193.9 L 548.7,190.0 L 551.2,186.1 L 553.8,182.1 L 556.3,178.1 L 558.9,174.0 L 561.4,169.9 L 564.0,165.7 L 566.6,161.4 L 569.1,157.1 L 571.7,152.7 L 574.2,148.3 L 576.8,143.8 L 579.3,139.2 L 581.9,134.6 L 584.4,130.0 L 587.0,125.2 L 589.6,120.4 L 592.1,115.6 L 594.7,110.7 L 597.2,105.7 L 599.8,100.7 L 602.3,95.6 L 604.9,90.5 L 607.4,85.3 L 610.0,80.0" fill="none" stroke="#8B0029" stroke-width="6" stroke-linecap="round"/>
  <path d="M 150.0,318.0 L 152.6,312.7 L 155.1,307.5 L 157.7,302.4 L 160.2,297.3 L 162.8,292.3 L 165.3,287.3 L 167.9,282.4 L 170.4,277.6 L 173.0,272.8 L 175.6,268.0 L 178.1,263.4 L 180.7,258.8 L 183.2,254.2 L 185.8,249.7 L 188.3,245.3 L 190.9,240.9 L 193.4,236.6 L 196.0,232.3 L 198.6,228.1 L 201.1,224.0 L 203.7,219.9 L 206.2,215.9 L 208.8,211.9 L 211.3,208.0 L 213.9,204.1 L 216.4,200.4 L 219.0,196.6 L 221.6,192.9 L 224.1,189.3 L 226.7,185.8 L 229.2,182.3 L 231.8,178.8 L 234.3,175.5 L 236.9,172.1 L 239.4,168.9 L 242.0,165.7 L 244.6,162.5 L 247.1,159.5 L 249.7,156.4 L 252.2,153.5 L 254.8,150.5 L 257.3,147.7 L 259.9,144.9 L 262.4,142.2 L 265.0,139.5 L 267.6,136.9 L 270.1,134.3 L 272.7,131.8 L 275.2,129.4 L 277.8,127.0 L 280.3,124.7 L 282.9,122.4 L 285.4,120.2 L 288.0,118.1 L 290.6,116.0 L 293.1,114.0 L 295.7,112.0 L 298.2,110.1 L 300.8,108.2 L 303.3,106.4 L 305.9,104.7 L 308.4,103.0 L 311.0,101.4 L 313.6,99.9 L 316.1,98.4 L 318.7,96.9 L 321.2,95.5 L 323.8,94.2 L 326.3,93.0 L 328.9,91.8 L 331.4,90.6 L 334.0,89.5 L 336.6,88.5 L 339.1,87.5 L 341.7,86.6 L 344.2,85.8 L 346.8,85.0 L 349.3,84.2 L 351.9,83.6 L 354.4,82.9 L 357.0,82.4 L 359.6,81.9 L 362.1,81.4 L 364.7,81.1 L 367.2,80.7 L 369.8,80.5 L 372.3,80.3 L 374.9,80.1 L 377.4,80.0 L 380.0,80.0 L 382.6,80.0 L 385.1,80.1 L 387.7,80.3 L 390.2,80.5 L 392.8,80.7 L 395.3,81.1 L 397.9,81.4 L 400.4,81.9 L 403.0,82.4 L 405.6,82.9 L 408.1,83.6 L 410.7,84.2 L 413.2,85.0 L 415.8,85.8 L 418.3,86.6 L 420.9,87.5 L 423.4,88.5 L 426.0,89.5 L 428.6,90.6 L 431.1,91.8 L 433.7,93.0 L 436.2,94.2 L 438.8,95.5 L 441.3,96.9 L 443.9,98.4 L 446.4,99.9 L 449.0,101.4 L 451.6,103.0 L 454.1,104.7 L 456.7,106.4 L 459.2,108.2 L 461.8,110.1 L 464.3,112.0 L 466.9,114.0 L 469.4,116.0 L 472.0,118.1 L 474.6,120.2 L 477.1,122.4 L 479.7,124.7 L 482.2,127.0 L 484.8,129.4 L 487.3,131.8 L 489.9,134.3 L 492.4,136.9 L 495.0,139.5 L 497.6,142.2 L 500.1,144.9 L 502.7,147.7 L 505.2,150.5 L 507.8,153.5 L 510.3,156.4 L 512.9,159.5 L 515.4,162.5 L 518.0,165.7 L 520.6,168.9 L 523.1,172.1 L 525.7,175.5 L 528.2,178.8 L 530.8,182.3 L 533.3,185.8 L 535.9,189.3 L 538.4,192.9 L 541.0,196.6 L 543.6,200.4 L 546.1,204.1 L 548.7,208.0 L 551.2,211.9 L 553.8,215.9 L 556.3,219.9 L 558.9,224.0 L 561.4,228.1 L 564.0,232.3 L 566.6,236.6 L 569.1,240.9 L 571.7,245.3 L 574.2,249.7 L 576.8,254.2 L 579.3,258.8 L 581.9,263.4 L 584.4,268.0 L 587.0,272.8 L 589.6,277.6 L 592.1,282.4 L 594.7,287.3 L 597.2,292.3 L 599.8,297.3 L 602.3,302.4 L 604.9,307.5 L 607.4,312.7 L 610.0,318.0" fill="none" stroke="#2563EB" stroke-width="6" stroke-linecap="round"/>
  <g font-size="26" font-weight="700"><text x="486" y="65" fill="#6B7280">전체 에너지</text><text x="418" y="126" fill="#2563EB">운동 에너지</text><text x="438" y="248" fill="#8B0029">위치 에너지</text></g>
  <g font-size="30" font-weight="700" fill="#6B7280"><text x="38" y="54">에너지</text><text x="620" y="364">위치</text></g>
</svg>
