<svg xmlns="http://www.w3.org/2000/svg" viewBox="0 0 800 460" font-family="sans-serif">
  <defs>
    <marker id="pgR" markerWidth="10" markerHeight="7" refX="10" refY="3.5" orient="auto"><polygon points="0 0, 10 3.5, 0 7" fill="#8B0029"/></marker>
    <marker id="pgB" markerWidth="10" markerHeight="7" refX="10" refY="3.5" orient="auto"><polygon points="0 0, 10 3.5, 0 7" fill="#2563EB"/></marker>
    <marker id="pgG" markerWidth="10" markerHeight="7" refX="10" refY="3.5" orient="auto"><polygon points="0 0, 10 3.5, 0 7" fill="#6B7280"/></marker>
  </defs>
  <rect width="100%" height="100%" fill="white"/>
  <rect x="278" y="42" width="164" height="22" rx="5" fill="#F3F4F6" stroke="#6B7280" stroke-width="2"/>
  <line x1="360" y1="72" x2="360" y2="352" stroke="#6B7280" stroke-width="1.5" fill="none" stroke-dasharray="6 5"/>
  <path d="M 360,342 A 270,270 0 0,0 486.8,310.4" fill="none" stroke="#6B7280" stroke-width="1.8" stroke-dasharray="6 5" data-angle-origin="360,72" data-angle-radius="270" data-angle-start="-90" data-angle-end="-62"/>
  <path d="M 360,124 A 52,52 0 0,0 384.4,117.9" fill="none" stroke="#8B0029" stroke-width="2.5" data-angle-origin="360,72" data-angle-radius="52" data-angle-start="-90" data-angle-end="-62"/>
  <text x="376.5" y="143" font-size="18" fill="#8B0029" text-anchor="middle" font-weight="bold" font-style="italic">θ</text>
  <circle cx="360" cy="72" r="8" fill="#6B7280" stroke="#6B7280" stroke-width="0"/>
  <line x1="360" y1="72" x2="486.8" y2="310.4" stroke="#1a1a1a" stroke-width="3" fill="none"/>
  <text x="424" y="200" font-size="18" fill="#1a1a1a" text-anchor="middle" font-weight="bold" font-style="italic">L</text>
  <line x1="486.8" y1="310.4" x2="438" y2="218.6" stroke="#2563EB" stroke-width="4.5" fill="none" marker-end="url(#pgB)"/>
  <text x="438" y="251" font-size="18" fill="#2563EB" text-anchor="middle" font-weight="bold" font-style="italic">T</text>
  <line x1="486.8" y1="310.4" x2="486.8" y2="420" stroke="#8B0029" stroke-width="4.5" fill="none" marker-end="url(#pgR)"/>
  <text x="524" y="385" font-size="18" fill="#8B0029" text-anchor="middle" font-weight="bold">mg</text>
  <line x1="486.8" y1="310.4" x2="401.2" y2="355.9" stroke="#8B0029" stroke-width="4.5" fill="none" marker-end="url(#pgR)"/>
  <text x="419" y="384" font-size="18" fill="#8B0029" text-anchor="middle" font-weight="bold">mg sinθ</text>
  <circle cx="486.8" cy="310.4" r="34" fill="#F3F4F6" stroke="#6B7280" stroke-width="2.5"/>
  <text x="486.8" y="322.4" font-size="34" fill="#1a1a1a" text-anchor="middle" font-weight="bold" font-style="italic">m</text>
</svg>
