<svg xmlns="http://www.w3.org/2000/svg" viewBox="0 0 800 430" font-family="sans-serif">
  <defs>
    <marker id="rcR" markerWidth="10" markerHeight="7" refX="10" refY="3.5" orient="auto"><polygon points="0 0, 10 3.5, 0 7" fill="#8B0029"/></marker>
    <marker id="rcB" markerWidth="10" markerHeight="7" refX="10" refY="3.5" orient="auto"><polygon points="0 0, 10 3.5, 0 7" fill="#2563EB"/></marker>
    <marker id="rcG" markerWidth="10" markerHeight="7" refX="10" refY="3.5" orient="auto"><polygon points="0 0, 10 3.5, 0 7" fill="#6B7280"/></marker>
  </defs>
  <rect width="100%" height="100%" fill="white"/>
  <line x1="130" y1="220" x2="642" y2="220" stroke="#6B7280" stroke-width="2" fill="none" marker-end="url(#rcG)"/>
  <line x1="350" y1="55" x2="350" y2="376" stroke="#6B7280" stroke-width="1.6" fill="none" stroke-dasharray="7 6"/>
  <text x="660" y="227" font-size="20" fill="#6B7280" font-style="italic">x</text>
  <circle cx="350" cy="220" r="150" fill="#F3F4F6" stroke="#6B7280" stroke-width="2.2"/>
  <circle cx="350" cy="220" r="5.5" fill="#6B7280" stroke="#6B7280" stroke-width="0"/>
  <text x="328" y="244" font-size="20" fill="#6B7280" text-anchor="middle" font-weight="bold">O</text>
  <line x1="350" y1="220" x2="446" y2="105" stroke="#8B0029" stroke-width="4" fill="none"/>
  <circle cx="446" cy="105" r="11" fill="#8B0029" stroke="#8B0029" stroke-width="0"/>
  <text x="482" y="96" font-size="23" fill="#8B0029" text-anchor="middle" font-weight="bold">P′</text>
  <line x1="446" y1="105" x2="446" y2="220" stroke="#6B7280" stroke-width="1.6" fill="none" stroke-dasharray="7 6"/>
  <circle cx="446" cy="220" r="10" fill="#2563EB" stroke="#2563EB" stroke-width="0"/>
  <text x="477" y="253" font-size="23" fill="#2563EB" text-anchor="middle" font-weight="bold">P</text>
  <path d="M 405,220 A 55,55 0 0,0 385.2,177.8" fill="none" stroke="#8B0029" stroke-width="2.7" data-angle-origin="350,220" data-angle-radius="55" data-angle-start="0" data-angle-end="50.1"/>
  <text x="414.3" y="194.9" font-size="20" fill="#8B0029" text-anchor="middle" font-weight="bold" font-style="italic">θ</text>
  <line x1="350" y1="252" x2="446" y2="252" stroke="#2563EB" stroke-width="3.2" fill="none" marker-end="url(#rcB)"/>
  <line x1="350" y1="220" x2="350" y2="262" stroke="#2563EB" stroke-width="1.6" fill="none"/>
  <line x1="446" y1="220" x2="446" y2="262" stroke="#2563EB" stroke-width="1.6" fill="none"/>
  <text x="405" y="285" font-size="20" fill="#2563EB" text-anchor="middle" font-weight="bold" font-style="italic">x(t)</text>
  <text x="396" y="151" font-size="20" fill="#8B0029" text-anchor="middle" font-weight="bold" font-style="italic">xₘ</text>
  <line x1="446" y1="105" x2="446" y2="220" stroke="#6B7280" stroke-width="1.2" fill="none" stroke-dasharray="3 5"/>
</svg>
