<svg xmlns="http://www.w3.org/2000/svg" viewBox="0 0 760 400" font-family="sans-serif">
  <defs><marker id="axisArrowResonance" markerWidth="10" markerHeight="8" refX="10" refY="4" orient="auto"><path d="M0,0 L10,4 L0,8 Z" fill="#6B7280"/></marker></defs>
  <rect x="0" y="0" width="760" height="400" fill="#ffffff"/><rect x="88" y="54" width="602" height="264" rx="8" fill="#F3F4F6"/>
  <g stroke="#6B7280" stroke-width="1" opacity="0.35"><line x1="210" y1="70" x2="210" y2="318"/><line x1="320" y1="70" x2="320" y2="318"/><line x1="430" y1="70" x2="430" y2="318"/><line x1="540" y1="70" x2="540" y2="318"/><line x1="650" y1="70" x2="650" y2="318"/><line x1="104" y1="130" x2="674" y2="130"/><line x1="104" y1="194" x2="674" y2="194"/><line x1="104" y1="258" x2="674" y2="258"/></g>
  <g stroke="#6B7280" stroke-width="2.5" marker-end="url(#axisArrowResonance)"><line x1="86" y1="318" x2="702" y2="318"/><line x1="88" y1="332" x2="88" y2="48"/></g>
  <line x1="382" y1="58" x2="382" y2="318" stroke="#6B7280" stroke-width="2" stroke-dasharray="8 6"/><text x="360" y="82" text-anchor="end" font-size="28" font-weight="700" fill="#6B7280">공명</text>
  <path d="M 104.0,275.7 L 106.3,275.6 L 108.5,275.5 L 110.8,275.3 L 113.1,275.2 L 115.4,275.1 L 117.6,274.9 L 119.9,274.8 L 122.2,274.6 L 124.4,274.4 L 126.7,274.3 L 129.0,274.1 L 131.2,273.9 L 133.5,273.8 L 135.8,273.6 L 138.1,273.4 L 140.3,273.2 L 142.6,273.0 L 144.9,272.8 L 147.1,272.5 L 149.4,272.3 L 151.7,272.1 L 153.9,271.8 L 156.2,271.6 L 158.5,271.3 L 160.8,271.1 L 163.0,270.8 L 165.3,270.5 L 167.6,270.3 L 169.8,270.0 L 172.1,269.7 L 174.4,269.4 L 176.6,269.0 L 178.9,268.7 L 181.2,268.4 L 183.5,268.0 L 185.7,267.6 L 188.0,267.3 L 190.3,266.9 L 192.5,266.5 L 194.8,266.1 L 197.1,265.7 L 199.4,265.2 L 201.6,264.8 L 203.9,264.3 L 206.2,263.8 L 208.4,263.3 L 210.7,262.8 L 213.0,262.3 L 215.2,261.7 L 217.5,261.2 L 219.8,260.6 L 222.1,260.0 L 224.3,259.3 L 226.6,258.7 L 228.9,258.0 L 231.1,257.3 L 233.4,256.6 L 235.7,255.8 L 237.9,255.0 L 240.2,254.2 L 242.5,253.3 L 244.8,252.4 L 247.0,251.5 L 249.3,250.5 L 251.6,249.5 L 253.8,248.5 L 256.1,247.4 L 258.4,246.2 L 260.6,245.0 L 262.9,243.7 L 265.2,242.4 L 267.5,241.0 L 269.7,239.6 L 272.0,238.0 L 274.3,236.4 L 276.5,234.7 L 278.8,232.9 L 281.1,231.0 L 283.4,229.0 L 285.6,226.9 L 287.9,224.7 L 290.2,222.3 L 292.4,219.7 L 294.7,217.0 L 297.0,214.2 L 299.2,211.1 L 301.5,207.8 L 303.8,204.3 L 306.1,200.5 L 308.3,196.4 L 310.6,192.1 L 312.9,187.3 L 315.1,182.2 L 317.4,176.7 L 319.7,170.7 L 321.9,164.3 L 324.2,157.3 L 326.5,149.7 L 328.8,141.4 L 331.0,132.6 L 333.3,123.1 L 335.6,112.9 L 337.8,102.3 L 340.1,91.3 L 342.4,80.2 L 344.6,69.4 L 346.9,59.6 L 349.2,51.2 L 351.5,45.2 L 353.7,42.0 L 356.0,42.1 L 358.3,45.6 L 360.5,52.1 L 362.8,61.0 L 365.1,71.7 L 367.4,83.3 L 369.6,95.4 L 371.9,107.4 L 374.2,119.0 L 376.4,130.0 L 378.7,140.4 L 381.0,150.0 L 383.2,159.0 L 385.5,167.2 L 387.8,174.8 L 390.1,181.7 L 392.3,188.2 L 394.6,194.1 L 396.9,199.5 L 399.1,204.6 L 401.4,209.3 L 403.7,213.6 L 405.9,217.6 L 408.2,221.3 L 410.5,224.8 L 412.8,228.1 L 415.0,231.1 L 417.3,233.9 L 419.6,236.6 L 421.8,239.1 L 424.1,241.5 L 426.4,243.7 L 428.6,245.8 L 430.9,247.8 L 433.2,249.7 L 435.5,251.5 L 437.7,253.2 L 440.0,254.8 L 442.3,256.3 L 444.5,257.8 L 446.8,259.2 L 449.1,260.5 L 451.4,261.7 L 453.6,263.0 L 455.9,264.1 L 458.2,265.2 L 460.4,266.3 L 462.7,267.3 L 465.0,268.3 L 467.2,269.2 L 469.5,270.1 L 471.8,271.0 L 474.1,271.8 L 476.3,272.6 L 478.6,273.4 L 480.9,274.1 L 483.1,274.9 L 485.4,275.6 L 487.7,276.2 L 489.9,276.9 L 492.2,277.5 L 494.5,278.1 L 496.8,278.7 L 499.0,279.3 L 501.3,279.8 L 503.6,280.4 L 505.8,280.9 L 508.1,281.4 L 510.4,281.9 L 512.6,282.4 L 514.9,282.8 L 517.2,283.3 L 519.5,283.7 L 521.7,284.1 L 524.0,284.5 L 526.3,284.9 L 528.5,285.3 L 530.8,285.7 L 533.1,286.1 L 535.4,286.4 L 537.6,286.8 L 539.9,287.1 L 542.2,287.5 L 544.4,287.8 L 546.7,288.1 L 549.0,288.4 L 551.2,288.7 L 553.5,289.0 L 555.8,289.3 L 558.1,289.6 L 560.3,289.9 L 562.6,290.1 L 564.9,290.4 L 567.1,290.7 L 569.4,290.9 L 571.7,291.2 L 573.9,291.4 L 576.2,291.6 L 578.5,291.9 L 580.8,292.1 L 583.0,292.3 L 585.3,292.5 L 587.6,292.8 L 589.8,293.0 L 592.1,293.2 L 594.4,293.4 L 596.6,293.6 L 598.9,293.8 L 601.2,293.9 L 603.5,294.1 L 605.7,294.3 L 608.0,294.5 L 610.3,294.7 L 612.5,294.8 L 614.8,295.0 L 617.1,295.2 L 619.4,295.3 L 621.6,295.5 L 623.9,295.7 L 626.2,295.8 L 628.4,296.0 L 630.7,296.1 L 633.0,296.3 L 635.2,296.4 L 637.5,296.5 L 639.8,296.7 L 642.1,296.8 L 644.3,296.9 L 646.6,297.1 L 648.9,297.2 L 651.1,297.3 L 653.4,297.5 L 655.7,297.6 L 657.9,297.7 L 660.2,297.8 L 662.5,297.9 L 664.8,298.1 L 667.0,298.2 L 669.3,298.3 L 671.6,298.4 L 673.8,298.5 L 676.1,298.6 L 678.4,298.7 L 680.6,298.8 L 682.9,298.9 L 685.2,299.0 L 687.5,299.1 L 689.7,299.2 L 692.0,299.3" fill="none" stroke="#8B0029" stroke-width="6" stroke-linecap="round"/>
  <path d="M 104.0,220.0 L 106.3,219.7 L 108.5,219.4 L 110.8,219.1 L 113.1,218.7 L 115.4,218.4 L 117.6,218.0 L 119.9,217.6 L 122.2,217.3 L 124.4,216.9 L 126.7,216.4 L 129.0,216.0 L 131.2,215.6 L 133.5,215.1 L 135.8,214.7 L 138.1,214.2 L 140.3,213.7 L 142.6,213.2 L 144.9,212.7 L 147.1,212.2 L 149.4,211.6 L 151.7,211.1 L 153.9,210.5 L 156.2,209.9 L 158.5,209.3 L 160.8,208.7 L 163.0,208.0 L 165.3,207.3 L 167.6,206.7 L 169.8,206.0 L 172.1,205.2 L 174.4,204.5 L 176.6,203.7 L 178.9,203.0 L 181.2,202.2 L 183.5,201.3 L 185.7,200.5 L 188.0,199.6 L 190.3,198.7 L 192.5,197.8 L 194.8,196.8 L 197.1,195.9 L 199.4,194.9 L 201.6,193.8 L 203.9,192.8 L 206.2,191.7 L 208.4,190.5 L 210.7,189.4 L 213.0,188.2 L 215.2,186.9 L 217.5,185.7 L 219.8,184.4 L 222.1,183.0 L 224.3,181.6 L 226.6,180.2 L 228.9,178.8 L 231.1,177.2 L 233.4,175.7 L 235.7,174.1 L 237.9,172.4 L 240.2,170.7 L 242.5,168.9 L 244.8,167.1 L 247.0,165.3 L 249.3,163.3 L 251.6,161.3 L 253.8,159.3 L 256.1,157.2 L 258.4,155.0 L 260.6,152.7 L 262.9,150.4 L 265.2,148.0 L 267.5,145.5 L 269.7,143.0 L 272.0,140.3 L 274.3,137.6 L 276.5,134.9 L 278.8,132.0 L 281.1,129.0 L 283.4,126.0 L 285.6,122.9 L 287.9,119.7 L 290.2,116.4 L 292.4,113.0 L 294.7,109.6 L 297.0,106.0 L 299.2,102.5 L 301.5,98.8 L 303.8,95.1 L 306.1,91.4 L 308.3,87.6 L 310.6,83.8 L 312.9,80.0 L 315.1,76.3 L 317.4,72.6 L 319.7,68.9 L 321.9,65.3 L 324.2,61.9 L 326.5,58.6 L 328.8,55.5 L 331.0,52.7 L 333.3,50.1 L 335.6,47.8 L 337.8,45.8 L 340.1,44.2 L 342.4,43.1 L 344.6,42.3 L 346.9,42.0 L 349.2,42.2 L 351.5,42.8 L 353.7,43.9 L 356.0,45.4 L 358.3,47.5 L 360.5,49.9 L 362.8,52.7 L 365.1,55.9 L 367.4,59.4 L 369.6,63.3 L 371.9,67.3 L 374.2,71.6 L 376.4,76.0 L 378.7,80.6 L 381.0,85.3 L 383.2,90.1 L 385.5,94.8 L 387.8,99.6 L 390.1,104.4 L 392.3,109.2 L 394.6,113.9 L 396.9,118.5 L 399.1,123.0 L 401.4,127.5 L 403.7,131.9 L 405.9,136.1 L 408.2,140.3 L 410.5,144.4 L 412.8,148.3 L 415.0,152.1 L 417.3,155.9 L 419.6,159.5 L 421.8,163.0 L 424.1,166.4 L 426.4,169.7 L 428.6,172.9 L 430.9,176.0 L 433.2,178.9 L 435.5,181.8 L 437.7,184.6 L 440.0,187.3 L 442.3,190.0 L 444.5,192.5 L 446.8,195.0 L 449.1,197.4 L 451.4,199.7 L 453.6,201.9 L 455.9,204.1 L 458.2,206.2 L 460.4,208.2 L 462.7,210.2 L 465.0,212.1 L 467.2,214.0 L 469.5,215.8 L 471.8,217.5 L 474.1,219.2 L 476.3,220.9 L 478.6,222.5 L 480.9,224.0 L 483.1,225.5 L 485.4,227.0 L 487.7,228.4 L 489.9,229.8 L 492.2,231.2 L 494.5,232.5 L 496.8,233.8 L 499.0,235.0 L 501.3,236.2 L 503.6,237.4 L 505.8,238.5 L 508.1,239.7 L 510.4,240.8 L 512.6,241.8 L 514.9,242.9 L 517.2,243.9 L 519.5,244.9 L 521.7,245.8 L 524.0,246.8 L 526.3,247.7 L 528.5,248.6 L 530.8,249.5 L 533.1,250.3 L 535.4,251.2 L 537.6,252.0 L 539.9,252.8 L 542.2,253.6 L 544.4,254.3 L 546.7,255.1 L 549.0,255.8 L 551.2,256.5 L 553.5,257.2 L 555.8,257.9 L 558.1,258.6 L 560.3,259.2 L 562.6,259.9 L 564.9,260.5 L 567.1,261.1 L 569.4,261.7 L 571.7,262.3 L 573.9,262.9 L 576.2,263.5 L 578.5,264.0 L 580.8,264.6 L 583.0,265.1 L 585.3,265.6 L 587.6,266.1 L 589.8,266.7 L 592.1,267.2 L 594.4,267.6 L 596.6,268.1 L 598.9,268.6 L 601.2,269.1 L 603.5,269.5 L 605.7,270.0 L 608.0,270.4 L 610.3,270.8 L 612.5,271.2 L 614.8,271.7 L 617.1,272.1 L 619.4,272.5 L 621.6,272.9 L 623.9,273.2 L 626.2,273.6 L 628.4,274.0 L 630.7,274.4 L 633.0,274.7 L 635.2,275.1 L 637.5,275.4 L 639.8,275.8 L 642.1,276.1 L 644.3,276.5 L 646.6,276.8 L 648.9,277.1 L 651.1,277.4 L 653.4,277.7 L 655.7,278.0 L 657.9,278.3 L 660.2,278.6 L 662.5,278.9 L 664.8,279.2 L 667.0,279.5 L 669.3,279.8 L 671.6,280.1 L 673.8,280.4 L 676.1,280.6 L 678.4,280.9 L 680.6,281.1 L 682.9,281.4 L 685.2,281.7 L 687.5,281.9 L 689.7,282.2 L 692.0,282.4" fill="none" stroke="#2563EB" stroke-width="6" stroke-linecap="round"/>
  <path d="M 104.0,125.7 L 106.3,125.2 L 108.5,124.8 L 110.8,124.2 L 113.1,123.7 L 115.4,123.2 L 117.6,122.6 L 119.9,122.1 L 122.2,121.5 L 124.4,120.9 L 126.7,120.3 L 129.0,119.6 L 131.2,119.0 L 133.5,118.3 L 135.8,117.7 L 138.1,117.0 L 140.3,116.3 L 142.6,115.5 L 144.9,114.8 L 147.1,114.0 L 149.4,113.3 L 151.7,112.5 L 153.9,111.7 L 156.2,110.9 L 158.5,110.0 L 160.8,109.2 L 163.0,108.3 L 165.3,107.4 L 167.6,106.5 L 169.8,105.6 L 172.1,104.7 L 174.4,103.7 L 176.6,102.8 L 178.9,101.8 L 181.2,100.8 L 183.5,99.7 L 185.7,98.7 L 188.0,97.7 L 190.3,96.6 L 192.5,95.5 L 194.8,94.4 L 197.1,93.3 L 199.4,92.2 L 201.6,91.0 L 203.9,89.9 L 206.2,88.7 L 208.4,87.5 L 210.7,86.3 L 213.0,85.1 L 215.2,83.9 L 217.5,82.7 L 219.8,81.4 L 222.1,80.2 L 224.3,78.9 L 226.6,77.6 L 228.9,76.4 L 231.1,75.1 L 233.4,73.8 L 235.7,72.5 L 237.9,71.2 L 240.2,69.9 L 242.5,68.6 L 244.8,67.4 L 247.0,66.1 L 249.3,64.8 L 251.6,63.5 L 253.8,62.3 L 256.1,61.0 L 258.4,59.8 L 260.6,58.6 L 262.9,57.4 L 265.2,56.2 L 267.5,55.1 L 269.7,53.9 L 272.0,52.8 L 274.3,51.8 L 276.5,50.8 L 278.8,49.8 L 281.1,48.8 L 283.4,48.0 L 285.6,47.1 L 287.9,46.3 L 290.2,45.6 L 292.4,44.9 L 294.7,44.3 L 297.0,43.8 L 299.2,43.3 L 301.5,42.9 L 303.8,42.5 L 306.1,42.3 L 308.3,42.1 L 310.6,42.0 L 312.9,42.0 L 315.1,42.1 L 317.4,42.2 L 319.7,42.5 L 321.9,42.9 L 324.2,43.3 L 326.5,43.8 L 328.8,44.5 L 331.0,45.2 L 333.3,46.0 L 335.6,46.9 L 337.8,47.9 L 340.1,49.0 L 342.4,50.1 L 344.6,51.4 L 346.9,52.8 L 349.2,54.2 L 351.5,55.7 L 353.7,57.3 L 356.0,58.9 L 358.3,60.7 L 360.5,62.5 L 362.8,64.3 L 365.1,66.3 L 367.4,68.2 L 369.6,70.3 L 371.9,72.3 L 374.2,74.5 L 376.4,76.6 L 378.7,78.8 L 381.0,81.1 L 383.2,83.3 L 385.5,85.6 L 387.8,87.9 L 390.1,90.3 L 392.3,92.6 L 394.6,95.0 L 396.9,97.4 L 399.1,99.7 L 401.4,102.1 L 403.7,104.5 L 405.9,106.9 L 408.2,109.2 L 410.5,111.6 L 412.8,114.0 L 415.0,116.3 L 417.3,118.7 L 419.6,121.0 L 421.8,123.3 L 424.1,125.6 L 426.4,127.9 L 428.6,130.1 L 430.9,132.3 L 433.2,134.6 L 435.5,136.7 L 437.7,138.9 L 440.0,141.1 L 442.3,143.2 L 444.5,145.3 L 446.8,147.3 L 449.1,149.4 L 451.4,151.4 L 453.6,153.4 L 455.9,155.3 L 458.2,157.3 L 460.4,159.2 L 462.7,161.1 L 465.0,162.9 L 467.2,164.7 L 469.5,166.5 L 471.8,168.3 L 474.1,170.1 L 476.3,171.8 L 478.6,173.5 L 480.9,175.2 L 483.1,176.8 L 485.4,178.4 L 487.7,180.0 L 489.9,181.6 L 492.2,183.1 L 494.5,184.7 L 496.8,186.1 L 499.0,187.6 L 501.3,189.1 L 503.6,190.5 L 505.8,191.9 L 508.1,193.3 L 510.4,194.6 L 512.6,196.0 L 514.9,197.3 L 517.2,198.6 L 519.5,199.9 L 521.7,201.1 L 524.0,202.3 L 526.3,203.6 L 528.5,204.8 L 530.8,205.9 L 533.1,207.1 L 535.4,208.2 L 537.6,209.4 L 539.9,210.5 L 542.2,211.5 L 544.4,212.6 L 546.7,213.7 L 549.0,214.7 L 551.2,215.7 L 553.5,216.7 L 555.8,217.7 L 558.1,218.7 L 560.3,219.6 L 562.6,220.6 L 564.9,221.5 L 567.1,222.4 L 569.4,223.3 L 571.7,224.2 L 573.9,225.1 L 576.2,225.9 L 578.5,226.8 L 580.8,227.6 L 583.0,228.5 L 585.3,229.3 L 587.6,230.1 L 589.8,230.8 L 592.1,231.6 L 594.4,232.4 L 596.6,233.1 L 598.9,233.9 L 601.2,234.6 L 603.5,235.3 L 605.7,236.0 L 608.0,236.7 L 610.3,237.4 L 612.5,238.1 L 614.8,238.8 L 617.1,239.4 L 619.4,240.1 L 621.6,240.7 L 623.9,241.4 L 626.2,242.0 L 628.4,242.6 L 630.7,243.2 L 633.0,243.8 L 635.2,244.4 L 637.5,245.0 L 639.8,245.6 L 642.1,246.1 L 644.3,246.7 L 646.6,247.2 L 648.9,247.8 L 651.1,248.3 L 653.4,248.9 L 655.7,249.4 L 657.9,249.9 L 660.2,250.4 L 662.5,250.9 L 664.8,251.4 L 667.0,251.9 L 669.3,252.4 L 671.6,252.9 L 673.8,253.3 L 676.1,253.8 L 678.4,254.3 L 680.6,254.7 L 682.9,255.2 L 685.2,255.6 L 687.5,256.1 L 689.7,256.5 L 692.0,256.9" fill="none" stroke="#6B7280" stroke-width="6" stroke-linecap="round"/>
  <g font-size="24" font-weight="700"><line x1="500" y1="74" x2="548" y2="74" stroke="#8B0029" stroke-width="6" stroke-linecap="round"/><text x="560" y="82" fill="#8B0029">작은 감쇠</text><line x1="500" y1="116" x2="548" y2="116" stroke="#2563EB" stroke-width="6" stroke-linecap="round"/><text x="560" y="124" fill="#2563EB">중간 감쇠</text><line x1="500" y1="158" x2="548" y2="158" stroke="#6B7280" stroke-width="6" stroke-linecap="round"/><text x="560" y="166" fill="#6B7280">큰 감쇠</text></g>
  <g font-size="30" font-weight="700" fill="#6B7280"><text x="34" y="56">진폭</text><text x="526" y="366">구동 진동수</text></g>
</svg>
