<svg xmlns="http://www.w3.org/2000/svg" viewBox="0 0 800 420" font-family="sans-serif">
  <defs>
    <marker id="springRedArrow" markerWidth="18" markerHeight="14" refX="17" refY="7" orient="auto" markerUnits="userSpaceOnUse">
      <path d="M0,0 L18,7 L0,14 Z" fill="#8B0029"/>
    </marker>
    <marker id="springBlueArrow" markerWidth="18" markerHeight="14" refX="17" refY="7" orient="auto" markerUnits="userSpaceOnUse">
      <path d="M0,0 L18,7 L0,14 Z" fill="#2563EB"/>
    </marker>
    <marker id="springGrayArrow" markerWidth="16" markerHeight="12" refX="15" refY="6" orient="auto" markerUnits="userSpaceOnUse">
      <path d="M0,0 L16,6 L0,12 Z" fill="#6B7280"/>
    </marker>
    <pattern id="springWallHatch" patternUnits="userSpaceOnUse" width="10" height="10" patternTransform="rotate(45)">
      <line x1="0" y1="0" x2="0" y2="10" stroke="#6B7280" stroke-width="1.2"/>
    </pattern>
  </defs>

  <rect width="800" height="420" fill="#ffffff"/>

  <rect x="68" y="92" width="30" height="186" fill="url(#springWallHatch)" stroke="#6B7280" stroke-width="2"/>
  <line x1="56" y1="256" x2="708" y2="256" stroke="#6B7280" stroke-width="2.4"/>
  <g stroke="#6B7280" stroke-width="1.3" opacity="0.75">
    <line x1="104" y1="266" x2="84" y2="286"/>
    <line x1="184" y1="266" x2="164" y2="286"/>
    <line x1="264" y1="266" x2="244" y2="286"/>
    <line x1="344" y1="266" x2="324" y2="286"/>
    <line x1="424" y1="266" x2="404" y2="286"/>
    <line x1="504" y1="266" x2="484" y2="286"/>
    <line x1="584" y1="266" x2="564" y2="286"/>
    <line x1="664" y1="266" x2="644" y2="286"/>
  </g>

  <line x1="392" y1="70" x2="392" y2="342" stroke="#6B7280" stroke-width="1.5" stroke-dasharray="6 5"/>
  <line x1="586" y1="92" x2="586" y2="342" stroke="#6B7280" stroke-width="1.5" stroke-dasharray="6 5"/>
  <text x="392" y="365" text-anchor="middle" font-size="24" fill="#6B7280">0</text>

  <polyline points="98,192 126,192 142,154 174,230 206,154 238,230 270,154 302,230 334,154 366,230 398,154 430,230 462,154 494,230 520,192"
            fill="none" stroke="#6B7280" stroke-width="4" stroke-linejoin="round" stroke-linecap="round"/>

  <rect x="520" y="142" width="132" height="100" rx="6" fill="#F3F4F6" stroke="#6B7280" stroke-width="3"/>
  <text x="586" y="203" text-anchor="middle" font-size="40" font-weight="700" font-style="italic" fill="#1a1a1a">m</text>

  <line x1="640" y1="100" x2="466" y2="100" stroke="#8B0029" stroke-width="5.5" marker-end="url(#springRedArrow)"/>
  <rect x="541" y="66" width="36" height="30" rx="4" fill="#ffffff" fill-opacity="0.92"/>
  <text x="559" y="90" text-anchor="middle" font-size="30" font-weight="700" font-style="italic" fill="#8B0029">F</text>

  <line x1="626" y1="284" x2="488" y2="284" stroke="#8B0029" stroke-width="4.5" marker-end="url(#springRedArrow)"/>
  <rect x="546" y="253" width="34" height="30" rx="4" fill="#ffffff" fill-opacity="0.92"/>
  <text x="563" y="277" text-anchor="middle" font-size="28" font-weight="700" font-style="italic" fill="#8B0029">a</text>

  <line x1="392" y1="324" x2="586" y2="324" stroke="#2563EB" stroke-width="4.5" marker-end="url(#springBlueArrow)"/>
  <line x1="392" y1="310" x2="392" y2="338" stroke="#2563EB" stroke-width="2"/>
  <line x1="586" y1="310" x2="586" y2="338" stroke="#2563EB" stroke-width="2"/>
  <rect x="475" y="288" width="30" height="30" rx="4" fill="#ffffff" fill-opacity="0.92"/>
  <text x="490" y="312" text-anchor="middle" font-size="28" font-weight="700" font-style="italic" fill="#2563EB">x</text>

  <line x1="126" y1="386" x2="712" y2="386" stroke="#6B7280" stroke-width="2.5" marker-end="url(#springGrayArrow)"/>
  <text x="735" y="393" font-size="26" font-style="italic" fill="#6B7280">x</text>
</svg>
