<svg xmlns="http://www.w3.org/2000/svg" viewBox="0 0 760 420" font-family="sans-serif">
  <defs><marker id="axisArrowXva" markerWidth="10" markerHeight="8" refX="10" refY="4" orient="auto"><path d="M0,0 L10,4 L0,8 Z" fill="#6B7280"/></marker></defs>
  <rect x="0" y="0" width="760" height="420" fill="#ffffff"/>
  <g stroke="#6B7280" stroke-width="1" stroke-dasharray="5 5" opacity="0.35"><line x1="225" y1="28" x2="225" y2="342"/><line x1="318" y1="28" x2="318" y2="342"/><line x1="411" y1="28" x2="411" y2="342"/><line x1="504" y1="28" x2="504" y2="342"/><line x1="597" y1="28" x2="597" y2="342"/></g>
  <g><rect x="116" y="32" width="594" height="100" rx="8" fill="#F3F4F6"/><rect x="116" y="158" width="594" height="100" rx="8" fill="#F3F4F6"/><rect x="116" y="284" width="594" height="100" rx="8" fill="#F3F4F6"/></g>
  <g stroke="#6B7280" stroke-width="2" marker-end="url(#axisArrowXva)"><line x1="132" y1="82" x2="696" y2="82"/><line x1="132" y1="208" x2="696" y2="208"/><line x1="132" y1="334" x2="696" y2="334"/></g>
  <g stroke="#6B7280" stroke-width="1.4" opacity="0.55"><line x1="132" y1="46" x2="690" y2="46"/><line x1="132" y1="118" x2="690" y2="118"/><line x1="132" y1="172" x2="690" y2="172"/><line x1="132" y1="244" x2="690" y2="244"/><line x1="132" y1="298" x2="690" y2="298"/><line x1="132" y1="370" x2="690" y2="370"/></g>
  <path d="M 132.0,46.0 L 135.1,46.2 L 138.2,46.8 L 141.3,47.8 L 144.4,49.1 L 147.5,50.8 L 150.6,52.9 L 153.7,55.2 L 156.8,57.9 L 159.9,60.8 L 163.0,64.0 L 166.1,67.4 L 169.2,70.9 L 172.3,74.5 L 175.4,78.2 L 178.5,82.0 L 181.6,85.8 L 184.7,89.5 L 187.8,93.1 L 190.9,96.6 L 194.0,100.0 L 197.1,103.2 L 200.2,106.1 L 203.3,108.8 L 206.4,111.1 L 209.5,113.2 L 212.6,114.9 L 215.7,116.2 L 218.8,117.2 L 221.9,117.8 L 225.0,118.0 L 228.1,117.8 L 231.2,117.2 L 234.3,116.2 L 237.4,114.9 L 240.5,113.2 L 243.6,111.1 L 246.7,108.8 L 249.8,106.1 L 252.9,103.2 L 256.0,100.0 L 259.1,96.6 L 262.2,93.1 L 265.3,89.5 L 268.4,85.8 L 271.5,82.0 L 274.6,78.2 L 277.7,74.5 L 280.8,70.9 L 283.9,67.4 L 287.0,64.0 L 290.1,60.8 L 293.2,57.9 L 296.3,55.2 L 299.4,52.9 L 302.5,50.8 L 305.6,49.1 L 308.7,47.8 L 311.8,46.8 L 314.9,46.2 L 318.0,46.0 L 321.1,46.2 L 324.2,46.8 L 327.3,47.8 L 330.4,49.1 L 333.5,50.8 L 336.6,52.9 L 339.7,55.2 L 342.8,57.9 L 345.9,60.8 L 349.0,64.0 L 352.1,67.4 L 355.2,70.9 L 358.3,74.5 L 361.4,78.2 L 364.5,82.0 L 367.6,85.8 L 370.7,89.5 L 373.8,93.1 L 376.9,96.6 L 380.0,100.0 L 383.1,103.2 L 386.2,106.1 L 389.3,108.8 L 392.4,111.1 L 395.5,113.2 L 398.6,114.9 L 401.7,116.2 L 404.8,117.2 L 407.9,117.8 L 411.0,118.0 L 414.1,117.8 L 417.2,117.2 L 420.3,116.2 L 423.4,114.9 L 426.5,113.2 L 429.6,111.1 L 432.7,108.8 L 435.8,106.1 L 438.9,103.2 L 442.0,100.0 L 445.1,96.6 L 448.2,93.1 L 451.3,89.5 L 454.4,85.8 L 457.5,82.0 L 460.6,78.2 L 463.7,74.5 L 466.8,70.9 L 469.9,67.4 L 473.0,64.0 L 476.1,60.8 L 479.2,57.9 L 482.3,55.2 L 485.4,52.9 L 488.5,50.8 L 491.6,49.1 L 494.7,47.8 L 497.8,46.8 L 500.9,46.2 L 504.0,46.0 L 507.1,46.2 L 510.2,46.8 L 513.3,47.8 L 516.4,49.1 L 519.5,50.8 L 522.6,52.9 L 525.7,55.2 L 528.8,57.9 L 531.9,60.8 L 535.0,64.0 L 538.1,67.4 L 541.2,70.9 L 544.3,74.5 L 547.4,78.2 L 550.5,82.0 L 553.6,85.8 L 556.7,89.5 L 559.8,93.1 L 562.9,96.6 L 566.0,100.0 L 569.1,103.2 L 572.2,106.1 L 575.3,108.8 L 578.4,111.1 L 581.5,113.2 L 584.6,114.9 L 587.7,116.2 L 590.8,117.2 L 593.9,117.8 L 597.0,118.0 L 600.1,117.8 L 603.2,117.2 L 606.3,116.2 L 609.4,114.9 L 612.5,113.2 L 615.6,111.1 L 618.7,108.8 L 621.8,106.1 L 624.9,103.2 L 628.0,100.0 L 631.1,96.6 L 634.2,93.1 L 637.3,89.5 L 640.4,85.8 L 643.5,82.0 L 646.6,78.2 L 649.7,74.5 L 652.8,70.9 L 655.9,67.4 L 659.0,64.0 L 662.1,60.8 L 665.2,57.9 L 668.3,55.2 L 671.4,52.9 L 674.5,50.8 L 677.6,49.1 L 680.7,47.8 L 683.8,46.8 L 686.9,46.2 L 690.0,46.0" fill="none" stroke="#8B0029" stroke-width="6" stroke-linecap="round"/>
  <path d="M 132.0,208.0 L 135.1,211.8 L 138.2,215.5 L 141.3,219.1 L 144.4,222.6 L 147.5,226.0 L 150.6,229.2 L 153.7,232.1 L 156.8,234.8 L 159.9,237.1 L 163.0,239.2 L 166.1,240.9 L 169.2,242.2 L 172.3,243.2 L 175.4,243.8 L 178.5,244.0 L 181.6,243.8 L 184.7,243.2 L 187.8,242.2 L 190.9,240.9 L 194.0,239.2 L 197.1,237.1 L 200.2,234.8 L 203.3,232.1 L 206.4,229.2 L 209.5,226.0 L 212.6,222.6 L 215.7,219.1 L 218.8,215.5 L 221.9,211.8 L 225.0,208.0 L 228.1,204.2 L 231.2,200.5 L 234.3,196.9 L 237.4,193.4 L 240.5,190.0 L 243.6,186.8 L 246.7,183.9 L 249.8,181.2 L 252.9,178.9 L 256.0,176.8 L 259.1,175.1 L 262.2,173.8 L 265.3,172.8 L 268.4,172.2 L 271.5,172.0 L 274.6,172.2 L 277.7,172.8 L 280.8,173.8 L 283.9,175.1 L 287.0,176.8 L 290.1,178.9 L 293.2,181.2 L 296.3,183.9 L 299.4,186.8 L 302.5,190.0 L 305.6,193.4 L 308.7,196.9 L 311.8,200.5 L 314.9,204.2 L 318.0,208.0 L 321.1,211.8 L 324.2,215.5 L 327.3,219.1 L 330.4,222.6 L 333.5,226.0 L 336.6,229.2 L 339.7,232.1 L 342.8,234.8 L 345.9,237.1 L 349.0,239.2 L 352.1,240.9 L 355.2,242.2 L 358.3,243.2 L 361.4,243.8 L 364.5,244.0 L 367.6,243.8 L 370.7,243.2 L 373.8,242.2 L 376.9,240.9 L 380.0,239.2 L 383.1,237.1 L 386.2,234.8 L 389.3,232.1 L 392.4,229.2 L 395.5,226.0 L 398.6,222.6 L 401.7,219.1 L 404.8,215.5 L 407.9,211.8 L 411.0,208.0 L 414.1,204.2 L 417.2,200.5 L 420.3,196.9 L 423.4,193.4 L 426.5,190.0 L 429.6,186.8 L 432.7,183.9 L 435.8,181.2 L 438.9,178.9 L 442.0,176.8 L 445.1,175.1 L 448.2,173.8 L 451.3,172.8 L 454.4,172.2 L 457.5,172.0 L 460.6,172.2 L 463.7,172.8 L 466.8,173.8 L 469.9,175.1 L 473.0,176.8 L 476.1,178.9 L 479.2,181.2 L 482.3,183.9 L 485.4,186.8 L 488.5,190.0 L 491.6,193.4 L 494.7,196.9 L 497.8,200.5 L 500.9,204.2 L 504.0,208.0 L 507.1,211.8 L 510.2,215.5 L 513.3,219.1 L 516.4,222.6 L 519.5,226.0 L 522.6,229.2 L 525.7,232.1 L 528.8,234.8 L 531.9,237.1 L 535.0,239.2 L 538.1,240.9 L 541.2,242.2 L 544.3,243.2 L 547.4,243.8 L 550.5,244.0 L 553.6,243.8 L 556.7,243.2 L 559.8,242.2 L 562.9,240.9 L 566.0,239.2 L 569.1,237.1 L 572.2,234.8 L 575.3,232.1 L 578.4,229.2 L 581.5,226.0 L 584.6,222.6 L 587.7,219.1 L 590.8,215.5 L 593.9,211.8 L 597.0,208.0 L 600.1,204.2 L 603.2,200.5 L 606.3,196.9 L 609.4,193.4 L 612.5,190.0 L 615.6,186.8 L 618.7,183.9 L 621.8,181.2 L 624.9,178.9 L 628.0,176.8 L 631.1,175.1 L 634.2,173.8 L 637.3,172.8 L 640.4,172.2 L 643.5,172.0 L 646.6,172.2 L 649.7,172.8 L 652.8,173.8 L 655.9,175.1 L 659.0,176.8 L 662.1,178.9 L 665.2,181.2 L 668.3,183.9 L 671.4,186.8 L 674.5,190.0 L 677.6,193.4 L 680.7,196.9 L 683.8,200.5 L 686.9,204.2 L 690.0,208.0" fill="none" stroke="#2563EB" stroke-width="6" stroke-linecap="round"/>
  <path d="M 132.0,370.0 L 135.1,369.8 L 138.2,369.2 L 141.3,368.2 L 144.4,366.9 L 147.5,365.2 L 150.6,363.1 L 153.7,360.8 L 156.8,358.1 L 159.9,355.2 L 163.0,352.0 L 166.1,348.6 L 169.2,345.1 L 172.3,341.5 L 175.4,337.8 L 178.5,334.0 L 181.6,330.2 L 184.7,326.5 L 187.8,322.9 L 190.9,319.4 L 194.0,316.0 L 197.1,312.8 L 200.2,309.9 L 203.3,307.2 L 206.4,304.9 L 209.5,302.8 L 212.6,301.1 L 215.7,299.8 L 218.8,298.8 L 221.9,298.2 L 225.0,298.0 L 228.1,298.2 L 231.2,298.8 L 234.3,299.8 L 237.4,301.1 L 240.5,302.8 L 243.6,304.9 L 246.7,307.2 L 249.8,309.9 L 252.9,312.8 L 256.0,316.0 L 259.1,319.4 L 262.2,322.9 L 265.3,326.5 L 268.4,330.2 L 271.5,334.0 L 274.6,337.8 L 277.7,341.5 L 280.8,345.1 L 283.9,348.6 L 287.0,352.0 L 290.1,355.2 L 293.2,358.1 L 296.3,360.8 L 299.4,363.1 L 302.5,365.2 L 305.6,366.9 L 308.7,368.2 L 311.8,369.2 L 314.9,369.8 L 318.0,370.0 L 321.1,369.8 L 324.2,369.2 L 327.3,368.2 L 330.4,366.9 L 333.5,365.2 L 336.6,363.1 L 339.7,360.8 L 342.8,358.1 L 345.9,355.2 L 349.0,352.0 L 352.1,348.6 L 355.2,345.1 L 358.3,341.5 L 361.4,337.8 L 364.5,334.0 L 367.6,330.2 L 370.7,326.5 L 373.8,322.9 L 376.9,319.4 L 380.0,316.0 L 383.1,312.8 L 386.2,309.9 L 389.3,307.2 L 392.4,304.9 L 395.5,302.8 L 398.6,301.1 L 401.7,299.8 L 404.8,298.8 L 407.9,298.2 L 411.0,298.0 L 414.1,298.2 L 417.2,298.8 L 420.3,299.8 L 423.4,301.1 L 426.5,302.8 L 429.6,304.9 L 432.7,307.2 L 435.8,309.9 L 438.9,312.8 L 442.0,316.0 L 445.1,319.4 L 448.2,322.9 L 451.3,326.5 L 454.4,330.2 L 457.5,334.0 L 460.6,337.8 L 463.7,341.5 L 466.8,345.1 L 469.9,348.6 L 473.0,352.0 L 476.1,355.2 L 479.2,358.1 L 482.3,360.8 L 485.4,363.1 L 488.5,365.2 L 491.6,366.9 L 494.7,368.2 L 497.8,369.2 L 500.9,369.8 L 504.0,370.0 L 507.1,369.8 L 510.2,369.2 L 513.3,368.2 L 516.4,366.9 L 519.5,365.2 L 522.6,363.1 L 525.7,360.8 L 528.8,358.1 L 531.9,355.2 L 535.0,352.0 L 538.1,348.6 L 541.2,345.1 L 544.3,341.5 L 547.4,337.8 L 550.5,334.0 L 553.6,330.2 L 556.7,326.5 L 559.8,322.9 L 562.9,319.4 L 566.0,316.0 L 569.1,312.8 L 572.2,309.9 L 575.3,307.2 L 578.4,304.9 L 581.5,302.8 L 584.6,301.1 L 587.7,299.8 L 590.8,298.8 L 593.9,298.2 L 597.0,298.0 L 600.1,298.2 L 603.2,298.8 L 606.3,299.8 L 609.4,301.1 L 612.5,302.8 L 615.6,304.9 L 618.7,307.2 L 621.8,309.9 L 624.9,312.8 L 628.0,316.0 L 631.1,319.4 L 634.2,322.9 L 637.3,326.5 L 640.4,330.2 L 643.5,334.0 L 646.6,337.8 L 649.7,341.5 L 652.8,345.1 L 655.9,348.6 L 659.0,352.0 L 662.1,355.2 L 665.2,358.1 L 668.3,360.8 L 671.4,363.1 L 674.5,365.2 L 677.6,366.9 L 680.7,368.2 L 683.8,369.2 L 686.9,369.8 L 690.0,370.0" fill="none" stroke="#6B7280" stroke-width="6" stroke-linecap="round"/>
  <g font-size="46" font-weight="700" text-anchor="middle"><text x="62" y="97" fill="#8B0029">x</text><text x="62" y="223" fill="#2563EB">v</text><text x="62" y="349" fill="#6B7280">a</text></g>
  <text x="640" y="405" font-size="30" font-weight="700" fill="#6B7280">시간</text>
</svg>
