<svg xmlns="http://www.w3.org/2000/svg" viewBox="0 0 750 440" font-family="sans-serif">
  <defs>
    <marker id="arr1" markerWidth="8" markerHeight="6" refX="8" refY="3" orient="auto" fill="#8B0029">
      <polygon points="0 0, 8 3, 0 6"/>
    </marker>
  </defs>
  <rect width="750" height="440" fill="white"/>

  <text x="375" y="28" text-anchor="middle" font-size="15" font-weight="bold" fill="#8B0029">맥놀이 (Beats)</text>

  <!-- Wave 1 -->
  <text x="30" y="75" font-size="12" font-weight="bold" fill="#8B0029">s<tspan baseline-shift="sub" font-size="9">1</tspan></text>
  <line x1="50" y1="80" x2="720" y2="80" stroke="#6B728040" stroke-width="0.5"/>
  <path d="M50,80 Q56,60 62,60 Q68,60 74,80 Q80,100 86,100 Q92,100 98,80 Q104,60 110,60 Q116,60 122,80 Q128,100 134,100 Q140,100 146,80 Q152,60 158,60 Q164,60 170,80 Q176,100 182,100 Q188,100 194,80 Q200,60 206,60 Q212,60 218,80 Q224,100 230,100 Q236,100 242,80 Q248,60 254,60 Q260,60 266,80 Q272,100 278,100 Q284,100 290,80 Q296,60 302,60 Q308,60 314,80 Q320,100 326,100 Q332,100 338,80 Q344,60 350,60 Q356,60 362,80 Q368,100 374,100 Q380,100 386,80 Q392,60 398,60 Q404,60 410,80 Q416,100 422,100 Q428,100 434,80 Q440,60 446,60 Q452,60 458,80 Q464,100 470,100 Q476,100 482,80 Q488,60 494,60 Q500,60 506,80 Q512,100 518,100 Q524,100 530,80 Q536,60 542,60 Q548,60 554,80 Q560,100 566,100 Q572,100 578,80 Q584,60 590,60 Q596,60 602,80 Q608,100 614,100 Q620,100 626,80 Q632,60 638,60 Q644,60 650,80 Q656,100 662,100 Q668,100 674,80 Q680,60 686,60 Q692,60 698,80 Q704,100 710,100 Q716,100 720,80" stroke="#8B0029" stroke-width="1.5" fill="none"/>
  <text x="375" y="115" text-anchor="middle" font-size="11" fill="#8B0029">f<tspan baseline-shift="sub" font-size="9">1</tspan></text>

  <!-- Wave 2 -->
  <text x="30" y="165" font-size="12" font-weight="bold" fill="#2563EB">s<tspan baseline-shift="sub" font-size="9">2</tspan></text>
  <line x1="50" y1="170" x2="720" y2="170" stroke="#6B728040" stroke-width="0.5"/>
  <path d="M50,170 Q57,150 64,150 Q71,150 78,170 Q85,190 92,190 Q99,190 106,170 Q113,150 120,150 Q127,150 134,170 Q141,190 148,190 Q155,190 162,170 Q169,150 176,150 Q183,150 190,170 Q197,190 204,190 Q211,190 218,170 Q225,150 232,150 Q239,150 246,170 Q253,190 260,190 Q267,190 274,170 Q281,150 288,150 Q295,150 302,170 Q309,190 316,190 Q323,190 330,170 Q337,150 344,150 Q351,150 358,170 Q365,190 372,190 Q379,190 386,170 Q393,150 400,150 Q407,150 414,170 Q421,190 428,190 Q435,190 442,170 Q449,150 456,150 Q463,150 470,170 Q477,190 484,190 Q491,190 498,170 Q505,150 512,150 Q519,150 526,170 Q533,190 540,190 Q547,190 554,170 Q561,150 568,150 Q575,150 582,170 Q589,190 596,190 Q603,190 610,170 Q617,150 624,150 Q631,150 638,170 Q645,190 652,190 Q659,190 666,170 Q673,150 680,150 Q687,150 694,170 Q701,190 708,190 Q715,190 720,170" stroke="#2563EB" stroke-width="1.5" fill="none"/>
  <text x="375" y="205" text-anchor="middle" font-size="11" fill="#2563EB">f<tspan baseline-shift="sub" font-size="9">2</tspan> (&#8776; f<tspan baseline-shift="sub" font-size="9">1</tspan>)</text>

  <!-- Superposition -->
  <text x="30" y="260" font-size="12" font-weight="bold" fill="#1a1a1a">s<tspan baseline-shift="sub" font-size="9">1</tspan>+s<tspan baseline-shift="sub" font-size="9">2</tspan></text>
  <line x1="50" y1="310" x2="720" y2="310" stroke="#6B728040" stroke-width="0.5"/>

  <!-- Beat envelope (upper) -->
  <path d="M50,310 C130,270 180,270 220,310 C260,350 310,350 385,310 C460,270 510,270 550,310 C590,350 640,350 720,310" stroke="#6B7280" stroke-width="1" stroke-dasharray="4 3" fill="none"/>
  <!-- Beat envelope (lower) -->
  <path d="M50,310 C130,350 180,350 220,310 C260,270 310,270 385,310 C460,350 510,350 550,310 C590,270 640,270 720,310" stroke="#6B7280" stroke-width="1" stroke-dasharray="4 3" fill="none"/>

  <!-- Filled beat wave (simplified) -->
  <path d="M50,310 Q56,306 62,302 Q68,298 74,295 Q78,293 82,295 Q86,298 90,302 Q94,306 98,310 Q102,314 106,318 Q110,322 114,325 Q118,327 122,325 Q126,322 130,318 Q134,314 138,310 Q142,305 146,300 Q150,294 154,288 Q158,282 162,278 Q166,275 170,278 Q174,282 178,288 Q182,294 186,300 Q190,305 194,310 Q198,315 202,320 Q206,326 210,332 Q214,338 218,342 Q222,345 226,342 Q230,338 234,332 Q238,326 242,320 Q246,315 250,310 Q254,306 258,302 Q262,298 266,296 Q270,294 274,296 Q278,298 282,302 Q286,306 290,310 Q294,314 298,318 Q302,322 306,324 Q310,326 314,324 Q318,322 322,318 Q326,314 330,310 Q334,308 338,306 Q342,305 346,306 Q350,308 354,310 Q358,312 362,314 Q366,316 370,316 Q374,316 378,314 Q382,312 386,310 Q390,308 394,306 Q398,305 402,306 Q406,308 410,310 Q414,312 418,314 Q422,316 426,316 Q430,316 434,314 Q438,312 442,310 Q446,306 450,302 Q454,296 458,290 Q462,284 466,278 Q470,274 474,278 Q478,284 482,290 Q486,296 490,302 Q494,306 498,310 Q502,314 506,318 Q510,324 514,330 Q518,336 522,342 Q526,346 530,342 Q534,336 538,330 Q542,324 546,318 Q550,314 554,310 Q558,306 562,302 Q566,298 570,296 Q574,294 578,296 Q582,298 586,302 Q590,306 594,310 Q598,314 602,318 Q606,322 610,324 Q614,326 618,324 Q622,322 626,318 Q630,314 634,310 Q638,308 642,306 Q646,305 650,306 Q654,308 658,310 Q662,312 666,314 Q670,315 674,314 Q678,312 682,310 Q686,308 690,306 Q694,305 698,306 Q702,308 706,310 Q710,312 714,314 Q718,315 720,310" stroke="#1a1a1a" stroke-width="2" fill="none"/>

  <!-- Beat period markers -->
  <line x1="140" y1="370" x2="140" y2="390" stroke="#8B0029" stroke-width="1.5"/>
  <line x1="510" y1="370" x2="510" y2="390" stroke="#8B0029" stroke-width="1.5"/>
  <line x1="140" y1="385" x2="510" y2="385" stroke="#8B0029" stroke-width="1.5" marker-end="url(#arr1)"/>
  <line x1="510" y1="385" x2="140" y2="385" stroke="#8B0029" stroke-width="1.5" marker-end="url(#arr1)"/>
  <text x="325" y="405" text-anchor="middle" font-size="13" fill="#8B0029" font-weight="bold">T<tspan baseline-shift="sub" font-size="10">beat</tspan> = 1/f<tspan baseline-shift="sub" font-size="10">beat</tspan></text>

  <!-- Formula -->
  <rect x="480" y="230" width="240" height="35" rx="6" fill="#F3F4F6" stroke="#6B7280" stroke-width="1"/>
  <text x="600" y="253" text-anchor="middle" font-size="14" font-weight="bold" fill="#8B0029">f<tspan baseline-shift="sub" font-size="10">beat</tspan> = f<tspan baseline-shift="sub" font-size="10">1</tspan> - f<tspan baseline-shift="sub" font-size="10">2</tspan></text>
</svg>