<svg xmlns="http://www.w3.org/2000/svg" viewBox="0 0 750 455" font-family="sans-serif">
  <defs><marker id="bArr" markerWidth="8" markerHeight="6" refX="8" refY="3" orient="auto" fill="#6B7280"><polygon points="0 0, 8 3, 0 6"/></marker></defs>
  <text x="375" y="28" text-anchor="middle" font-size="17" font-weight="bold" fill="#8B0029">맥놀이(Beats)</text>
  <text x="40" y="75" font-size="13" fill="#2563EB" font-weight="bold">f<tspan font-size="10" baseline-shift="sub">1</tspan></text>
  <line x1="60" y1="95" x2="720" y2="95" stroke="#6B7280" stroke-width="0.5"/>
  <path d="M 60.0,95.0 L 61.8,83.8 L 63.6,74.2 L 65.3,67.6 L 67.1,65.0 L 68.9,66.8 L 70.7,72.7 L 72.4,81.8 L 74.2,92.9 L 76.0,104.3 L 77.8,114.3 L 79.6,121.5 L 81.3,124.8 L 83.1,123.8 L 84.9,118.6 L 86.7,110.0 L 88.4,99.2 L 90.2,87.7 L 92.0,77.4 L 93.8,69.6 L 95.6,65.5 L 97.3,65.7 L 99.1,70.1 L 100.9,78.2 L 102.7,88.8 L 104.4,100.2 L 106.2,110.9 L 108.0,119.3 L 109.8,124.1 L 111.6,124.7 L 113.3,121.0 L 115.1,113.5 L 116.9,103.3 L 118.7,91.9 L 120.4,80.9 L 122.2,72.0 L 124.0,66.5 L 125.8,65.1 L 127.6,68.0 L 129.3,74.9 L 131.1,84.7 L 132.9,96.0 L 134.7,107.2 L 136.4,116.6 L 138.2,122.8 L 140.0,125.0 L 141.8,122.8 L 143.6,116.6 L 145.3,107.2 L 147.1,96.0 L 148.9,84.7 L 150.7,74.9 L 152.4,68.0 L 154.2,65.1 L 156.0,66.5 L 157.8,72.0 L 159.6,80.9 L 161.3,91.9 L 163.1,103.3 L 164.9,113.5 L 166.7,121.0 L 168.4,124.7 L 170.2,124.1 L 172.0,119.3 L 173.8,110.9 L 175.6,100.2 L 177.3,88.8 L 179.1,78.2 L 180.9,70.1 L 182.7,65.7 L 184.4,65.5 L 186.2,69.6 L 188.0,77.4 L 189.8,87.7 L 191.6,99.2 L 193.3,110.0 L 195.1,118.6 L 196.9,123.8 L 198.7,124.8 L 200.4,121.5 L 202.2,114.3 L 204.0,104.3 L 205.8,92.9 L 207.6,81.8 L 209.3,72.7 L 211.1,66.8 L 212.9,65.0 L 214.7,67.6 L 216.4,74.2 L 218.2,83.8 L 220.0,95.0 L 221.8,106.2 L 223.6,115.8 L 225.3,122.4 L 227.1,125.0 L 228.9,123.2 L 230.7,117.3 L 232.4,108.2 L 234.2,97.1 L 236.0,85.7 L 237.8,75.7 L 239.6,68.5 L 241.3,65.2 L 243.1,66.2 L 244.9,71.4 L 246.7,80.0 L 248.4,90.8 L 250.2,102.3 L 252.0,112.6 L 253.8,120.4 L 255.6,124.5 L 257.3,124.3 L 259.1,119.9 L 260.9,111.8 L 262.7,101.2 L 264.4,89.8 L 266.2,79.1 L 268.0,70.7 L 269.8,65.9 L 271.6,65.3 L 273.3,69.0 L 275.1,76.5 L 276.9,86.7 L 278.7,98.1 L 280.4,109.1 L 282.2,118.0 L 284.0,123.5 L 285.8,124.9 L 287.6,122.0 L 289.3,115.1 L 291.1,105.3 L 292.9,94.0 L 294.7,82.8 L 296.4,73.4 L 298.2,67.2 L 300.0,65.0 L 301.8,67.2 L 303.6,73.4 L 305.3,82.8 L 307.1,94.0 L 308.9,105.3 L 310.7,115.1 L 312.4,122.0 L 314.2,124.9 L 316.0,123.5 L 317.8,118.0 L 319.6,109.1 L 321.3,98.1 L 323.1,86.7 L 324.9,76.5 L 326.7,69.0 L 328.4,65.3 L 330.2,65.9 L 332.0,70.7 L 333.8,79.1 L 335.6,89.8 L 337.3,101.2 L 339.1,111.8 L 340.9,119.9 L 342.7,124.3 L 344.4,124.5 L 346.2,120.4 L 348.0,112.6 L 349.8,102.3 L 351.6,90.8 L 353.3,80.0 L 355.1,71.4 L 356.9,66.2 L 358.7,65.2 L 360.4,68.5 L 362.2,75.7 L 364.0,85.7 L 365.8,97.1 L 367.6,108.2 L 369.3,117.3 L 371.1,123.2 L 372.9,125.0 L 374.7,122.4 L 376.4,115.8 L 378.2,106.2 L 380.0,95.0 L 381.8,83.8 L 383.6,74.2 L 385.3,67.6 L 387.1,65.0 L 388.9,66.8 L 390.7,72.7 L 392.4,81.8 L 394.2,92.9 L 396.0,104.3 L 397.8,114.3 L 399.6,121.5 L 401.3,124.8 L 403.1,123.8 L 404.9,118.6 L 406.7,110.0 L 408.4,99.2 L 410.2,87.7 L 412.0,77.4 L 413.8,69.6 L 415.6,65.5 L 417.3,65.7 L 419.1,70.1 L 420.9,78.2 L 422.7,88.8 L 424.4,100.2 L 426.2,110.9 L 428.0,119.3 L 429.8,124.1 L 431.6,124.7 L 433.3,121.0 L 435.1,113.5 L 436.9,103.3 L 438.7,91.9 L 440.4,80.9 L 442.2,72.0 L 444.0,66.5 L 445.8,65.1 L 447.6,68.0 L 449.3,74.9 L 451.1,84.7 L 452.9,96.0 L 454.7,107.2 L 456.4,116.6 L 458.2,122.8 L 460.0,125.0 L 461.8,122.8 L 463.6,116.6 L 465.3,107.2 L 467.1,96.0 L 468.9,84.7 L 470.7,74.9 L 472.4,68.0 L 474.2,65.1 L 476.0,66.5 L 477.8,72.0 L 479.6,80.9 L 481.3,91.9 L 483.1,103.3 L 484.9,113.5 L 486.7,121.0 L 488.4,124.7 L 490.2,124.1 L 492.0,119.3 L 493.8,110.9 L 495.6,100.2 L 497.3,88.8 L 499.1,78.2 L 500.9,70.1 L 502.7,65.7 L 504.4,65.5 L 506.2,69.6 L 508.0,77.4 L 509.8,87.7 L 511.6,99.2 L 513.3,110.0 L 515.1,118.6 L 516.9,123.8 L 518.7,124.8 L 520.4,121.5 L 522.2,114.3 L 524.0,104.3 L 525.8,92.9 L 527.6,81.8 L 529.3,72.7 L 531.1,66.8 L 532.9,65.0 L 534.7,67.6 L 536.4,74.2 L 538.2,83.8 L 540.0,95.0 L 541.8,106.2 L 543.6,115.8 L 545.3,122.4 L 547.1,125.0 L 548.9,123.2 L 550.7,117.3 L 552.4,108.2 L 554.2,97.1 L 556.0,85.7 L 557.8,75.7 L 559.6,68.5 L 561.3,65.2 L 563.1,66.2 L 564.9,71.4 L 566.7,80.0 L 568.4,90.8 L 570.2,102.3 L 572.0,112.6 L 573.8,120.4 L 575.6,124.5 L 577.3,124.3 L 579.1,119.9 L 580.9,111.8 L 582.7,101.2 L 584.4,89.8 L 586.2,79.1 L 588.0,70.7 L 589.8,65.9 L 591.6,65.3 L 593.3,69.0 L 595.1,76.5 L 596.9,86.7 L 598.7,98.1 L 600.4,109.1 L 602.2,118.0 L 604.0,123.5 L 605.8,124.9 L 607.6,122.0 L 609.3,115.1 L 611.1,105.3 L 612.9,94.0 L 614.7,82.8 L 616.4,73.4 L 618.2,67.2 L 620.0,65.0 L 621.8,67.2 L 623.6,73.4 L 625.3,82.8 L 627.1,94.0 L 628.9,105.3 L 630.7,115.1 L 632.4,122.0 L 634.2,124.9 L 636.0,123.5 L 637.8,118.0 L 639.6,109.1 L 641.3,98.1 L 643.1,86.7 L 644.9,76.5 L 646.7,69.0 L 648.4,65.3 L 650.2,65.9 L 652.0,70.7 L 653.8,79.1 L 655.6,89.8 L 657.3,101.2 L 659.1,111.8 L 660.9,119.9 L 662.7,124.3 L 664.4,124.5 L 666.2,120.4 L 668.0,112.6 L 669.8,102.3 L 671.6,90.8 L 673.3,80.0 L 675.1,71.4 L 676.9,66.2 L 678.7,65.2 L 680.4,68.5 L 682.2,75.7 L 684.0,85.7 L 685.8,97.1 L 687.6,108.2 L 689.3,117.3 L 691.1,123.2 L 692.9,125.0 L 694.7,122.4 L 696.4,115.8 L 698.2,106.2 L 700.0,95.0" fill="none" stroke="#2563EB" stroke-width="1.5"/>
  <text x="40" y="175" font-size="13" fill="#8B0029" font-weight="bold">f<tspan font-size="10" baseline-shift="sub">2</tspan></text>
  <line x1="60" y1="195" x2="720" y2="195" stroke="#6B7280" stroke-width="0.5"/>
  <path d="M 60.0,195.0 L 61.8,184.7 L 63.6,175.7 L 65.3,169.0 L 67.1,165.5 L 68.9,165.5 L 70.7,169.0 L 72.4,175.7 L 74.2,184.7 L 76.0,195.0 L 77.8,205.3 L 79.6,214.3 L 81.3,221.0 L 83.1,224.5 L 84.9,224.5 L 86.7,221.0 L 88.4,214.3 L 90.2,205.3 L 92.0,195.0 L 93.8,184.7 L 95.6,175.7 L 97.3,169.0 L 99.1,165.5 L 100.9,165.5 L 102.7,169.0 L 104.4,175.7 L 106.2,184.7 L 108.0,195.0 L 109.8,205.3 L 111.6,214.3 L 113.3,221.0 L 115.1,224.5 L 116.9,224.5 L 118.7,221.0 L 120.4,214.3 L 122.2,205.3 L 124.0,195.0 L 125.8,184.7 L 127.6,175.7 L 129.3,169.0 L 131.1,165.5 L 132.9,165.5 L 134.7,169.0 L 136.4,175.7 L 138.2,184.7 L 140.0,195.0 L 141.8,205.3 L 143.6,214.3 L 145.3,221.0 L 147.1,224.5 L 148.9,224.5 L 150.7,221.0 L 152.4,214.3 L 154.2,205.3 L 156.0,195.0 L 157.8,184.7 L 159.6,175.7 L 161.3,169.0 L 163.1,165.5 L 164.9,165.5 L 166.7,169.0 L 168.4,175.7 L 170.2,184.7 L 172.0,195.0 L 173.8,205.3 L 175.6,214.3 L 177.3,221.0 L 179.1,224.5 L 180.9,224.5 L 182.7,221.0 L 184.4,214.3 L 186.2,205.3 L 188.0,195.0 L 189.8,184.7 L 191.6,175.7 L 193.3,169.0 L 195.1,165.5 L 196.9,165.5 L 198.7,169.0 L 200.4,175.7 L 202.2,184.7 L 204.0,195.0 L 205.8,205.3 L 207.6,214.3 L 209.3,221.0 L 211.1,224.5 L 212.9,224.5 L 214.7,221.0 L 216.4,214.3 L 218.2,205.3 L 220.0,195.0 L 221.8,184.7 L 223.6,175.7 L 225.3,169.0 L 227.1,165.5 L 228.9,165.5 L 230.7,169.0 L 232.4,175.7 L 234.2,184.7 L 236.0,195.0 L 237.8,205.3 L 239.6,214.3 L 241.3,221.0 L 243.1,224.5 L 244.9,224.5 L 246.7,221.0 L 248.4,214.3 L 250.2,205.3 L 252.0,195.0 L 253.8,184.7 L 255.6,175.7 L 257.3,169.0 L 259.1,165.5 L 260.9,165.5 L 262.7,169.0 L 264.4,175.7 L 266.2,184.7 L 268.0,195.0 L 269.8,205.3 L 271.6,214.3 L 273.3,221.0 L 275.1,224.5 L 276.9,224.5 L 278.7,221.0 L 280.4,214.3 L 282.2,205.3 L 284.0,195.0 L 285.8,184.7 L 287.6,175.7 L 289.3,169.0 L 291.1,165.5 L 292.9,165.5 L 294.7,169.0 L 296.4,175.7 L 298.2,184.7 L 300.0,195.0 L 301.8,205.3 L 303.6,214.3 L 305.3,221.0 L 307.1,224.5 L 308.9,224.5 L 310.7,221.0 L 312.4,214.3 L 314.2,205.3 L 316.0,195.0 L 317.8,184.7 L 319.6,175.7 L 321.3,169.0 L 323.1,165.5 L 324.9,165.5 L 326.7,169.0 L 328.4,175.7 L 330.2,184.7 L 332.0,195.0 L 333.8,205.3 L 335.6,214.3 L 337.3,221.0 L 339.1,224.5 L 340.9,224.5 L 342.7,221.0 L 344.4,214.3 L 346.2,205.3 L 348.0,195.0 L 349.8,184.7 L 351.6,175.7 L 353.3,169.0 L 355.1,165.5 L 356.9,165.5 L 358.7,169.0 L 360.4,175.7 L 362.2,184.7 L 364.0,195.0 L 365.8,205.3 L 367.6,214.3 L 369.3,221.0 L 371.1,224.5 L 372.9,224.5 L 374.7,221.0 L 376.4,214.3 L 378.2,205.3 L 380.0,195.0 L 381.8,184.7 L 383.6,175.7 L 385.3,169.0 L 387.1,165.5 L 388.9,165.5 L 390.7,169.0 L 392.4,175.7 L 394.2,184.7 L 396.0,195.0 L 397.8,205.3 L 399.6,214.3 L 401.3,221.0 L 403.1,224.5 L 404.9,224.5 L 406.7,221.0 L 408.4,214.3 L 410.2,205.3 L 412.0,195.0 L 413.8,184.7 L 415.6,175.7 L 417.3,169.0 L 419.1,165.5 L 420.9,165.5 L 422.7,169.0 L 424.4,175.7 L 426.2,184.7 L 428.0,195.0 L 429.8,205.3 L 431.6,214.3 L 433.3,221.0 L 435.1,224.5 L 436.9,224.5 L 438.7,221.0 L 440.4,214.3 L 442.2,205.3 L 444.0,195.0 L 445.8,184.7 L 447.6,175.7 L 449.3,169.0 L 451.1,165.5 L 452.9,165.5 L 454.7,169.0 L 456.4,175.7 L 458.2,184.7 L 460.0,195.0 L 461.8,205.3 L 463.6,214.3 L 465.3,221.0 L 467.1,224.5 L 468.9,224.5 L 470.7,221.0 L 472.4,214.3 L 474.2,205.3 L 476.0,195.0 L 477.8,184.7 L 479.6,175.7 L 481.3,169.0 L 483.1,165.5 L 484.9,165.5 L 486.7,169.0 L 488.4,175.7 L 490.2,184.7 L 492.0,195.0 L 493.8,205.3 L 495.6,214.3 L 497.3,221.0 L 499.1,224.5 L 500.9,224.5 L 502.7,221.0 L 504.4,214.3 L 506.2,205.3 L 508.0,195.0 L 509.8,184.7 L 511.6,175.7 L 513.3,169.0 L 515.1,165.5 L 516.9,165.5 L 518.7,169.0 L 520.4,175.7 L 522.2,184.7 L 524.0,195.0 L 525.8,205.3 L 527.6,214.3 L 529.3,221.0 L 531.1,224.5 L 532.9,224.5 L 534.7,221.0 L 536.4,214.3 L 538.2,205.3 L 540.0,195.0 L 541.8,184.7 L 543.6,175.7 L 545.3,169.0 L 547.1,165.5 L 548.9,165.5 L 550.7,169.0 L 552.4,175.7 L 554.2,184.7 L 556.0,195.0 L 557.8,205.3 L 559.6,214.3 L 561.3,221.0 L 563.1,224.5 L 564.9,224.5 L 566.7,221.0 L 568.4,214.3 L 570.2,205.3 L 572.0,195.0 L 573.8,184.7 L 575.6,175.7 L 577.3,169.0 L 579.1,165.5 L 580.9,165.5 L 582.7,169.0 L 584.4,175.7 L 586.2,184.7 L 588.0,195.0 L 589.8,205.3 L 591.6,214.3 L 593.3,221.0 L 595.1,224.5 L 596.9,224.5 L 598.7,221.0 L 600.4,214.3 L 602.2,205.3 L 604.0,195.0 L 605.8,184.7 L 607.6,175.7 L 609.3,169.0 L 611.1,165.5 L 612.9,165.5 L 614.7,169.0 L 616.4,175.7 L 618.2,184.7 L 620.0,195.0 L 621.8,205.3 L 623.6,214.3 L 625.3,221.0 L 627.1,224.5 L 628.9,224.5 L 630.7,221.0 L 632.4,214.3 L 634.2,205.3 L 636.0,195.0 L 637.8,184.7 L 639.6,175.7 L 641.3,169.0 L 643.1,165.5 L 644.9,165.5 L 646.7,169.0 L 648.4,175.7 L 650.2,184.7 L 652.0,195.0 L 653.8,205.3 L 655.6,214.3 L 657.3,221.0 L 659.1,224.5 L 660.9,224.5 L 662.7,221.0 L 664.4,214.3 L 666.2,205.3 L 668.0,195.0 L 669.8,184.7 L 671.6,175.7 L 673.3,169.0 L 675.1,165.5 L 676.9,165.5 L 678.7,169.0 L 680.4,175.7 L 682.2,184.7 L 684.0,195.0 L 685.8,205.3 L 687.6,214.3 L 689.3,221.0 L 691.1,224.5 L 692.9,224.5 L 694.7,221.0 L 696.4,214.3 L 698.2,205.3 L 700.0,195.0" fill="none" stroke="#8B0029" stroke-width="1.5"/>
  <text x="375" y="155" text-anchor="middle" font-size="24" font-weight="bold" fill="#6B7280">+</text>
  <text x="40" y="300" font-size="13" fill="#1a1a1a" font-weight="bold">합성파</text>
  <line x1="60" y1="340" x2="720" y2="340" stroke="#6B7280" stroke-width="0.5"/>
  <path d="M 60.0,293.2 L 61.8,293.2 L 63.6,293.2 L 65.3,293.3 L 67.1,293.3 L 68.9,293.4 L 70.7,293.5 L 72.4,293.5 L 74.2,293.7 L 76.0,293.8 L 77.8,293.9 L 79.6,294.1 L 81.3,294.2 L 83.1,294.4 L 84.9,294.6 L 86.7,294.8 L 88.4,295.0 L 90.2,295.2 L 92.0,295.5 L 93.8,295.7 L 95.6,296.0 L 97.3,296.3 L 99.1,296.6 L 100.9,296.9 L 102.7,297.2 L 104.4,297.6 L 106.2,297.9 L 108.0,298.3 L 109.8,298.7 L 111.6,299.1 L 113.3,299.5 L 115.1,299.9 L 116.9,300.3 L 118.7,300.8 L 120.4,301.2 L 122.2,301.7 L 124.0,302.1 L 125.8,302.6 L 127.6,303.1 L 129.3,303.6 L 131.1,304.1 L 132.9,304.7 L 134.7,305.2 L 136.4,305.8 L 138.2,306.3 L 140.0,306.9 L 141.8,307.5 L 143.6,308.1 L 145.3,308.7 L 147.1,309.3 L 148.9,309.9 L 150.7,310.5 L 152.4,311.2 L 154.2,311.8 L 156.0,312.5 L 157.8,313.2 L 159.6,313.8 L 161.3,314.5 L 163.1,315.2 L 164.9,315.9 L 166.7,316.6 L 168.4,317.3 L 170.2,318.0 L 172.0,318.8 L 173.8,319.5 L 175.6,320.2 L 177.3,321.0 L 179.1,321.7 L 180.9,322.5 L 182.7,323.2 L 184.4,324.0 L 186.2,324.8 L 188.0,325.5 L 189.8,326.3 L 191.6,327.1 L 193.3,327.9 L 195.1,328.7 L 196.9,329.5 L 198.7,330.3 L 200.4,331.1 L 202.2,331.9 L 204.0,332.7 L 205.8,333.5 L 207.6,334.3 L 209.3,335.1 L 211.1,335.9 L 212.9,336.7 L 214.7,337.6 L 216.4,338.4 L 218.2,339.2 L 220.0,340.0 L 221.8,339.2 L 223.6,338.4 L 225.3,337.6 L 227.1,336.7 L 228.9,335.9 L 230.7,335.1 L 232.4,334.3 L 234.2,333.5 L 236.0,332.7 L 237.8,331.9 L 239.6,331.1 L 241.3,330.3 L 243.1,329.5 L 244.9,328.7 L 246.7,327.9 L 248.4,327.1 L 250.2,326.3 L 252.0,325.5 L 253.8,324.8 L 255.6,324.0 L 257.3,323.2 L 259.1,322.5 L 260.9,321.7 L 262.7,321.0 L 264.4,320.2 L 266.2,319.5 L 268.0,318.8 L 269.8,318.0 L 271.6,317.3 L 273.3,316.6 L 275.1,315.9 L 276.9,315.2 L 278.7,314.5 L 280.4,313.8 L 282.2,313.2 L 284.0,312.5 L 285.8,311.8 L 287.6,311.2 L 289.3,310.5 L 291.1,309.9 L 292.9,309.3 L 294.7,308.7 L 296.4,308.1 L 298.2,307.5 L 300.0,306.9 L 301.8,306.3 L 303.6,305.8 L 305.3,305.2 L 307.1,304.7 L 308.9,304.1 L 310.7,303.6 L 312.4,303.1 L 314.2,302.6 L 316.0,302.1 L 317.8,301.7 L 319.6,301.2 L 321.3,300.8 L 323.1,300.3 L 324.9,299.9 L 326.7,299.5 L 328.4,299.1 L 330.2,298.7 L 332.0,298.3 L 333.8,297.9 L 335.6,297.6 L 337.3,297.2 L 339.1,296.9 L 340.9,296.6 L 342.7,296.3 L 344.4,296.0 L 346.2,295.7 L 348.0,295.5 L 349.8,295.2 L 351.6,295.0 L 353.3,294.8 L 355.1,294.6 L 356.9,294.4 L 358.7,294.2 L 360.4,294.1 L 362.2,293.9 L 364.0,293.8 L 365.8,293.7 L 367.6,293.5 L 369.3,293.5 L 371.1,293.4 L 372.9,293.3 L 374.7,293.3 L 376.4,293.2 L 378.2,293.2 L 380.0,293.2 L 381.8,293.2 L 383.6,293.2 L 385.3,293.3 L 387.1,293.3 L 388.9,293.4 L 390.7,293.5 L 392.4,293.5 L 394.2,293.7 L 396.0,293.8 L 397.8,293.9 L 399.6,294.1 L 401.3,294.2 L 403.1,294.4 L 404.9,294.6 L 406.7,294.8 L 408.4,295.0 L 410.2,295.2 L 412.0,295.5 L 413.8,295.7 L 415.6,296.0 L 417.3,296.3 L 419.1,296.6 L 420.9,296.9 L 422.7,297.2 L 424.4,297.6 L 426.2,297.9 L 428.0,298.3 L 429.8,298.7 L 431.6,299.1 L 433.3,299.5 L 435.1,299.9 L 436.9,300.3 L 438.7,300.8 L 440.4,301.2 L 442.2,301.7 L 444.0,302.1 L 445.8,302.6 L 447.6,303.1 L 449.3,303.6 L 451.1,304.1 L 452.9,304.7 L 454.7,305.2 L 456.4,305.8 L 458.2,306.3 L 460.0,306.9 L 461.8,307.5 L 463.6,308.1 L 465.3,308.7 L 467.1,309.3 L 468.9,309.9 L 470.7,310.5 L 472.4,311.2 L 474.2,311.8 L 476.0,312.5 L 477.8,313.2 L 479.6,313.8 L 481.3,314.5 L 483.1,315.2 L 484.9,315.9 L 486.7,316.6 L 488.4,317.3 L 490.2,318.0 L 492.0,318.8 L 493.8,319.5 L 495.6,320.2 L 497.3,321.0 L 499.1,321.7 L 500.9,322.5 L 502.7,323.2 L 504.4,324.0 L 506.2,324.8 L 508.0,325.5 L 509.8,326.3 L 511.6,327.1 L 513.3,327.9 L 515.1,328.7 L 516.9,329.5 L 518.7,330.3 L 520.4,331.1 L 522.2,331.9 L 524.0,332.7 L 525.8,333.5 L 527.6,334.3 L 529.3,335.1 L 531.1,335.9 L 532.9,336.7 L 534.7,337.6 L 536.4,338.4 L 538.2,339.2 L 540.0,340.0 L 541.8,339.2 L 543.6,338.4 L 545.3,337.6 L 547.1,336.7 L 548.9,335.9 L 550.7,335.1 L 552.4,334.3 L 554.2,333.5 L 556.0,332.7 L 557.8,331.9 L 559.6,331.1 L 561.3,330.3 L 563.1,329.5 L 564.9,328.7 L 566.7,327.9 L 568.4,327.1 L 570.2,326.3 L 572.0,325.5 L 573.8,324.8 L 575.6,324.0 L 577.3,323.2 L 579.1,322.5 L 580.9,321.7 L 582.7,321.0 L 584.4,320.2 L 586.2,319.5 L 588.0,318.8 L 589.8,318.0 L 591.6,317.3 L 593.3,316.6 L 595.1,315.9 L 596.9,315.2 L 598.7,314.5 L 600.4,313.8 L 602.2,313.2 L 604.0,312.5 L 605.8,311.8 L 607.6,311.2 L 609.3,310.5 L 611.1,309.9 L 612.9,309.3 L 614.7,308.7 L 616.4,308.1 L 618.2,307.5 L 620.0,306.9 L 621.8,306.3 L 623.6,305.8 L 625.3,305.2 L 627.1,304.7 L 628.9,304.1 L 630.7,303.6 L 632.4,303.1 L 634.2,302.6 L 636.0,302.1 L 637.8,301.7 L 639.6,301.2 L 641.3,300.8 L 643.1,300.3 L 644.9,299.9 L 646.7,299.5 L 648.4,299.1 L 650.2,298.7 L 652.0,298.3 L 653.8,297.9 L 655.6,297.6 L 657.3,297.2 L 659.1,296.9 L 660.9,296.6 L 662.7,296.3 L 664.4,296.0 L 666.2,295.7 L 668.0,295.5 L 669.8,295.2 L 671.6,295.0 L 673.3,294.8 L 675.1,294.6 L 676.9,294.4 L 678.7,294.2 L 680.4,294.1 L 682.2,293.9 L 684.0,293.8 L 685.8,293.7 L 687.6,293.5 L 689.3,293.5 L 691.1,293.4 L 692.9,293.3 L 694.7,293.3 L 696.4,293.2 L 698.2,293.2 L 700.0,293.2" fill="none" stroke="#6B7280" stroke-width="1" stroke-dasharray="5 3"/>
  <path d="M 60.0,386.8 L 61.8,386.8 L 63.6,386.8 L 65.3,386.7 L 67.1,386.7 L 68.9,386.6 L 70.7,386.5 L 72.4,386.5 L 74.2,386.3 L 76.0,386.2 L 77.8,386.1 L 79.6,385.9 L 81.3,385.8 L 83.1,385.6 L 84.9,385.4 L 86.7,385.2 L 88.4,385.0 L 90.2,384.8 L 92.0,384.5 L 93.8,384.3 L 95.6,384.0 L 97.3,383.7 L 99.1,383.4 L 100.9,383.1 L 102.7,382.8 L 104.4,382.4 L 106.2,382.1 L 108.0,381.7 L 109.8,381.3 L 111.6,380.9 L 113.3,380.5 L 115.1,380.1 L 116.9,379.7 L 118.7,379.2 L 120.4,378.8 L 122.2,378.3 L 124.0,377.9 L 125.8,377.4 L 127.6,376.9 L 129.3,376.4 L 131.1,375.9 L 132.9,375.3 L 134.7,374.8 L 136.4,374.2 L 138.2,373.7 L 140.0,373.1 L 141.8,372.5 L 143.6,371.9 L 145.3,371.3 L 147.1,370.7 L 148.9,370.1 L 150.7,369.5 L 152.4,368.8 L 154.2,368.2 L 156.0,367.5 L 157.8,366.8 L 159.6,366.2 L 161.3,365.5 L 163.1,364.8 L 164.9,364.1 L 166.7,363.4 L 168.4,362.7 L 170.2,362.0 L 172.0,361.2 L 173.8,360.5 L 175.6,359.8 L 177.3,359.0 L 179.1,358.3 L 180.9,357.5 L 182.7,356.8 L 184.4,356.0 L 186.2,355.2 L 188.0,354.5 L 189.8,353.7 L 191.6,352.9 L 193.3,352.1 L 195.1,351.3 L 196.9,350.5 L 198.7,349.7 L 200.4,348.9 L 202.2,348.1 L 204.0,347.3 L 205.8,346.5 L 207.6,345.7 L 209.3,344.9 L 211.1,344.1 L 212.9,343.3 L 214.7,342.4 L 216.4,341.6 L 218.2,340.8 L 220.0,340.0 L 221.8,340.8 L 223.6,341.6 L 225.3,342.4 L 227.1,343.3 L 228.9,344.1 L 230.7,344.9 L 232.4,345.7 L 234.2,346.5 L 236.0,347.3 L 237.8,348.1 L 239.6,348.9 L 241.3,349.7 L 243.1,350.5 L 244.9,351.3 L 246.7,352.1 L 248.4,352.9 L 250.2,353.7 L 252.0,354.5 L 253.8,355.2 L 255.6,356.0 L 257.3,356.8 L 259.1,357.5 L 260.9,358.3 L 262.7,359.0 L 264.4,359.8 L 266.2,360.5 L 268.0,361.2 L 269.8,362.0 L 271.6,362.7 L 273.3,363.4 L 275.1,364.1 L 276.9,364.8 L 278.7,365.5 L 280.4,366.2 L 282.2,366.8 L 284.0,367.5 L 285.8,368.2 L 287.6,368.8 L 289.3,369.5 L 291.1,370.1 L 292.9,370.7 L 294.7,371.3 L 296.4,371.9 L 298.2,372.5 L 300.0,373.1 L 301.8,373.7 L 303.6,374.2 L 305.3,374.8 L 307.1,375.3 L 308.9,375.9 L 310.7,376.4 L 312.4,376.9 L 314.2,377.4 L 316.0,377.9 L 317.8,378.3 L 319.6,378.8 L 321.3,379.2 L 323.1,379.7 L 324.9,380.1 L 326.7,380.5 L 328.4,380.9 L 330.2,381.3 L 332.0,381.7 L 333.8,382.1 L 335.6,382.4 L 337.3,382.8 L 339.1,383.1 L 340.9,383.4 L 342.7,383.7 L 344.4,384.0 L 346.2,384.3 L 348.0,384.5 L 349.8,384.8 L 351.6,385.0 L 353.3,385.2 L 355.1,385.4 L 356.9,385.6 L 358.7,385.8 L 360.4,385.9 L 362.2,386.1 L 364.0,386.2 L 365.8,386.3 L 367.6,386.5 L 369.3,386.5 L 371.1,386.6 L 372.9,386.7 L 374.7,386.7 L 376.4,386.8 L 378.2,386.8 L 380.0,386.8 L 381.8,386.8 L 383.6,386.8 L 385.3,386.7 L 387.1,386.7 L 388.9,386.6 L 390.7,386.5 L 392.4,386.5 L 394.2,386.3 L 396.0,386.2 L 397.8,386.1 L 399.6,385.9 L 401.3,385.8 L 403.1,385.6 L 404.9,385.4 L 406.7,385.2 L 408.4,385.0 L 410.2,384.8 L 412.0,384.5 L 413.8,384.3 L 415.6,384.0 L 417.3,383.7 L 419.1,383.4 L 420.9,383.1 L 422.7,382.8 L 424.4,382.4 L 426.2,382.1 L 428.0,381.7 L 429.8,381.3 L 431.6,380.9 L 433.3,380.5 L 435.1,380.1 L 436.9,379.7 L 438.7,379.2 L 440.4,378.8 L 442.2,378.3 L 444.0,377.9 L 445.8,377.4 L 447.6,376.9 L 449.3,376.4 L 451.1,375.9 L 452.9,375.3 L 454.7,374.8 L 456.4,374.2 L 458.2,373.7 L 460.0,373.1 L 461.8,372.5 L 463.6,371.9 L 465.3,371.3 L 467.1,370.7 L 468.9,370.1 L 470.7,369.5 L 472.4,368.8 L 474.2,368.2 L 476.0,367.5 L 477.8,366.8 L 479.6,366.2 L 481.3,365.5 L 483.1,364.8 L 484.9,364.1 L 486.7,363.4 L 488.4,362.7 L 490.2,362.0 L 492.0,361.2 L 493.8,360.5 L 495.6,359.8 L 497.3,359.0 L 499.1,358.3 L 500.9,357.5 L 502.7,356.8 L 504.4,356.0 L 506.2,355.2 L 508.0,354.5 L 509.8,353.7 L 511.6,352.9 L 513.3,352.1 L 515.1,351.3 L 516.9,350.5 L 518.7,349.7 L 520.4,348.9 L 522.2,348.1 L 524.0,347.3 L 525.8,346.5 L 527.6,345.7 L 529.3,344.9 L 531.1,344.1 L 532.9,343.3 L 534.7,342.4 L 536.4,341.6 L 538.2,340.8 L 540.0,340.0 L 541.8,340.8 L 543.6,341.6 L 545.3,342.4 L 547.1,343.3 L 548.9,344.1 L 550.7,344.9 L 552.4,345.7 L 554.2,346.5 L 556.0,347.3 L 557.8,348.1 L 559.6,348.9 L 561.3,349.7 L 563.1,350.5 L 564.9,351.3 L 566.7,352.1 L 568.4,352.9 L 570.2,353.7 L 572.0,354.5 L 573.8,355.2 L 575.6,356.0 L 577.3,356.8 L 579.1,357.5 L 580.9,358.3 L 582.7,359.0 L 584.4,359.8 L 586.2,360.5 L 588.0,361.2 L 589.8,362.0 L 591.6,362.7 L 593.3,363.4 L 595.1,364.1 L 596.9,364.8 L 598.7,365.5 L 600.4,366.2 L 602.2,366.8 L 604.0,367.5 L 605.8,368.2 L 607.6,368.8 L 609.3,369.5 L 611.1,370.1 L 612.9,370.7 L 614.7,371.3 L 616.4,371.9 L 618.2,372.5 L 620.0,373.1 L 621.8,373.7 L 623.6,374.2 L 625.3,374.8 L 627.1,375.3 L 628.9,375.9 L 630.7,376.4 L 632.4,376.9 L 634.2,377.4 L 636.0,377.9 L 637.8,378.3 L 639.6,378.8 L 641.3,379.2 L 643.1,379.7 L 644.9,380.1 L 646.7,380.5 L 648.4,380.9 L 650.2,381.3 L 652.0,381.7 L 653.8,382.1 L 655.6,382.4 L 657.3,382.8 L 659.1,383.1 L 660.9,383.4 L 662.7,383.7 L 664.4,384.0 L 666.2,384.3 L 668.0,384.5 L 669.8,384.8 L 671.6,385.0 L 673.3,385.2 L 675.1,385.4 L 676.9,385.6 L 678.7,385.8 L 680.4,385.9 L 682.2,386.1 L 684.0,386.2 L 685.8,386.3 L 687.6,386.5 L 689.3,386.5 L 691.1,386.6 L 692.9,386.7 L 694.7,386.7 L 696.4,386.8 L 698.2,386.8 L 700.0,386.8" fill="none" stroke="#6B7280" stroke-width="1" stroke-dasharray="5 3"/>
  <path d="M 60.0,340.0 L 60.9,331.5 L 61.8,323.2 L 62.7,315.6 L 63.6,308.7 L 64.4,302.9 L 65.3,298.4 L 66.2,295.2 L 67.1,293.6 L 68.0,293.5 L 68.9,295.0 L 69.8,298.0 L 70.7,302.3 L 71.6,308.0 L 72.4,314.7 L 73.3,322.2 L 74.2,330.4 L 75.1,338.8 L 76.0,347.2 L 76.9,355.4 L 77.8,363.0 L 78.7,369.9 L 79.6,375.7 L 80.4,380.3 L 81.3,383.5 L 82.2,385.3 L 83.1,385.5 L 84.0,384.2 L 84.9,381.5 L 85.8,377.3 L 86.7,372.0 L 87.6,365.5 L 88.4,358.3 L 89.3,350.5 L 90.2,342.3 L 91.1,334.2 L 92.0,326.2 L 92.9,318.8 L 93.8,312.2 L 94.7,306.5 L 95.6,301.9 L 96.4,298.7 L 97.3,296.8 L 98.2,296.5 L 99.1,297.6 L 100.0,300.1 L 100.9,303.9 L 101.8,308.9 L 102.7,314.9 L 103.6,321.7 L 104.4,329.0 L 105.3,336.7 L 106.2,344.4 L 107.1,351.9 L 108.0,358.9 L 108.9,365.3 L 109.8,370.7 L 110.7,375.1 L 111.6,378.2 L 112.4,380.1 L 113.3,380.5 L 114.2,379.6 L 115.1,377.5 L 116.0,374.0 L 116.9,369.5 L 117.8,364.0 L 118.7,357.8 L 119.6,351.1 L 120.4,344.1 L 121.3,337.0 L 122.2,330.1 L 123.1,323.6 L 124.0,317.7 L 124.9,312.7 L 125.8,308.7 L 126.7,305.7 L 127.6,303.9 L 128.4,303.4 L 129.3,304.1 L 130.2,306.0 L 131.1,309.0 L 132.0,312.9 L 132.9,317.8 L 133.8,323.3 L 134.7,329.3 L 135.6,335.5 L 136.4,341.8 L 137.3,347.9 L 138.2,353.7 L 139.1,358.9 L 140.0,363.4 L 140.9,367.0 L 141.8,369.7 L 142.7,371.3 L 143.6,371.9 L 144.4,371.3 L 145.3,369.8 L 146.2,367.3 L 147.1,363.9 L 148.0,359.7 L 148.9,355.0 L 149.8,349.9 L 150.7,344.6 L 151.6,339.2 L 152.4,334.0 L 153.3,329.1 L 154.2,324.7 L 155.1,320.8 L 156.0,317.7 L 156.9,315.5 L 157.8,314.1 L 158.7,313.6 L 159.6,314.0 L 160.4,315.2 L 161.3,317.3 L 162.2,320.1 L 163.1,323.4 L 164.0,327.2 L 164.9,331.4 L 165.8,335.7 L 166.7,340.0 L 167.6,344.2 L 168.4,348.1 L 169.3,351.7 L 170.2,354.7 L 171.1,357.1 L 172.0,358.9 L 172.9,360.0 L 173.8,360.4 L 174.7,360.1 L 175.6,359.1 L 176.4,357.5 L 177.3,355.4 L 178.2,352.8 L 179.1,350.0 L 180.0,346.9 L 180.9,343.6 L 181.8,340.4 L 182.7,337.4 L 183.6,334.5 L 184.4,332.0 L 185.3,329.9 L 186.2,328.2 L 187.1,326.9 L 188.0,326.2 L 188.9,326.0 L 189.8,326.3 L 190.7,327.1 L 191.6,328.2 L 192.4,329.7 L 193.3,331.4 L 194.2,333.4 L 195.1,335.4 L 196.0,337.4 L 196.9,339.4 L 197.8,341.3 L 198.7,343.0 L 199.6,344.5 L 200.4,345.6 L 201.3,346.5 L 202.2,347.0 L 203.1,347.3 L 204.0,347.2 L 204.9,346.9 L 205.8,346.4 L 206.7,345.6 L 207.6,344.8 L 208.4,343.8 L 209.3,342.9 L 210.2,341.9 L 211.1,341.1 L 212.0,340.3 L 212.9,339.7 L 213.8,339.2 L 214.7,338.9 L 215.6,338.8 L 216.4,338.8 L 217.3,339.0 L 218.2,339.2 L 219.1,339.6 L 220.0,340.0 L 220.9,340.4 L 221.8,340.8 L 222.7,341.0 L 223.6,341.2 L 224.4,341.2 L 225.3,341.1 L 226.2,340.8 L 227.1,340.3 L 228.0,339.7 L 228.9,338.9 L 229.8,338.1 L 230.7,337.1 L 231.6,336.2 L 232.4,335.2 L 233.3,334.4 L 234.2,333.6 L 235.1,333.1 L 236.0,332.8 L 236.9,332.7 L 237.8,333.0 L 238.7,333.5 L 239.6,334.4 L 240.4,335.5 L 241.3,337.0 L 242.2,338.7 L 243.1,340.6 L 244.0,342.6 L 244.9,344.6 L 245.8,346.6 L 246.7,348.6 L 247.6,350.3 L 248.4,351.8 L 249.3,352.9 L 250.2,353.7 L 251.1,354.0 L 252.0,353.8 L 252.9,353.1 L 253.8,351.8 L 254.7,350.1 L 255.6,348.0 L 256.4,345.5 L 257.3,342.6 L 258.2,339.6 L 259.1,336.4 L 260.0,333.1 L 260.9,330.0 L 261.8,327.2 L 262.7,324.6 L 263.6,322.5 L 264.4,320.9 L 265.3,319.9 L 266.2,319.6 L 267.1,320.0 L 268.0,321.1 L 268.9,322.9 L 269.8,325.3 L 270.7,328.3 L 271.6,331.9 L 272.4,335.8 L 273.3,340.0 L 274.2,344.3 L 275.1,348.6 L 276.0,352.8 L 276.9,356.6 L 277.8,359.9 L 278.7,362.7 L 279.6,364.8 L 280.4,366.0 L 281.3,366.4 L 282.2,365.9 L 283.1,364.5 L 284.0,362.3 L 284.9,359.2 L 285.8,355.3 L 286.7,350.9 L 287.6,346.0 L 288.4,340.8 L 289.3,335.4 L 290.2,330.1 L 291.1,325.0 L 292.0,320.3 L 292.9,316.1 L 293.8,312.7 L 294.7,310.2 L 295.6,308.7 L 296.4,308.1 L 297.3,308.7 L 298.2,310.3 L 299.1,313.0 L 300.0,316.6 L 300.9,321.1 L 301.8,326.3 L 302.7,332.1 L 303.6,338.2 L 304.4,344.5 L 305.3,350.7 L 306.2,356.7 L 307.1,362.2 L 308.0,367.1 L 308.9,371.0 L 309.8,374.0 L 310.7,375.9 L 311.6,376.6 L 312.4,376.1 L 313.3,374.3 L 314.2,371.3 L 315.1,367.3 L 316.0,362.3 L 316.9,356.4 L 317.8,349.9 L 318.7,343.0 L 319.6,335.9 L 320.4,328.9 L 321.3,322.2 L 322.2,316.0 L 323.1,310.5 L 324.0,306.0 L 324.9,302.5 L 325.8,300.4 L 326.7,299.5 L 327.6,299.9 L 328.4,301.8 L 329.3,304.9 L 330.2,309.3 L 331.1,314.7 L 332.0,321.1 L 332.9,328.1 L 333.8,335.6 L 334.7,343.3 L 335.6,351.0 L 336.4,358.3 L 337.3,365.1 L 338.2,371.1 L 339.1,376.1 L 340.0,379.9 L 340.9,382.4 L 341.8,383.5 L 342.7,383.2 L 343.6,381.3 L 344.4,378.1 L 345.3,373.5 L 346.2,367.8 L 347.1,361.2 L 348.0,353.8 L 348.9,345.8 L 349.8,337.7 L 350.7,329.5 L 351.6,321.7 L 352.4,314.5 L 353.3,308.0 L 354.2,302.7 L 355.1,298.5 L 356.0,295.8 L 356.9,294.5 L 357.8,294.7 L 358.7,296.5 L 359.6,299.7 L 360.4,304.3 L 361.3,310.1 L 362.2,317.0 L 363.1,324.6 L 364.0,332.8 L 364.9,341.2 L 365.8,349.6 L 366.7,357.8 L 367.6,365.3 L 368.4,372.0 L 369.3,377.7 L 370.2,382.0 L 371.1,385.0 L 372.0,386.5 L 372.9,386.4 L 373.8,384.8 L 374.7,381.6 L 375.6,377.1 L 376.4,371.3 L 377.3,364.4 L 378.2,356.8 L 379.1,348.5 L 380.0,340.0 L 380.9,331.5 L 381.8,323.2 L 382.7,315.6 L 383.6,308.7 L 384.4,302.9 L 385.3,298.4 L 386.2,295.2 L 387.1,293.6 L 388.0,293.5 L 388.9,295.0 L 389.8,298.0 L 390.7,302.3 L 391.6,308.0 L 392.4,314.7 L 393.3,322.2 L 394.2,330.4 L 395.1,338.8 L 396.0,347.2 L 396.9,355.4 L 397.8,363.0 L 398.7,369.9 L 399.6,375.7 L 400.4,380.3 L 401.3,383.5 L 402.2,385.3 L 403.1,385.5 L 404.0,384.2 L 404.9,381.5 L 405.8,377.3 L 406.7,372.0 L 407.6,365.5 L 408.4,358.3 L 409.3,350.5 L 410.2,342.3 L 411.1,334.2 L 412.0,326.2 L 412.9,318.8 L 413.8,312.2 L 414.7,306.5 L 415.6,301.9 L 416.4,298.7 L 417.3,296.8 L 418.2,296.5 L 419.1,297.6 L 420.0,300.1 L 420.9,303.9 L 421.8,308.9 L 422.7,314.9 L 423.6,321.7 L 424.4,329.0 L 425.3,336.7 L 426.2,344.4 L 427.1,351.9 L 428.0,358.9 L 428.9,365.3 L 429.8,370.7 L 430.7,375.1 L 431.6,378.2 L 432.4,380.1 L 433.3,380.5 L 434.2,379.6 L 435.1,377.5 L 436.0,374.0 L 436.9,369.5 L 437.8,364.0 L 438.7,357.8 L 439.6,351.1 L 440.4,344.1 L 441.3,337.0 L 442.2,330.1 L 443.1,323.6 L 444.0,317.7 L 444.9,312.7 L 445.8,308.7 L 446.7,305.7 L 447.6,303.9 L 448.4,303.4 L 449.3,304.1 L 450.2,306.0 L 451.1,309.0 L 452.0,312.9 L 452.9,317.8 L 453.8,323.3 L 454.7,329.3 L 455.6,335.5 L 456.4,341.8 L 457.3,347.9 L 458.2,353.7 L 459.1,358.9 L 460.0,363.4 L 460.9,367.0 L 461.8,369.7 L 462.7,371.3 L 463.6,371.9 L 464.4,371.3 L 465.3,369.8 L 466.2,367.3 L 467.1,363.9 L 468.0,359.7 L 468.9,355.0 L 469.8,349.9 L 470.7,344.6 L 471.6,339.2 L 472.4,334.0 L 473.3,329.1 L 474.2,324.7 L 475.1,320.8 L 476.0,317.7 L 476.9,315.5 L 477.8,314.1 L 478.7,313.6 L 479.6,314.0 L 480.4,315.2 L 481.3,317.3 L 482.2,320.1 L 483.1,323.4 L 484.0,327.2 L 484.9,331.4 L 485.8,335.7 L 486.7,340.0 L 487.6,344.2 L 488.4,348.1 L 489.3,351.7 L 490.2,354.7 L 491.1,357.1 L 492.0,358.9 L 492.9,360.0 L 493.8,360.4 L 494.7,360.1 L 495.6,359.1 L 496.4,357.5 L 497.3,355.4 L 498.2,352.8 L 499.1,350.0 L 500.0,346.9 L 500.9,343.6 L 501.8,340.4 L 502.7,337.4 L 503.6,334.5 L 504.4,332.0 L 505.3,329.9 L 506.2,328.2 L 507.1,326.9 L 508.0,326.2 L 508.9,326.0 L 509.8,326.3 L 510.7,327.1 L 511.6,328.2 L 512.4,329.7 L 513.3,331.4 L 514.2,333.4 L 515.1,335.4 L 516.0,337.4 L 516.9,339.4 L 517.8,341.3 L 518.7,343.0 L 519.6,344.5 L 520.4,345.6 L 521.3,346.5 L 522.2,347.0 L 523.1,347.3 L 524.0,347.2 L 524.9,346.9 L 525.8,346.4 L 526.7,345.6 L 527.6,344.8 L 528.4,343.8 L 529.3,342.9 L 530.2,341.9 L 531.1,341.1 L 532.0,340.3 L 532.9,339.7 L 533.8,339.2 L 534.7,338.9 L 535.6,338.8 L 536.4,338.8 L 537.3,339.0 L 538.2,339.2 L 539.1,339.6 L 540.0,340.0 L 540.9,340.4 L 541.8,340.8 L 542.7,341.0 L 543.6,341.2 L 544.4,341.2 L 545.3,341.1 L 546.2,340.8 L 547.1,340.3 L 548.0,339.7 L 548.9,338.9 L 549.8,338.1 L 550.7,337.1 L 551.6,336.2 L 552.4,335.2 L 553.3,334.4 L 554.2,333.6 L 555.1,333.1 L 556.0,332.8 L 556.9,332.7 L 557.8,333.0 L 558.7,333.5 L 559.6,334.4 L 560.4,335.5 L 561.3,337.0 L 562.2,338.7 L 563.1,340.6 L 564.0,342.6 L 564.9,344.6 L 565.8,346.6 L 566.7,348.6 L 567.6,350.3 L 568.4,351.8 L 569.3,352.9 L 570.2,353.7 L 571.1,354.0 L 572.0,353.8 L 572.9,353.1 L 573.8,351.8 L 574.7,350.1 L 575.6,348.0 L 576.4,345.5 L 577.3,342.6 L 578.2,339.6 L 579.1,336.4 L 580.0,333.1 L 580.9,330.0 L 581.8,327.2 L 582.7,324.6 L 583.6,322.5 L 584.4,320.9 L 585.3,319.9 L 586.2,319.6 L 587.1,320.0 L 588.0,321.1 L 588.9,322.9 L 589.8,325.3 L 590.7,328.3 L 591.6,331.9 L 592.4,335.8 L 593.3,340.0 L 594.2,344.3 L 595.1,348.6 L 596.0,352.8 L 596.9,356.6 L 597.8,359.9 L 598.7,362.7 L 599.6,364.8 L 600.4,366.0 L 601.3,366.4 L 602.2,365.9 L 603.1,364.5 L 604.0,362.3 L 604.9,359.2 L 605.8,355.3 L 606.7,350.9 L 607.6,346.0 L 608.4,340.8 L 609.3,335.4 L 610.2,330.1 L 611.1,325.0 L 612.0,320.3 L 612.9,316.1 L 613.8,312.7 L 614.7,310.2 L 615.6,308.7 L 616.4,308.1 L 617.3,308.7 L 618.2,310.3 L 619.1,313.0 L 620.0,316.6 L 620.9,321.1 L 621.8,326.3 L 622.7,332.1 L 623.6,338.2 L 624.4,344.5 L 625.3,350.7 L 626.2,356.7 L 627.1,362.2 L 628.0,367.1 L 628.9,371.0 L 629.8,374.0 L 630.7,375.9 L 631.6,376.6 L 632.4,376.1 L 633.3,374.3 L 634.2,371.3 L 635.1,367.3 L 636.0,362.3 L 636.9,356.4 L 637.8,349.9 L 638.7,343.0 L 639.6,335.9 L 640.4,328.9 L 641.3,322.2 L 642.2,316.0 L 643.1,310.5 L 644.0,306.0 L 644.9,302.5 L 645.8,300.4 L 646.7,299.5 L 647.6,299.9 L 648.4,301.8 L 649.3,304.9 L 650.2,309.3 L 651.1,314.7 L 652.0,321.1 L 652.9,328.1 L 653.8,335.6 L 654.7,343.3 L 655.6,351.0 L 656.4,358.3 L 657.3,365.1 L 658.2,371.1 L 659.1,376.1 L 660.0,379.9 L 660.9,382.4 L 661.8,383.5 L 662.7,383.2 L 663.6,381.3 L 664.4,378.1 L 665.3,373.5 L 666.2,367.8 L 667.1,361.2 L 668.0,353.8 L 668.9,345.8 L 669.8,337.7 L 670.7,329.5 L 671.6,321.7 L 672.4,314.5 L 673.3,308.0 L 674.2,302.7 L 675.1,298.5 L 676.0,295.8 L 676.9,294.5 L 677.8,294.7 L 678.7,296.5 L 679.6,299.7 L 680.4,304.3 L 681.3,310.1 L 682.2,317.0 L 683.1,324.6 L 684.0,332.8 L 684.9,341.2 L 685.8,349.6 L 686.7,357.8 L 687.6,365.3 L 688.4,372.0 L 689.3,377.7 L 690.2,382.0 L 691.1,385.0 L 692.0,386.5 L 692.9,386.4 L 693.8,384.8 L 694.7,381.6 L 695.6,377.1 L 696.4,371.3 L 697.3,364.4 L 698.2,356.8 L 699.1,348.5 L 700.0,340.0" fill="none" stroke="#8B0029" stroke-width="2"/>
  <line x1="60" y1="405" x2="380" y2="405" stroke="#8B0029" stroke-width="1.5"/>
  <line x1="380" y1="405" x2="60" y2="405" stroke="#8B0029" stroke-width="1.5"/>
  <line x1="60" y1="398" x2="60" y2="412" stroke="#8B0029" stroke-width="1"/><line x1="380" y1="398" x2="380" y2="412" stroke="#8B0029" stroke-width="1"/>
  <text x="220" y="430" text-anchor="middle" font-size="14" fill="#8B0029" font-style="italic">T<tspan font-size="10" baseline-shift="sub">beat</tspan> = 1/|f<tspan font-size="10" baseline-shift="sub">1</tspan> − f<tspan font-size="10" baseline-shift="sub">2</tspan>|</text>
  <text x="60" y="280" text-anchor="middle" font-size="12" fill="#8B0029" font-weight="bold">큰 소리</text>
  <text x="220" y="328" text-anchor="middle" font-size="12" fill="#6B7280">작은 소리</text>
  <text x="380" y="280" text-anchor="middle" font-size="12" fill="#8B0029" font-weight="bold">큰 소리</text>
  <text x="540" y="328" text-anchor="middle" font-size="12" fill="#6B7280">작은 소리</text>
  <text x="700" y="280" text-anchor="middle" font-size="12" fill="#8B0029" font-weight="bold">큰 소리</text>
</svg>
