<svg xmlns="http://www.w3.org/2000/svg" viewBox="0 0 750 440" font-family="sans-serif">
  <defs>
    <marker id="mcR" markerWidth="10" markerHeight="7" refX="10" refY="3.5" orient="auto"><polygon points="0 0, 10 3.5, 0 7" fill="#8B0029"/></marker>
    <marker id="mcB" markerWidth="10" markerHeight="7" refX="10" refY="3.5" orient="auto"><polygon points="0 0, 10 3.5, 0 7" fill="#2563EB"/></marker>
    <marker id="mcG" markerWidth="10" markerHeight="7" refX="10" refY="3.5" orient="auto"><polygon points="0 0, 10 3.5, 0 7" fill="#6B7280"/></marker>
  </defs>
  <rect width="100%" height="100%" fill="white"/>
  <text x="375" y="28" font-size="15" fill="#8B0029" text-anchor="middle" font-weight="bold">마하 원뿔과 충격파 (vₛ &gt; v)</text>
  <circle cx="190" cy="210" r="4" fill="#6B7280" stroke="#6B7280" stroke-width="0"/>
  <circle cx="190" cy="210" r="170" fill="none" stroke="#2563EB30" stroke-width="1.2"/>
  <circle cx="270" cy="210" r="3" fill="#6B7280" stroke="#6B7280" stroke-width="0"/>
  <circle cx="270" cy="210" r="136" fill="none" stroke="#2563EB40" stroke-width="1.2"/>
  <circle cx="350" cy="210" r="3" fill="#6B7280" stroke="#6B7280" stroke-width="0"/>
  <circle cx="350" cy="210" r="102" fill="none" stroke="#2563EB55" stroke-width="1.2"/>
  <circle cx="430" cy="210" r="3" fill="#6B7280" stroke="#6B7280" stroke-width="0"/>
  <circle cx="430" cy="210" r="68" fill="none" stroke="#2563EB77" stroke-width="1.2"/>
  <circle cx="510" cy="210" r="3" fill="#6B7280" stroke="#6B7280" stroke-width="0"/>
  <circle cx="510" cy="210" r="34" fill="none" stroke="#2563EB99" stroke-width="1.2"/>
  <text x="190" y="235" font-size="10" fill="#6B7280" text-anchor="middle">S₁</text>
  <circle cx="590" cy="210" r="8" fill="#8B0029" stroke="#8B0029" stroke-width="0"/>
  <text x="605" y="207" font-size="14" fill="#8B0029" font-weight="bold">S</text>
  <line x1="600" y1="210" x2="660" y2="210" stroke="#8B0029" stroke-width="2.5" fill="none" marker-end="url(#mcR)"/>
  <text x="640" y="198" font-size="13" fill="#8B0029" font-weight="bold" font-style="italic">vₛ</text>
  <line x1="590" y1="210" x2="200.8" y2="27.2" stroke="#8B0029" stroke-width="2.5" fill="none"/>
  <line x1="590" y1="210" x2="200.8" y2="392.7" stroke="#8B0029" stroke-width="2.5" fill="none"/>
  <text x="350" y="72" transform="rotate(-25.2,350,72)" font-size="12" fill="#8B0029" text-anchor="middle" font-weight="bold">충격파 면 (Mach cone)</text>
  <path d="M 550,210 A 40,40 0 0,1 553.8,193" fill="none" stroke="#6B7280" stroke-width="1.5" data-angle-origin="590,210" data-angle-radius="40" data-angle-start="180" data-angle-end="154.8"/>
  <text x="535.3" y="202.8" font-size="14" fill="#6B7280" text-anchor="middle" font-weight="bold" font-style="italic">θ</text>
  <line x1="190" y1="395" x2="590" y2="395" stroke="#6B7280" stroke-width="1" fill="none"/>
  <line x1="190" y1="388" x2="190" y2="402" stroke="#6B7280" stroke-width="1.5" fill="none"/>
  <line x1="590" y1="388" x2="590" y2="402" stroke="#6B7280" stroke-width="1.5" fill="none"/>
  <text x="390" y="412" font-size="12" fill="#6B7280" text-anchor="middle" font-style="italic">vₛ t</text>
  <line x1="190" y1="210" x2="190" y2="40" stroke="#6B7280" stroke-width="0.8" fill="none" stroke-dasharray="3 3"/>
  <text x="168" y="130" font-size="12" fill="#6B7280" text-anchor="middle" font-style="italic">vt</text>
  <rect x="440" y="310" width="280" height="70" rx="8" fill="#F3F4F6" stroke="#6B7280" stroke-width="1"/>
  <text x="580" y="335" font-size="14" fill="#8B0029" text-anchor="middle" font-weight="bold">sin θ = v / vₛ</text>
  <text x="580" y="360" font-size="13" fill="#6B7280" text-anchor="middle">Ma = vₛ / v  (Mach number)</text>
</svg>
