<svg xmlns="http://www.w3.org/2000/svg" viewBox="0 0 750 450" font-family="sans-serif">
  <defs><marker id="arrowR" markerWidth="8" markerHeight="6" refX="8" refY="3" orient="auto"><path d="M0,0 L8,3 L0,6 Z" fill="#6B7280"/></marker></defs>
  <rect width="750" height="450" fill="white"/>
  <text x="375" y="30" text-anchor="middle" font-size="16" font-weight="bold" fill="#8B0029">음파의 변위와 압력 변화</text>
  <text x="50" y="65" font-size="13" font-weight="bold" fill="#1a1a1a">(a) 변위 s(x,t) = sₘ cos(kx − ωt)</text>
  <line x1="80" y1="130" x2="700" y2="130" stroke="#6B7280" stroke-width="1" marker-end="url(#arrowR)"/>
  <line x1="80" y1="75" x2="80" y2="190" stroke="#6B7280" stroke-width="1"/>
  <text x="710" y="134" font-size="12" fill="#6B7280" font-style="italic">x</text><text x="65" y="83" font-size="12" fill="#6B7280" font-style="italic">s</text>
  <text x="55" y="102" font-size="11" fill="#8B0029" font-style="italic">sₘ</text><line x1="72" y1="98" x2="80" y2="98" stroke="#8B0029" stroke-width="1" stroke-dasharray="3 2"/>
  <text x="48" y="170" font-size="11" fill="#8B0029" font-style="italic">−sₘ</text><line x1="72" y1="162" x2="80" y2="162" stroke="#8B0029" stroke-width="1" stroke-dasharray="3 2"/>
  <path d="M 80.0,98.0 L 83.4,98.1 L 86.9,98.4 L 90.3,98.9 L 93.8,99.6 L 97.2,100.5 L 100.7,101.6 L 104.1,102.9 L 107.6,104.4 L 111.0,106.0 L 114.4,107.7 L 117.9,109.7 L 121.3,111.7 L 124.8,113.9 L 128.2,116.1 L 131.7,118.5 L 135.1,120.9 L 138.6,123.4 L 142.0,125.9 L 145.4,128.5 L 148.9,131.0 L 152.3,133.6 L 155.8,136.1 L 159.2,138.6 L 162.7,141.1 L 166.1,143.4 L 169.6,145.7 L 173.0,147.9 L 176.4,150.0 L 179.9,151.9 L 183.3,153.7 L 186.8,155.3 L 190.2,156.8 L 193.7,158.1 L 197.1,159.3 L 200.6,160.2 L 204.0,161.0 L 207.4,161.5 L 210.9,161.9 L 214.3,162.0 L 217.8,161.9 L 221.2,161.7 L 224.7,161.2 L 228.1,160.5 L 231.6,159.7 L 235.0,158.6 L 238.4,157.4 L 241.9,155.9 L 245.3,154.4 L 248.8,152.6 L 252.2,150.7 L 255.7,148.7 L 259.1,146.6 L 262.6,144.3 L 266.0,142.0 L 269.4,139.6 L 272.9,137.1 L 276.3,134.6 L 279.8,132.0 L 283.2,129.5 L 286.7,126.9 L 290.1,124.4 L 293.6,121.9 L 297.0,119.4 L 300.4,117.0 L 303.9,114.7 L 307.3,112.5 L 310.8,110.4 L 314.2,108.5 L 317.7,106.6 L 321.1,105.0 L 324.6,103.4 L 328.0,102.1 L 331.4,100.9 L 334.9,100.0 L 338.3,99.2 L 341.8,98.6 L 345.2,98.2 L 348.7,98.0 L 352.1,98.0 L 355.6,98.3 L 359.0,98.7 L 362.4,99.3 L 365.9,100.2 L 369.3,101.2 L 372.8,102.4 L 376.2,103.8 L 379.7,105.3 L 383.1,107.0 L 386.6,108.9 L 390.0,110.9 L 393.4,113.0 L 396.9,115.2 L 400.3,117.6 L 403.8,120.0 L 407.2,122.4 L 410.7,124.9 L 414.1,127.5 L 417.6,130.0 L 421.0,132.6 L 424.4,135.1 L 427.9,137.7 L 431.3,140.1 L 434.8,142.5 L 438.2,144.8 L 441.7,147.1 L 445.1,149.2 L 448.6,151.2 L 452.0,153.0 L 455.4,154.7 L 458.9,156.3 L 462.3,157.7 L 465.8,158.9 L 469.2,159.9 L 472.7,160.7 L 476.1,161.3 L 479.6,161.7 L 483.0,162.0 L 486.4,162.0 L 489.9,161.8 L 493.3,161.4 L 496.8,160.8 L 500.2,160.0 L 503.7,159.0 L 507.1,157.9 L 510.6,156.5 L 514.0,155.0 L 517.4,153.3 L 520.9,151.5 L 524.3,149.5 L 527.8,147.4 L 531.2,145.2 L 534.7,142.9 L 538.1,140.5 L 541.6,138.1 L 545.0,135.6 L 548.4,133.0 L 551.9,130.5 L 555.3,127.9 L 558.8,125.3 L 562.2,122.8 L 565.7,120.3 L 569.1,117.9 L 572.6,115.6 L 576.0,113.4 L 579.4,111.2 L 582.9,109.2 L 586.3,107.3 L 589.8,105.6 L 593.2,104.0 L 596.7,102.6 L 600.1,101.4 L 603.6,100.3 L 607.0,99.5 L 610.4,98.8 L 613.9,98.3 L 617.3,98.1 L 620.8,98.0 L 624.2,98.2 L 627.7,98.5 L 631.1,99.1 L 634.6,99.8 L 638.0,100.8 L 641.4,101.9 L 644.9,103.2 L 648.3,104.7 L 651.8,106.4 L 655.2,108.2 L 658.7,110.1 L 662.1,112.2 L 665.6,114.4 L 669.0,116.6 L 672.4,119.0 L 675.9,121.5 L 679.3,124.0 L 682.8,126.5 L 686.2,129.0 L 689.7,131.6 L 693.1,134.2 L 696.6,136.7 L 700.0,139.2" stroke="#8B0029" stroke-width="2.5" fill="none"/>
  <line x1="80" y1="200" x2="350" y2="200" stroke="#6B7280" stroke-width="1"/>
  <line x1="80" y1="195" x2="80" y2="205" stroke="#6B7280" stroke-width="1.5"/><line x1="350" y1="195" x2="350" y2="205" stroke="#6B7280" stroke-width="1.5"/>
  <text x="215" y="218" text-anchor="middle" font-size="14" fill="#6B7280" font-style="italic">λ</text>
  <text x="50" y="255" font-size="13" font-weight="bold" fill="#1a1a1a">(b) Δp(x,t) = Δpₘ sin(kx − ωt)</text>
  <line x1="80" y1="320" x2="700" y2="320" stroke="#6B7280" stroke-width="1" marker-end="url(#arrowR)"/>
  <line x1="80" y1="265" x2="80" y2="380" stroke="#6B7280" stroke-width="1"/>
  <text x="710" y="324" font-size="12" fill="#6B7280" font-style="italic">x</text><text x="55" y="273" font-size="12" fill="#6B7280" font-style="italic">Δp</text>
  <text x="40" y="293" font-size="11" fill="#2563EB" font-style="italic">Δpₘ</text><line x1="72" y1="288" x2="80" y2="288" stroke="#2563EB" stroke-width="1" stroke-dasharray="3 2"/>
  <text x="32" y="360" font-size="11" fill="#2563EB" font-style="italic">−Δpₘ</text><line x1="72" y1="352" x2="80" y2="352" stroke="#2563EB" stroke-width="1" stroke-dasharray="3 2"/>
  <path d="M 80.0,320.0 L 83.4,317.4 L 86.9,314.9 L 90.3,312.4 L 93.8,309.9 L 97.2,307.5 L 100.7,305.2 L 104.1,303.0 L 107.6,300.9 L 111.0,298.9 L 114.4,297.0 L 117.9,295.3 L 121.3,293.8 L 124.8,292.4 L 128.2,291.2 L 131.7,290.1 L 135.1,289.3 L 138.6,288.7 L 142.0,288.3 L 145.4,288.0 L 148.9,288.0 L 152.3,288.2 L 155.8,288.6 L 159.2,289.2 L 162.7,290.0 L 166.1,291.0 L 169.6,292.1 L 173.0,293.5 L 176.4,295.0 L 179.9,296.7 L 183.3,298.5 L 186.8,300.5 L 190.2,302.6 L 193.7,304.8 L 197.1,307.1 L 200.6,309.4 L 204.0,311.9 L 207.4,314.4 L 210.9,316.9 L 214.3,319.5 L 217.8,322.1 L 221.2,324.6 L 224.7,327.1 L 228.1,329.6 L 231.6,332.0 L 235.0,334.4 L 238.4,336.6 L 241.9,338.7 L 245.3,340.8 L 248.8,342.6 L 252.2,344.4 L 255.7,346.0 L 259.1,347.4 L 262.6,348.6 L 266.0,349.7 L 269.4,350.5 L 272.9,351.2 L 276.3,351.7 L 279.8,351.9 L 283.2,352.0 L 286.7,351.8 L 290.1,351.5 L 293.6,350.9 L 297.0,350.2 L 300.4,349.3 L 303.9,348.1 L 307.3,346.8 L 310.8,345.3 L 314.2,343.7 L 317.7,341.9 L 321.1,339.9 L 324.6,337.9 L 328.0,335.7 L 331.4,333.4 L 334.9,331.0 L 338.3,328.6 L 341.8,326.1 L 345.2,323.6 L 348.7,321.0 L 352.1,318.4 L 355.6,315.9 L 359.0,313.3 L 362.4,310.9 L 365.9,308.4 L 369.3,306.1 L 372.8,303.8 L 376.2,301.7 L 379.7,299.6 L 383.1,297.7 L 386.6,295.9 L 390.0,294.3 L 393.4,292.9 L 396.9,291.6 L 400.3,290.5 L 403.8,289.6 L 407.2,288.9 L 410.7,288.4 L 414.1,288.1 L 417.6,288.0 L 421.0,288.1 L 424.4,288.4 L 427.9,288.9 L 431.3,289.6 L 434.8,290.6 L 438.2,291.6 L 441.7,292.9 L 445.1,294.4 L 448.6,296.0 L 452.0,297.8 L 455.4,299.7 L 458.9,301.7 L 462.3,303.9 L 465.8,306.2 L 469.2,308.5 L 472.7,310.9 L 476.1,313.4 L 479.6,316.0 L 483.0,318.5 L 486.4,321.1 L 489.9,323.6 L 493.3,326.2 L 496.8,328.7 L 500.2,331.1 L 503.7,333.5 L 507.1,335.7 L 510.6,337.9 L 514.0,340.0 L 517.4,341.9 L 520.9,343.7 L 524.3,345.4 L 527.8,346.8 L 531.2,348.2 L 534.7,349.3 L 538.1,350.2 L 541.6,351.0 L 545.0,351.5 L 548.4,351.9 L 551.9,352.0 L 555.3,351.9 L 558.8,351.7 L 562.2,351.2 L 565.7,350.5 L 569.1,349.6 L 572.6,348.6 L 576.0,347.3 L 579.4,345.9 L 582.9,344.3 L 586.3,342.6 L 589.8,340.7 L 593.2,338.7 L 596.7,336.5 L 600.1,334.3 L 603.6,331.9 L 607.0,329.5 L 610.4,327.1 L 613.9,324.5 L 617.3,322.0 L 620.8,319.4 L 624.2,316.9 L 627.7,314.3 L 631.1,311.8 L 634.6,309.4 L 638.0,307.0 L 641.4,304.7 L 644.9,302.5 L 648.3,300.4 L 651.8,298.4 L 655.2,296.6 L 658.7,294.9 L 662.1,293.4 L 665.6,292.1 L 669.0,290.9 L 672.4,289.9 L 675.9,289.2 L 679.3,288.6 L 682.8,288.2 L 686.2,288.0 L 689.7,288.0 L 693.1,288.3 L 696.6,288.7 L 700.0,289.3" stroke="#2563EB" stroke-width="2.5" fill="none"/>
  <line x1="80" y1="98" x2="80" y2="320" stroke="#6B7280" stroke-width="0.8" stroke-dasharray="3 3"/>
  <line x1="147.5" y1="130" x2="147.5" y2="288" stroke="#6B7280" stroke-width="0.8" stroke-dasharray="3 3"/>
  <text x="114" y="240" text-anchor="middle" font-size="11" fill="#6B7280">π/2</text><line x1="85" y1="236" x2="143" y2="236" stroke="#6B7280" stroke-width="1" marker-end="url(#arrowR)"/>
  <rect x="120" y="395" width="70" height="22" rx="4" fill="#8B002922"/><text x="155" y="411" text-anchor="middle" font-size="11" fill="#8B0029" font-weight="bold">압축</text>
  <rect x="260" y="395" width="70" height="22" rx="4" fill="#2563EB22"/><text x="295" y="411" text-anchor="middle" font-size="11" fill="#2563EB" font-weight="bold">팽창</text>
  <text x="550" y="410" text-anchor="middle" font-size="12" fill="#6B7280">변위와 압력은 π/2 (90°) 위상차</text>
</svg>
