<svg xmlns="http://www.w3.org/2000/svg" viewBox="0 0 720 430" font-family="sans-serif">
  <defs>
    <marker id="pdR" markerWidth="10" markerHeight="7" refX="10" refY="3.5" orient="auto"><polygon points="0 0, 10 3.5, 0 7" fill="#8B0029"/></marker>
    <marker id="pdB" markerWidth="10" markerHeight="7" refX="10" refY="3.5" orient="auto"><polygon points="0 0, 10 3.5, 0 7" fill="#2563EB"/></marker>
    <marker id="pdG" markerWidth="10" markerHeight="7" refX="10" refY="3.5" orient="auto"><polygon points="0 0, 10 3.5, 0 7" fill="#6B7280"/></marker>
  </defs>
  <rect width="100%" height="100%" fill="white"/>
  <line x1="40" y1="380" x2="680" y2="380" stroke="#6B7280" stroke-width="2" fill="none" marker-end="url(#pdG)"/>
  <line x1="80" y1="400" x2="80" y2="45" stroke="#6B7280" stroke-width="2" fill="none" marker-end="url(#pdG)"/>
  <text x="690" y="385" font-size="14" fill="#6B7280" font-style="italic">x</text>
  <text x="68" y="40" font-size="14" fill="#6B7280" font-style="italic">y</text>
  <path d="M 80,380 C 215,190 420,170 650,380" fill="none" stroke="#8B0029" stroke-width="2.5"/>
  <line x1="80" y1="380" x2="167.3" y2="264.2" stroke="#8B0029" stroke-width="2.5" fill="none" marker-end="url(#pdR)"/>
  <line x1="80" y1="380" x2="167.3" y2="380" stroke="#2563EB" stroke-width="2" fill="none" marker-end="url(#pdB)"/>
  <line x1="167.3" y1="380" x2="167.3" y2="264.2" stroke="#2563EB" stroke-width="2" fill="none" marker-end="url(#pdB)"/>
  <line x1="167.3" y1="380" x2="167.3" y2="264.2" stroke="#6B7280" stroke-width="1" fill="none" stroke-dasharray="4 3"/>
  <text x="170" y="250" font-size="15" fill="#8B0029" font-weight="bold" font-style="italic">v₀</text>
  <text x="165" y="405" font-size="14" fill="#2563EB" font-style="italic">v₀ cos θ₀</text>
  <text x="175.3" y="322.1" font-size="14" fill="#2563EB" font-style="italic">v₀ sin θ₀</text>
  <path d="M 114,380 A 34,34 0 0,0 100.5,352.8" fill="none" stroke="#6B7280" stroke-width="1.5" data-angle-origin="80,380" data-angle-radius="34" data-angle-start="0" data-angle-end="53"/>
  <text x="124.7" y="362.7" font-size="14" fill="#6B7280" text-anchor="middle" font-weight="bold" font-style="italic">θ₀</text>
  <text x="330" y="80" font-size="14" fill="#6B7280" text-anchor="middle">vₓ 일정, vᵧ만 중력가속도 때문에 변함</text>
</svg>
