<svg xmlns="http://www.w3.org/2000/svg" viewBox="0 0 750 420" font-family="sans-serif">
  <defs><marker id="a-gray" markerWidth="8" markerHeight="6" refX="7" refY="3" orient="auto"><polygon points="0 0, 8 3, 0 6" fill="#6B7280"/></marker></defs>
  <rect x="40" y="360" width="680" height="30" fill="#F3F4F6" rx="4"/><line x1="60" y1="360" x2="720" y2="360" stroke="#6B7280" stroke-width="2" marker-end="url(#a-gray)"/><line x1="60" y1="360" x2="60" y2="30" stroke="#6B7280" stroke-width="2" marker-end="url(#a-gray)"/>
  <text x="710" y="385" font-size="14" fill="#6B7280" font-style="italic">x</text><text x="38" y="40" font-size="14" fill="#6B7280" font-style="italic">y</text>
  <path d="M 60.0,360.0 L 62.5,359.3 L 65.0,358.7 L 67.5,358.0 L 70.0,357.4 L 72.5,356.8 L 75.0,356.2 L 77.5,355.6 L 80.0,355.0 L 82.5,354.4 L 85.0,353.9 L 87.5,353.3 L 90.0,352.8 L 92.5,352.2 L 95.0,351.7 L 97.5,351.2 L 100.0,350.7 L 102.5,350.2 L 105.0,349.8 L 107.5,349.3 L 110.0,348.8 L 112.5,348.4 L 115.0,348.0 L 117.5,347.5 L 120.0,347.1 L 122.5,346.7 L 125.0,346.4 L 127.5,346.0 L 130.0,345.6 L 132.5,345.3 L 135.0,344.9 L 137.5,344.6 L 140.0,344.3 L 142.5,344.0 L 145.0,343.7 L 147.5,343.4 L 150.0,343.1 L 152.5,342.9 L 155.0,342.6 L 157.5,342.4 L 160.0,342.1 L 162.5,341.9 L 165.0,341.7 L 167.5,341.5 L 170.0,341.3 L 172.5,341.2 L 175.0,341.0 L 177.5,340.8 L 180.0,340.7 L 182.5,340.6 L 185.0,340.5 L 187.5,340.4 L 190.0,340.3 L 192.5,340.2 L 195.0,340.1 L 197.5,340.0 L 200.0,340.0 L 202.5,340.0 L 205.0,339.9 L 207.5,339.9 L 210.0,339.9 L 212.5,339.9 L 215.0,339.9 L 217.5,340.0 L 220.0,340.0 L 222.5,340.0 L 225.0,340.1 L 227.5,340.2 L 230.0,340.3 L 232.5,340.4 L 235.0,340.5 L 237.5,340.6 L 240.0,340.7 L 242.5,340.8 L 245.0,341.0 L 247.5,341.2 L 250.0,341.3 L 252.5,341.5 L 255.0,341.7 L 257.5,341.9 L 260.0,342.1 L 262.5,342.4 L 265.0,342.6 L 267.5,342.9 L 270.0,343.1 L 272.5,343.4 L 275.0,343.7 L 277.5,344.0 L 280.0,344.3 L 282.5,344.6 L 285.0,344.9 L 287.5,345.3 L 290.0,345.6 L 292.5,346.0 L 295.0,346.4 L 297.5,346.7 L 300.0,347.1 L 302.5,347.5 L 305.0,348.0 L 307.5,348.4 L 310.0,348.8 L 312.5,349.3 L 315.0,349.8 L 317.5,350.2 L 320.0,350.7 L 322.5,351.2 L 325.0,351.7 L 327.5,352.2 L 330.0,352.8 L 332.5,353.3 L 335.0,353.9 L 337.5,354.4 L 340.0,355.0 L 342.5,355.6 L 345.0,356.2 L 347.5,356.8 L 350.0,357.4 L 352.5,358.0 L 355.0,358.7 L 357.5,359.3 L 360.0,360.0" fill="none" stroke="#6B7280" stroke-width="2"/><text x="150" y="340" font-size="14" fill="#6B7280">15°</text>
  <path d="M 60.0,360.0 L 64.3,357.5 L 68.7,355.1 L 73.0,352.7 L 77.3,350.3 L 81.7,348.0 L 86.0,345.8 L 90.3,343.5 L 94.6,341.3 L 99.0,339.2 L 103.3,337.1 L 107.6,335.0 L 112.0,333.0 L 116.3,331.0 L 120.6,329.1 L 125.0,327.2 L 129.3,325.3 L 133.6,323.5 L 137.9,321.8 L 142.3,320.0 L 146.6,318.3 L 150.9,316.7 L 155.3,315.1 L 159.6,313.5 L 163.9,312.0 L 168.3,310.5 L 172.6,309.1 L 176.9,307.7 L 181.2,306.3 L 185.6,305.0 L 189.9,303.8 L 194.2,302.5 L 198.6,301.3 L 202.9,300.2 L 207.2,299.1 L 211.6,298.0 L 215.9,297.0 L 220.2,296.0 L 224.5,295.1 L 228.9,294.2 L 233.2,293.3 L 237.5,292.5 L 241.9,291.8 L 246.2,291.0 L 250.5,290.3 L 254.9,289.7 L 259.2,289.1 L 263.5,288.5 L 267.8,288.0 L 272.2,287.5 L 276.5,287.1 L 280.8,286.7 L 285.2,286.3 L 289.5,286.0 L 293.8,285.8 L 298.2,285.5 L 302.5,285.3 L 306.8,285.2 L 311.1,285.1 L 315.5,285.0 L 319.8,285.0 L 324.1,285.0 L 328.5,285.1 L 332.8,285.2 L 337.1,285.3 L 341.5,285.5 L 345.8,285.8 L 350.1,286.0 L 354.4,286.3 L 358.8,286.7 L 363.1,287.1 L 367.4,287.5 L 371.8,288.0 L 376.1,288.5 L 380.4,289.1 L 384.8,289.7 L 389.1,290.3 L 393.4,291.0 L 397.7,291.8 L 402.1,292.5 L 406.4,293.3 L 410.7,294.2 L 415.1,295.1 L 419.4,296.0 L 423.7,297.0 L 428.1,298.0 L 432.4,299.1 L 436.7,300.2 L 441.1,301.3 L 445.4,302.5 L 449.7,303.8 L 454.0,305.0 L 458.4,306.3 L 462.7,307.7 L 467.0,309.1 L 471.4,310.5 L 475.7,312.0 L 480.0,313.5 L 484.4,315.1 L 488.7,316.7 L 493.0,318.3 L 497.3,320.0 L 501.7,321.8 L 506.0,323.5 L 510.3,325.3 L 514.7,327.2 L 519.0,329.1 L 523.3,331.0 L 527.7,333.0 L 532.0,335.0 L 536.3,337.1 L 540.6,339.2 L 545.0,341.3 L 549.3,343.5 L 553.6,345.8 L 558.0,348.0 L 562.3,350.3 L 566.6,352.7 L 571.0,355.1 L 575.3,357.5 L 579.6,360.0" fill="none" stroke="#2563EB" stroke-width="2"/><text x="255" y="300" font-size="14" fill="#2563EB">30°</text>
  <path d="M 60.0,360.0 L 65.0,355.0 L 70.0,350.2 L 75.0,345.4 L 80.0,340.7 L 85.0,336.0 L 90.0,331.5 L 95.0,327.0 L 100.0,322.7 L 105.0,318.4 L 110.0,314.2 L 115.0,310.0 L 120.0,306.0 L 125.0,302.0 L 130.0,298.2 L 135.0,294.4 L 140.0,290.7 L 145.0,287.0 L 150.0,283.5 L 155.0,280.0 L 160.0,276.7 L 165.0,273.4 L 170.0,270.2 L 175.0,267.0 L 180.0,264.0 L 185.0,261.0 L 190.0,258.2 L 195.0,255.4 L 200.0,252.7 L 205.0,250.0 L 210.0,247.5 L 215.0,245.0 L 220.0,242.7 L 225.0,240.4 L 230.0,238.2 L 235.0,236.0 L 240.0,234.0 L 245.0,232.0 L 250.0,230.2 L 255.0,228.4 L 260.0,226.7 L 265.0,225.0 L 270.0,223.5 L 275.0,222.0 L 280.0,220.7 L 285.0,219.4 L 290.0,218.2 L 295.0,217.0 L 300.0,216.0 L 305.0,215.0 L 310.0,214.2 L 315.0,213.4 L 320.0,212.7 L 325.0,212.0 L 330.0,211.5 L 335.0,211.0 L 340.0,210.7 L 345.0,210.4 L 350.0,210.2 L 355.0,210.0 L 360.0,210.0 L 365.0,210.0 L 370.0,210.2 L 375.0,210.4 L 380.0,210.7 L 385.0,211.0 L 390.0,211.5 L 395.0,212.0 L 400.0,212.7 L 405.0,213.4 L 410.0,214.2 L 415.0,215.0 L 420.0,216.0 L 425.0,217.0 L 430.0,218.2 L 435.0,219.4 L 440.0,220.7 L 445.0,222.0 L 450.0,223.5 L 455.0,225.0 L 460.0,226.7 L 465.0,228.4 L 470.0,230.2 L 475.0,232.0 L 480.0,234.0 L 485.0,236.0 L 490.0,238.2 L 495.0,240.4 L 500.0,242.7 L 505.0,245.0 L 510.0,247.5 L 515.0,250.0 L 520.0,252.7 L 525.0,255.4 L 530.0,258.2 L 535.0,261.0 L 540.0,264.0 L 545.0,267.0 L 550.0,270.2 L 555.0,273.4 L 560.0,276.7 L 565.0,280.0 L 570.0,283.5 L 575.0,287.0 L 580.0,290.7 L 585.0,294.4 L 590.0,298.2 L 595.0,302.0 L 600.0,306.0 L 605.0,310.0 L 610.0,314.2 L 615.0,318.4 L 620.0,322.7 L 625.0,327.0 L 630.0,331.5 L 635.0,336.0 L 640.0,340.7 L 645.0,345.4 L 650.0,350.2 L 655.0,355.0 L 660.0,360.0" fill="none" stroke="#8B0029" stroke-width="2.5"/><text x="340" y="200" font-size="14" fill="#8B0029" font-weight="bold">45°</text><text x="335" y="180" font-size="14" fill="#8B0029">(최대 도달거리)</text>
  <path d="M 60.0,360.0 L 64.3,352.6 L 68.7,345.3 L 73.0,338.1 L 77.3,331.0 L 81.7,324.1 L 86.0,317.2 L 90.3,310.6 L 94.6,304.0 L 99.0,297.6 L 103.3,291.2 L 107.6,285.1 L 112.0,279.0 L 116.3,273.1 L 120.6,267.2 L 125.0,261.6 L 129.3,256.0 L 133.6,250.6 L 137.9,245.2 L 142.3,240.1 L 146.6,235.0 L 150.9,230.1 L 155.3,225.3 L 159.6,220.6 L 163.9,216.0 L 168.3,211.6 L 172.6,207.3 L 176.9,203.1 L 181.2,199.0 L 185.6,195.1 L 189.9,191.3 L 194.2,187.6 L 198.6,184.0 L 202.9,180.6 L 207.2,177.2 L 211.6,174.1 L 215.9,171.0 L 220.2,168.1 L 224.5,165.3 L 228.9,162.6 L 233.2,160.0 L 237.5,157.6 L 241.9,155.3 L 246.2,153.1 L 250.5,151.0 L 254.9,149.1 L 259.2,147.3 L 263.5,145.6 L 267.8,144.0 L 272.2,142.6 L 276.5,141.2 L 280.8,140.1 L 285.2,139.0 L 289.5,138.1 L 293.8,137.3 L 298.2,136.6 L 302.5,136.0 L 306.8,135.6 L 311.1,135.3 L 315.5,135.1 L 319.8,135.0 L 324.1,135.1 L 328.5,135.3 L 332.8,135.6 L 337.1,136.0 L 341.5,136.6 L 345.8,137.3 L 350.1,138.1 L 354.4,139.0 L 358.8,140.1 L 363.1,141.3 L 367.4,142.6 L 371.8,144.0 L 376.1,145.6 L 380.4,147.3 L 384.8,149.1 L 389.1,151.0 L 393.4,153.1 L 397.7,155.3 L 402.1,157.6 L 406.4,160.0 L 410.7,162.6 L 415.1,165.2 L 419.4,168.1 L 423.7,171.0 L 428.1,174.1 L 432.4,177.2 L 436.7,180.6 L 441.1,184.0 L 445.4,187.6 L 449.7,191.3 L 454.0,195.1 L 458.4,199.0 L 462.7,203.1 L 467.0,207.3 L 471.4,211.6 L 475.7,216.0 L 480.0,220.6 L 484.4,225.2 L 488.7,230.1 L 493.0,235.0 L 497.3,240.1 L 501.7,245.2 L 506.0,250.6 L 510.3,256.0 L 514.7,261.6 L 519.0,267.2 L 523.3,273.1 L 527.7,279.0 L 532.0,285.1 L 536.3,291.3 L 540.6,297.6 L 545.0,304.0 L 549.3,310.6 L 553.6,317.2 L 558.0,324.1 L 562.3,331.0 L 566.6,338.1 L 571.0,345.2 L 575.3,352.6 L 579.6,360.0" fill="none" stroke="#2563EB" stroke-width="1" stroke-dasharray="4 3"/><text x="120" y="155" font-size="14" fill="#2563EB">60°</text>
  <path d="M 60.0,360.0 L 62.5,350.7 L 65.0,341.7 L 67.5,332.7 L 70.0,323.9 L 72.5,315.3 L 75.0,306.8 L 77.5,298.5 L 80.0,290.3 L 82.5,282.3 L 85.0,274.5 L 87.5,266.8 L 90.0,259.2 L 92.5,251.8 L 95.0,244.6 L 97.5,237.5 L 100.0,230.6 L 102.5,223.9 L 105.0,217.2 L 107.5,210.8 L 110.0,204.5 L 112.5,198.4 L 115.0,192.4 L 117.5,186.5 L 120.0,180.9 L 122.5,175.3 L 125.0,170.0 L 127.5,164.8 L 130.0,159.7 L 132.5,154.8 L 135.0,150.1 L 137.5,145.5 L 140.0,141.1 L 142.5,136.8 L 145.0,132.7 L 147.5,128.7 L 150.0,124.9 L 152.5,121.2 L 155.0,117.7 L 157.5,114.4 L 160.0,111.2 L 162.5,108.2 L 165.0,105.3 L 167.5,102.6 L 170.0,100.0 L 172.5,97.6 L 175.0,95.3 L 177.5,93.2 L 180.0,91.3 L 182.5,89.5 L 185.0,87.9 L 187.5,86.4 L 190.0,85.1 L 192.5,83.9 L 195.0,82.9 L 197.5,82.0 L 200.0,81.3 L 202.5,80.8 L 205.0,80.4 L 207.5,80.2 L 210.0,80.1 L 212.5,80.2 L 215.0,80.4 L 217.5,80.8 L 220.0,81.3 L 222.5,82.0 L 225.0,82.9 L 227.5,83.9 L 230.0,85.1 L 232.5,86.4 L 235.0,87.9 L 237.5,89.5 L 240.0,91.3 L 242.5,93.2 L 245.0,95.3 L 247.5,97.6 L 250.0,100.0 L 252.5,102.6 L 255.0,105.3 L 257.5,108.2 L 260.0,111.2 L 262.5,114.4 L 265.0,117.7 L 267.5,121.2 L 270.0,124.9 L 272.5,128.7 L 275.0,132.7 L 277.5,136.8 L 280.0,141.1 L 282.5,145.5 L 285.0,150.1 L 287.5,154.8 L 290.0,159.7 L 292.5,164.8 L 295.0,170.0 L 297.5,175.3 L 300.0,180.9 L 302.5,186.5 L 305.0,192.4 L 307.5,198.4 L 310.0,204.5 L 312.5,210.8 L 315.0,217.2 L 317.5,223.9 L 320.0,230.6 L 322.5,237.5 L 325.0,244.6 L 327.5,251.8 L 330.0,259.2 L 332.5,266.8 L 335.0,274.5 L 337.5,282.3 L 340.0,290.3 L 342.5,298.5 L 345.0,306.8 L 347.5,315.3 L 350.0,323.9 L 352.5,332.7 L 355.0,341.7 L 357.5,350.7 L 360.0,360.0" fill="none" stroke="#6B7280" stroke-width="1" stroke-dasharray="4 3"/><text x="75" y="90" font-size="14" fill="#6B7280">75°</text>
  <rect x="490" y="50" width="220" height="85" rx="6" fill="#F3F4F6" stroke="#6B7280" stroke-width="1"/><text x="505" y="75" font-size="14" fill="#1a1a1a">같은 도달거리:</text><text x="505" y="100" font-size="14" fill="#2563EB">30° 와 60° (보각 관계)</text><text x="505" y="122" font-size="14" fill="#6B7280">15° 와 75° (보각 관계)</text>
</svg>
