<svg xmlns="http://www.w3.org/2000/svg" viewBox="0 0 750 420" font-family="sans-serif">
  <defs><marker id="axArrow" markerWidth="8" markerHeight="6" refX="8" refY="3" orient="auto"><polygon points="0 0, 8 3, 0 6" fill="#1a1a1a"/></marker></defs>
  <line x1="80" y1="350" x2="700" y2="350" stroke="#1a1a1a" stroke-width="2" marker-end="url(#axArrow)"/><line x1="80" y1="350" x2="80" y2="40" stroke="#1a1a1a" stroke-width="2" marker-end="url(#axArrow)"/>
  <text x="710" y="355" font-size="14" fill="#1a1a1a">v (m/s)</text><text x="60" y="35" font-size="14" fill="#1a1a1a" text-anchor="end">P(v)</text>
  <text x="80" y="370" font-size="11" fill="#6B7280" text-anchor="middle">0</text><text x="200" y="370" font-size="11" fill="#6B7280" text-anchor="middle">200</text><text x="320" y="370" font-size="11" fill="#6B7280" text-anchor="middle">400</text><text x="440" y="370" font-size="11" fill="#6B7280" text-anchor="middle">600</text><text x="560" y="370" font-size="11" fill="#6B7280" text-anchor="middle">800</text><text x="680" y="370" font-size="11" fill="#6B7280" text-anchor="middle">1000</text>
  <path d="M 80.0,350.0 L 82.5,350.0 L 85.0,349.8 L 87.5,349.6 L 90.0,349.3 L 92.5,348.9 L 95.0,348.4 L 97.5,347.9 L 100.0,347.2 L 102.5,346.5 L 105.0,345.7 L 107.5,344.8 L 110.0,343.8 L 112.5,342.7 L 115.0,341.6 L 117.5,340.4 L 120.0,339.1 L 122.5,337.8 L 125.0,336.3 L 127.5,334.8 L 130.0,333.3 L 132.5,331.6 L 135.0,329.9 L 137.5,328.2 L 140.0,326.4 L 142.5,324.5 L 145.0,322.6 L 147.5,320.6 L 150.0,318.6 L 152.5,316.5 L 155.0,314.4 L 157.5,312.2 L 160.0,310.0 L 162.5,307.8 L 165.0,305.5 L 167.5,303.2 L 170.0,300.9 L 172.5,298.6 L 175.0,296.2 L 177.5,293.8 L 180.0,291.4 L 182.5,289.0 L 185.0,286.6 L 187.5,284.2 L 190.0,281.7 L 192.5,279.3 L 195.0,276.9 L 197.5,274.4 L 200.0,272.0 L 202.5,269.6 L 205.0,267.2 L 207.5,264.8 L 210.0,262.5 L 212.5,260.1 L 215.0,257.8 L 217.5,255.5 L 220.0,253.2 L 222.5,251.0 L 225.0,248.8 L 227.5,246.6 L 230.0,244.5 L 232.5,242.4 L 235.0,240.4 L 237.5,238.4 L 240.0,236.4 L 242.5,234.5 L 245.0,232.7 L 247.5,230.9 L 250.0,229.1 L 252.5,227.4 L 255.0,225.8 L 257.5,224.2 L 260.0,222.6 L 262.5,221.2 L 265.0,219.8 L 267.5,218.4 L 270.0,217.2 L 272.5,215.9 L 275.0,214.8 L 277.5,213.7 L 280.0,212.7 L 282.5,211.7 L 285.0,210.8 L 287.5,210.0 L 290.0,209.3 L 292.5,208.6 L 295.0,208.0 L 297.5,207.4 L 300.0,206.9 L 302.5,206.5 L 305.0,206.2 L 307.5,205.9 L 310.0,205.7 L 312.5,205.5 L 315.0,205.4 L 317.5,205.4 L 320.0,205.5 L 322.5,205.6 L 325.0,205.7 L 327.5,206.0 L 330.0,206.3 L 332.5,206.6 L 335.0,207.0 L 337.5,207.5 L 340.0,208.0 L 342.5,208.6 L 345.0,209.3 L 347.5,209.9 L 350.0,210.7 L 352.5,211.5 L 355.0,212.3 L 357.5,213.2 L 360.0,214.2 L 362.5,215.1 L 365.0,216.2 L 367.5,217.2 L 370.0,218.3 L 372.5,219.5 L 375.0,220.7 L 377.5,221.9 L 380.0,223.2 L 382.5,224.4 L 385.0,225.8 L 387.5,227.1 L 390.0,228.5 L 392.5,229.9 L 395.0,231.3 L 397.5,232.8 L 400.0,234.3 L 402.5,235.8 L 405.0,237.3 L 407.5,238.8 L 410.0,240.4 L 412.5,241.9 L 415.0,243.5 L 417.5,245.1 L 420.0,246.7 L 422.5,248.3 L 425.0,250.0 L 427.5,251.6 L 430.0,253.2 L 432.5,254.8 L 435.0,256.5 L 437.5,258.1 L 440.0,259.8 L 442.5,261.4 L 445.0,263.0 L 447.5,264.7 L 450.0,266.3 L 452.5,267.9 L 455.0,269.5 L 457.5,271.1 L 460.0,272.7 L 462.5,274.3 L 465.0,275.9 L 467.5,277.5 L 470.0,279.1 L 472.5,280.6 L 475.0,282.1 L 477.5,283.7 L 480.0,285.2 L 482.5,286.7 L 485.0,288.1 L 487.5,289.6 L 490.0,291.0 L 492.5,292.5 L 495.0,293.9 L 497.5,295.2 L 500.0,296.6 L 502.5,298.0 L 505.0,299.3 L 507.5,300.6 L 510.0,301.9 L 512.5,303.2 L 515.0,304.4 L 517.5,305.7 L 520.0,306.9 L 522.5,308.1 L 525.0,309.2 L 527.5,310.4 L 530.0,311.5 L 532.5,312.6 L 535.0,313.7 L 537.5,314.7 L 540.0,315.8 L 542.5,316.8 L 545.0,317.8 L 547.5,318.8 L 550.0,319.7 L 552.5,320.7 L 555.0,321.6 L 557.5,322.5 L 560.0,323.3 L 562.5,324.2 L 565.0,325.0 L 567.5,325.8 L 570.0,326.6 L 572.5,327.4 L 575.0,328.2 L 577.5,328.9 L 580.0,329.6 L 582.5,330.3 L 585.0,331.0 L 587.5,331.6 L 590.0,332.3 L 592.5,332.9 L 595.0,333.5 L 597.5,334.1 L 600.0,334.7 L 602.5,335.2 L 605.0,335.7 L 607.5,336.3 L 610.0,336.8 L 612.5,337.3 L 615.0,337.7 L 617.5,338.2 L 620.0,338.7 L 622.5,339.1 L 625.0,339.5 L 627.5,339.9 L 630.0,340.3 L 632.5,340.7 L 635.0,341.1 L 637.5,341.4 L 640.0,341.8 L 642.5,342.1 L 645.0,342.4 L 647.5,342.7 L 650.0,343.0 L 652.5,343.3 L 655.0,343.6 L 657.5,343.8 L 660.0,344.1 L 662.5,344.4 L 665.0,344.6 L 667.5,344.8 L 670.0,345.0 L 672.5,345.3 L 675.0,345.5 L 677.5,345.7 L 680.0,345.9" fill="none" stroke="#8B0029" stroke-width="2.5"/><path d="M 80.0,350.0 L 82.5,349.7 L 85.0,348.7 L 87.5,347.2 L 90.0,345.0 L 92.5,342.1 L 95.0,338.7 L 97.5,334.8 L 100.0,330.2 L 102.5,325.1 L 105.0,319.5 L 107.5,313.5 L 110.0,306.9 L 112.5,300.0 L 115.0,292.6 L 117.5,284.9 L 120.0,276.9 L 122.5,268.6 L 125.0,260.1 L 127.5,251.4 L 130.0,242.5 L 132.5,233.5 L 135.0,224.4 L 137.5,215.3 L 140.0,206.1 L 142.5,197.1 L 145.0,188.1 L 147.5,179.2 L 150.0,170.5 L 152.5,161.9 L 155.0,153.6 L 157.5,145.6 L 160.0,137.9 L 162.5,130.4 L 165.0,123.3 L 167.5,116.6 L 170.0,110.3 L 172.5,104.4 L 175.0,98.9 L 177.5,93.9 L 180.0,89.3 L 182.5,85.3 L 185.0,81.6 L 187.5,78.5 L 190.0,75.9 L 192.5,73.7 L 195.0,72.1 L 197.5,70.9 L 200.0,70.2 L 202.5,70.0 L 205.0,70.3 L 207.5,71.0 L 210.0,72.1 L 212.5,73.7 L 215.0,75.7 L 217.5,78.1 L 220.0,80.9 L 222.5,84.0 L 225.0,87.5 L 227.5,91.3 L 230.0,95.5 L 232.5,99.9 L 235.0,104.5 L 237.5,109.4 L 240.0,114.5 L 242.5,119.9 L 245.0,125.3 L 247.5,131.0 L 250.0,136.8 L 252.5,142.6 L 255.0,148.6 L 257.5,154.7 L 260.0,160.8 L 262.5,166.9 L 265.0,173.0 L 267.5,179.2 L 270.0,185.3 L 272.5,191.4 L 275.0,197.4 L 277.5,203.4 L 280.0,209.3 L 282.5,215.2 L 285.0,220.9 L 287.5,226.6 L 290.0,232.1 L 292.5,237.5 L 295.0,242.7 L 297.5,247.9 L 300.0,252.9 L 302.5,257.7 L 305.0,262.4 L 307.5,267.0 L 310.0,271.4 L 312.5,275.6 L 315.0,279.7 L 317.5,283.7 L 320.0,287.5 L 322.5,291.1 L 325.0,294.6 L 327.5,297.9 L 330.0,301.1 L 332.5,304.1 L 335.0,307.0 L 337.5,309.7 L 340.0,312.4 L 342.5,314.8 L 345.0,317.2 L 347.5,319.4 L 350.0,321.5 L 352.5,323.5 L 355.0,325.4 L 357.5,327.1 L 360.0,328.8 L 362.5,330.3 L 365.0,331.8 L 367.5,333.2 L 370.0,334.4 L 372.5,335.6 L 375.0,336.8 L 377.5,337.8 L 380.0,338.8 L 382.5,339.7 L 385.0,340.5 L 387.5,341.3 L 390.0,342.0 L 392.5,342.7 L 395.0,343.3 L 397.5,343.9 L 400.0,344.4 L 402.5,344.9 L 405.0,345.4 L 407.5,345.8 L 410.0,346.2 L 412.5,346.5 L 415.0,346.8 L 417.5,347.1 L 420.0,347.4 L 422.5,347.6 L 425.0,347.9 L 427.5,348.1 L 430.0,348.3 L 432.5,348.4 L 435.0,348.6 L 437.5,348.7 L 440.0,348.9 L 442.5,349.0 L 445.0,349.1 L 447.5,349.2 L 450.0,349.3 L 452.5,349.3 L 455.0,349.4 L 457.5,349.5 L 460.0,349.5 L 462.5,349.6 L 465.0,349.6 L 467.5,349.7 L 470.0,349.7 L 472.5,349.7 L 475.0,349.8 L 477.5,349.8 L 480.0,349.8 L 482.5,349.8 L 485.0,349.9 L 487.5,349.9 L 490.0,349.9 L 492.5,349.9 L 495.0,349.9 L 497.5,349.9 L 500.0,349.9 L 502.5,349.9 L 505.0,349.9 L 507.5,350.0 L 510.0,350.0 L 512.5,350.0 L 515.0,350.0 L 517.5,350.0 L 520.0,350.0 L 522.5,350.0 L 525.0,350.0 L 527.5,350.0 L 530.0,350.0 L 532.5,350.0 L 535.0,350.0 L 537.5,350.0 L 540.0,350.0 L 542.5,350.0 L 545.0,350.0 L 547.5,350.0 L 550.0,350.0 L 552.5,350.0 L 555.0,350.0 L 557.5,350.0 L 560.0,350.0 L 562.5,350.0 L 565.0,350.0 L 567.5,350.0 L 570.0,350.0 L 572.5,350.0 L 575.0,350.0 L 577.5,350.0 L 580.0,350.0 L 582.5,350.0 L 585.0,350.0 L 587.5,350.0 L 590.0,350.0 L 592.5,350.0 L 595.0,350.0 L 597.5,350.0 L 600.0,350.0 L 602.5,350.0 L 605.0,350.0 L 607.5,350.0 L 610.0,350.0 L 612.5,350.0 L 615.0,350.0 L 617.5,350.0 L 620.0,350.0 L 622.5,350.0 L 625.0,350.0 L 627.5,350.0 L 630.0,350.0 L 632.5,350.0 L 635.0,350.0 L 637.5,350.0 L 640.0,350.0 L 642.5,350.0 L 645.0,350.0 L 647.5,350.0 L 650.0,350.0 L 652.5,350.0 L 655.0,350.0 L 657.5,350.0 L 660.0,350.0 L 662.5,350.0 L 665.0,350.0 L 667.5,350.0 L 670.0,350.0 L 672.5,350.0 L 675.0,350.0 L 677.5,350.0 L 680.0,350.0" fill="none" stroke="#2563EB" stroke-width="2.5"/><path d="M 80.0,350.0 L 82.5,350.0 L 85.0,349.9 L 87.5,349.9 L 90.0,349.8 L 92.5,349.6 L 95.0,349.4 L 97.5,349.2 L 100.0,349.0 L 102.5,348.8 L 105.0,348.5 L 107.5,348.1 L 110.0,347.8 L 112.5,347.4 L 115.0,347.0 L 117.5,346.6 L 120.0,346.1 L 122.5,345.6 L 125.0,345.1 L 127.5,344.5 L 130.0,344.0 L 132.5,343.3 L 135.0,342.7 L 137.5,342.1 L 140.0,341.4 L 142.5,340.7 L 145.0,339.9 L 147.5,339.2 L 150.0,338.4 L 152.5,337.6 L 155.0,336.8 L 157.5,335.9 L 160.0,335.0 L 162.5,334.1 L 165.0,333.2 L 167.5,332.3 L 170.0,331.4 L 172.5,330.4 L 175.0,329.4 L 177.5,328.4 L 180.0,327.4 L 182.5,326.3 L 185.0,325.3 L 187.5,324.2 L 190.0,323.1 L 192.5,322.0 L 195.0,320.9 L 197.5,319.8 L 200.0,318.7 L 202.5,317.5 L 205.0,316.4 L 207.5,315.2 L 210.0,314.0 L 212.5,312.8 L 215.0,311.7 L 217.5,310.5 L 220.0,309.3 L 222.5,308.1 L 225.0,306.9 L 227.5,305.6 L 230.0,304.4 L 232.5,303.2 L 235.0,302.0 L 237.5,300.8 L 240.0,299.6 L 242.5,298.3 L 245.0,297.1 L 247.5,295.9 L 250.0,294.7 L 252.5,293.5 L 255.0,292.3 L 257.5,291.1 L 260.0,289.9 L 262.5,288.7 L 265.0,287.6 L 267.5,286.4 L 270.0,285.2 L 272.5,284.1 L 275.0,282.9 L 277.5,281.8 L 280.0,280.7 L 282.5,279.6 L 285.0,278.5 L 287.5,277.4 L 290.0,276.3 L 292.5,275.3 L 295.0,274.2 L 297.5,273.2 L 300.0,272.2 L 302.5,271.2 L 305.0,270.2 L 307.5,269.2 L 310.0,268.3 L 312.5,267.3 L 315.0,266.4 L 317.5,265.5 L 320.0,264.7 L 322.5,263.8 L 325.0,263.0 L 327.5,262.1 L 330.0,261.3 L 332.5,260.6 L 335.0,259.8 L 337.5,259.1 L 340.0,258.4 L 342.5,257.7 L 345.0,257.0 L 347.5,256.4 L 350.0,255.7 L 352.5,255.1 L 355.0,254.6 L 357.5,254.0 L 360.0,253.5 L 362.5,253.0 L 365.0,252.5 L 367.5,252.0 L 370.0,251.6 L 372.5,251.2 L 375.0,250.8 L 377.5,250.4 L 380.0,250.1 L 382.5,249.7 L 385.0,249.5 L 387.5,249.2 L 390.0,248.9 L 392.5,248.7 L 395.0,248.5 L 397.5,248.3 L 400.0,248.2 L 402.5,248.1 L 405.0,247.9 L 407.5,247.9 L 410.0,247.8 L 412.5,247.8 L 415.0,247.8 L 417.5,247.8 L 420.0,247.8 L 422.5,247.9 L 425.0,247.9 L 427.5,248.0 L 430.0,248.2 L 432.5,248.3 L 435.0,248.5 L 437.5,248.6 L 440.0,248.9 L 442.5,249.1 L 445.0,249.3 L 447.5,249.6 L 450.0,249.9 L 452.5,250.2 L 455.0,250.5 L 457.5,250.9 L 460.0,251.2 L 462.5,251.6 L 465.0,252.0 L 467.5,252.4 L 470.0,252.8 L 472.5,253.3 L 475.0,253.8 L 477.5,254.2 L 480.0,254.7 L 482.5,255.2 L 485.0,255.8 L 487.5,256.3 L 490.0,256.9 L 492.5,257.4 L 495.0,258.0 L 497.5,258.6 L 500.0,259.2 L 502.5,259.9 L 505.0,260.5 L 507.5,261.1 L 510.0,261.8 L 512.5,262.5 L 515.0,263.1 L 517.5,263.8 L 520.0,264.5 L 522.5,265.2 L 525.0,266.0 L 527.5,266.7 L 530.0,267.4 L 532.5,268.2 L 535.0,268.9 L 537.5,269.7 L 540.0,270.4 L 542.5,271.2 L 545.0,272.0 L 547.5,272.7 L 550.0,273.5 L 552.5,274.3 L 555.0,275.1 L 557.5,275.9 L 560.0,276.7 L 562.5,277.5 L 565.0,278.3 L 567.5,279.1 L 570.0,279.9 L 572.5,280.8 L 575.0,281.6 L 577.5,282.4 L 580.0,283.2 L 582.5,284.0 L 585.0,284.8 L 587.5,285.7 L 590.0,286.5 L 592.5,287.3 L 595.0,288.1 L 597.5,288.9 L 600.0,289.8 L 602.5,290.6 L 605.0,291.4 L 607.5,292.2 L 610.0,293.0 L 612.5,293.8 L 615.0,294.6 L 617.5,295.4 L 620.0,296.2 L 622.5,297.0 L 625.0,297.8 L 627.5,298.6 L 630.0,299.4 L 632.5,300.1 L 635.0,300.9 L 637.5,301.7 L 640.0,302.4 L 642.5,303.2 L 645.0,303.9 L 647.5,304.7 L 650.0,305.4 L 652.5,306.2 L 655.0,306.9 L 657.5,307.6 L 660.0,308.4 L 662.5,309.1 L 665.0,309.8 L 667.5,310.5 L 670.0,311.2 L 672.5,311.9 L 675.0,312.5 L 677.5,313.2 L 680.0,313.9" fill="none" stroke="#6B7280" stroke-width="2" stroke-dasharray="6 3"/>
  <text x="400" y="195" font-size="14" font-weight="bold" fill="#8B0029">T = 300 K</text><text x="235" y="58" font-size="14" font-weight="bold" fill="#2563EB">T = 80 K</text><text x="490" y="238" font-size="14" font-weight="bold" fill="#6B7280">T = 600 K</text>
  <line x1="317" y1="205" x2="317" y2="350" stroke="#8B0029" stroke-width="1" stroke-dasharray="4 3"/><text x="317" y="395" font-size="12" fill="#8B0029" text-anchor="middle" font-style="italic">v<tspan font-size="9" baseline-shift="sub">p</tspan></text>
  <line x1="347" y1="222" x2="347" y2="350" stroke="#2563EB" stroke-width="1" stroke-dasharray="4 3"/><text x="347" y="395" font-size="12" fill="#2563EB" text-anchor="middle" font-style="italic">v<tspan font-size="9" baseline-shift="sub">avg</tspan></text>
  <line x1="370" y1="243" x2="370" y2="350" stroke="#6B7280" stroke-width="1" stroke-dasharray="4 3"/><text x="370" y="395" font-size="12" fill="#6B7280" text-anchor="middle" font-style="italic">v<tspan font-size="9" baseline-shift="sub">rms</tspan></text>
  <text x="400" y="35" text-anchor="middle" font-size="16" font-weight="bold" fill="#1a1a1a">Maxwell 속력 분포 (산소 O₂)</text>
</svg>
