<svg xmlns="http://www.w3.org/2000/svg" viewBox="0 0 740 480" font-family="sans-serif">
  <defs>
    <marker id="cbR" markerWidth="10" markerHeight="7" refX="10" refY="3.5" orient="auto"><polygon points="0 0, 10 3.5, 0 7" fill="#8B0029"/></marker>
    <marker id="cbB" markerWidth="10" markerHeight="7" refX="10" refY="3.5" orient="auto"><polygon points="0 0, 10 3.5, 0 7" fill="#2563EB"/></marker>
    <marker id="cbG" markerWidth="10" markerHeight="7" refX="10" refY="3.5" orient="auto"><polygon points="0 0, 10 3.5, 0 7" fill="#6B7280"/></marker>
  </defs>
  <rect width="100%" height="100%" fill="white"/>
  <rect x="60" y="40" width="22" height="380" fill="#F3F4F6" stroke="#6B7280" stroke-width="2"/>
  <line x1="60" y1="60" x2="44" y2="76" stroke="#6B7280" stroke-width="1" fill="none"/>
  <line x1="60" y1="100" x2="44" y2="116" stroke="#6B7280" stroke-width="1" fill="none"/>
  <line x1="60" y1="140" x2="44" y2="156" stroke="#6B7280" stroke-width="1" fill="none"/>
  <line x1="60" y1="180" x2="44" y2="196" stroke="#6B7280" stroke-width="1" fill="none"/>
  <line x1="60" y1="220" x2="44" y2="236" stroke="#6B7280" stroke-width="1" fill="none"/>
  <line x1="60" y1="260" x2="44" y2="276" stroke="#6B7280" stroke-width="1" fill="none"/>
  <line x1="60" y1="300" x2="44" y2="316" stroke="#6B7280" stroke-width="1" fill="none"/>
  <line x1="60" y1="340" x2="44" y2="356" stroke="#6B7280" stroke-width="1" fill="none"/>
  <line x1="60" y1="380" x2="44" y2="396" stroke="#6B7280" stroke-width="1" fill="none"/>
  <line x1="82" y1="370" x2="480" y2="130" stroke="#1a1a1a" stroke-width="2.5" fill="none"/>
  <line x1="82" y1="130" x2="480" y2="130" stroke="#6B7280" stroke-width="2" fill="none"/>
  <text x="220" y="118" font-size="16" fill="#6B7280">케이블</text>
  <path d="M 152,370 A 70,70 0 0,0 141.9,333.9" fill="none" stroke="#6B7280" stroke-width="1.3" data-angle-origin="82,370" data-angle-radius="70" data-angle-start="0" data-angle-end="31.1"/>
  <text x="164.9" y="352" font-size="20" fill="#6B7280" text-anchor="middle" font-weight="bold" font-style="italic">θ</text>
  <line x1="480" y1="130" x2="480" y2="160" stroke="#6B7280" stroke-width="2" fill="none"/>
  <rect x="455" y="160" width="50" height="50" fill="#E5E7EB" stroke="#1a1a1a" stroke-width="2"/>
  <text x="480" y="192" font-size="22" fill="#1a1a1a" text-anchor="middle" font-weight="bold" font-style="italic">M</text>
  <line x1="480" y1="210" x2="480" y2="295" stroke="#8B0029" stroke-width="2.5" fill="none" marker-end="url(#cbR)"/>
  <text x="496" y="290" font-size="22" fill="#8B0029" font-weight="bold" font-style="italic">Mg</text>
  <line x1="280" y1="250" x2="280" y2="335" stroke="#8B0029" stroke-width="2.5" fill="none" marker-end="url(#cbR)"/>
  <text x="294" y="328" font-size="22" fill="#8B0029" font-weight="bold" font-style="italic">mg</text>
  <line x1="475" y1="130" x2="395" y2="130" stroke="#2563EB" stroke-width="2.5" fill="none" marker-end="url(#cbB)"/>
  <text x="430" y="148" font-size="22" fill="#2563EB" text-anchor="middle" font-weight="bold" font-style="italic">T</text>
  <circle cx="82" cy="370" r="5" fill="#8B0029" stroke="#8B0029" stroke-width="0"/>
  <line x1="82" y1="370" x2="82" y2="285" stroke="#2563EB" stroke-width="2.5" fill="none" marker-end="url(#cbB)"/>
  <text x="60" y="305" font-size="22" fill="#2563EB" text-anchor="end" font-weight="bold" font-style="italic">F_v</text>
  <line x1="82" y1="370" x2="170" y2="370" stroke="#2563EB" stroke-width="2.5" fill="none" marker-end="url(#cbB)"/>
  <text x="135" y="392" font-size="22" fill="#2563EB" font-weight="bold" font-style="italic">F_h</text>
</svg>
