<svg xmlns="http://www.w3.org/2000/svg" viewBox="0 0 620 500" font-family="sans-serif">
  <defs>
    <marker id="ldR" markerWidth="10" markerHeight="7" refX="10" refY="3.5" orient="auto"><polygon points="0 0, 10 3.5, 0 7" fill="#8B0029"/></marker>
    <marker id="ldB" markerWidth="10" markerHeight="7" refX="10" refY="3.5" orient="auto"><polygon points="0 0, 10 3.5, 0 7" fill="#2563EB"/></marker>
    <marker id="ldG" markerWidth="10" markerHeight="7" refX="10" refY="3.5" orient="auto"><polygon points="0 0, 10 3.5, 0 7" fill="#6B7280"/></marker>
  </defs>
  <rect width="100%" height="100%" fill="white"/>
  <rect x="450" y="40" width="22" height="400" fill="#F3F4F6" stroke="#6B7280" stroke-width="2"/>
  <line x1="40" y1="440" x2="470" y2="440" stroke="#6B7280" stroke-width="2" fill="none"/>
  <line x1="472" y1="60" x2="488" y2="76" stroke="#6B7280" stroke-width="1" fill="none"/>
  <line x1="472" y1="100" x2="488" y2="116" stroke="#6B7280" stroke-width="1" fill="none"/>
  <line x1="472" y1="140" x2="488" y2="156" stroke="#6B7280" stroke-width="1" fill="none"/>
  <line x1="472" y1="180" x2="488" y2="196" stroke="#6B7280" stroke-width="1" fill="none"/>
  <line x1="472" y1="220" x2="488" y2="236" stroke="#6B7280" stroke-width="1" fill="none"/>
  <line x1="472" y1="260" x2="488" y2="276" stroke="#6B7280" stroke-width="1" fill="none"/>
  <line x1="472" y1="300" x2="488" y2="316" stroke="#6B7280" stroke-width="1" fill="none"/>
  <line x1="472" y1="340" x2="488" y2="356" stroke="#6B7280" stroke-width="1" fill="none"/>
  <line x1="472" y1="380" x2="488" y2="396" stroke="#6B7280" stroke-width="1" fill="none"/>
  <line x1="472" y1="420" x2="488" y2="436" stroke="#6B7280" stroke-width="1" fill="none"/>
  <line x1="60" y1="440" x2="48" y2="456" stroke="#6B7280" stroke-width="1" fill="none"/>
  <line x1="100" y1="440" x2="88" y2="456" stroke="#6B7280" stroke-width="1" fill="none"/>
  <line x1="140" y1="440" x2="128" y2="456" stroke="#6B7280" stroke-width="1" fill="none"/>
  <line x1="180" y1="440" x2="168" y2="456" stroke="#6B7280" stroke-width="1" fill="none"/>
  <line x1="220" y1="440" x2="208" y2="456" stroke="#6B7280" stroke-width="1" fill="none"/>
  <line x1="260" y1="440" x2="248" y2="456" stroke="#6B7280" stroke-width="1" fill="none"/>
  <line x1="300" y1="440" x2="288" y2="456" stroke="#6B7280" stroke-width="1" fill="none"/>
  <line x1="340" y1="440" x2="328" y2="456" stroke="#6B7280" stroke-width="1" fill="none"/>
  <line x1="380" y1="440" x2="368" y2="456" stroke="#6B7280" stroke-width="1" fill="none"/>
  <line x1="420" y1="440" x2="408" y2="456" stroke="#6B7280" stroke-width="1" fill="none"/>
  <line x1="150" y1="440" x2="450" y2="100" stroke="#1a1a1a" stroke-width="2.5" fill="none"/>
  <path d="M 210,440 A 60,60 0 0,0 189.7,395" fill="none" stroke="#6B7280" stroke-width="1.3" data-angle-origin="150,440" data-angle-radius="60" data-angle-start="0" data-angle-end="48.6"/>
  <text x="219.3" y="413.7" font-size="20" fill="#6B7280" text-anchor="middle" font-weight="bold" font-style="italic">θ</text>
  <circle cx="305" cy="276" r="4" fill="#8B0029" stroke="#8B0029" stroke-width="0"/>
  <line x1="305" y1="276" x2="305" y2="360" stroke="#8B0029" stroke-width="2.5" fill="none" marker-end="url(#ldR)"/>
  <text x="320" y="355" font-size="22" fill="#8B0029" font-weight="bold" font-style="italic">mg</text>
  <line x1="450" y1="100" x2="370" y2="100" stroke="#2563EB" stroke-width="2.5" fill="none" marker-end="url(#ldB)"/>
  <text x="395" y="86" font-size="22" fill="#2563EB" font-weight="bold" font-style="italic">F_w</text>
  <line x1="150" y1="440" x2="150" y2="360" stroke="#2563EB" stroke-width="2.5" fill="none" marker-end="url(#ldB)"/>
  <text x="125" y="380" font-size="22" fill="#2563EB" text-anchor="end" font-weight="bold" font-style="italic">N</text>
  <line x1="155" y1="432" x2="225" y2="432" stroke="#8B0029" stroke-width="2.5" fill="none" marker-end="url(#ldR)"/>
  <text x="190" y="424" font-size="22" fill="#8B0029" text-anchor="middle" font-weight="bold" font-style="italic">f</text>
  <circle cx="150" cy="440" r="4" fill="#1a1a1a" stroke="#1a1a1a" stroke-width="0"/>
</svg>
