<svg xmlns="http://www.w3.org/2000/svg" viewBox="0 0 780 495" font-family="sans-serif">
  <text x="375" y="25" text-anchor="middle" font-size="17" font-weight="bold" fill="#8B0029">고정-고정 줄의 정상파 모드</text>
  <g stroke="#6B7280" stroke-width="1.5">
    <line x1="80" y1="40" x2="80" y2="470"/>
    <line x1="620" y1="40" x2="620" y2="470"/>
    <line x1="80" y1="55" x2="68" y2="67"/>
    <line x1="620" y1="55" x2="632" y2="67"/>
    <line x1="80" y1="75" x2="68" y2="87"/>
    <line x1="620" y1="75" x2="632" y2="87"/>
    <line x1="80" y1="95" x2="68" y2="107"/>
    <line x1="620" y1="95" x2="632" y2="107"/>
    <line x1="80" y1="115" x2="68" y2="127"/>
    <line x1="620" y1="115" x2="632" y2="127"/>
    <line x1="80" y1="135" x2="68" y2="147"/>
    <line x1="620" y1="135" x2="632" y2="147"/>
    <line x1="80" y1="155" x2="68" y2="167"/>
    <line x1="620" y1="155" x2="632" y2="167"/>
    <line x1="80" y1="175" x2="68" y2="187"/>
    <line x1="620" y1="175" x2="632" y2="187"/>
    <line x1="80" y1="195" x2="68" y2="207"/>
    <line x1="620" y1="195" x2="632" y2="207"/>
    <line x1="80" y1="215" x2="68" y2="227"/>
    <line x1="620" y1="215" x2="632" y2="227"/>
    <line x1="80" y1="235" x2="68" y2="247"/>
    <line x1="620" y1="235" x2="632" y2="247"/>
    <line x1="80" y1="255" x2="68" y2="267"/>
    <line x1="620" y1="255" x2="632" y2="267"/>
    <line x1="80" y1="275" x2="68" y2="287"/>
    <line x1="620" y1="275" x2="632" y2="287"/>
    <line x1="80" y1="295" x2="68" y2="307"/>
    <line x1="620" y1="295" x2="632" y2="307"/>
    <line x1="80" y1="315" x2="68" y2="327"/>
    <line x1="620" y1="315" x2="632" y2="327"/>
    <line x1="80" y1="335" x2="68" y2="347"/>
    <line x1="620" y1="335" x2="632" y2="347"/>
    <line x1="80" y1="355" x2="68" y2="367"/>
    <line x1="620" y1="355" x2="632" y2="367"/>
    <line x1="80" y1="375" x2="68" y2="387"/>
    <line x1="620" y1="375" x2="632" y2="387"/>
    <line x1="80" y1="395" x2="68" y2="407"/>
    <line x1="620" y1="395" x2="632" y2="407"/>
    <line x1="80" y1="415" x2="68" y2="427"/>
    <line x1="620" y1="415" x2="632" y2="427"/>
  </g>
  <text x="40" y="90" text-anchor="middle" font-size="14" font-weight="bold" fill="#8B0029">n=1</text>
  <line x1="80" y1="85" x2="620" y2="85" stroke="#6B7280" stroke-width="1" stroke-dasharray="4 3"/>
  <path d="M 80.0,85.0 L 83.0,84.2 L 86.0,83.4 L 89.0,82.6 L 92.0,81.9 L 95.0,81.1 L 98.0,80.3 L 101.0,79.5 L 104.0,78.7 L 107.0,78.0 L 110.0,77.2 L 113.0,76.4 L 116.0,75.6 L 119.0,74.9 L 122.0,74.1 L 125.0,73.4 L 128.0,72.6 L 131.0,71.8 L 134.0,71.1 L 137.0,70.3 L 140.0,69.6 L 143.0,68.9 L 146.0,68.1 L 149.0,67.4 L 152.0,66.7 L 155.0,66.0 L 158.0,65.3 L 161.0,64.6 L 164.0,63.9 L 167.0,63.2 L 170.0,62.5 L 173.0,61.8 L 176.0,61.2 L 179.0,60.5 L 182.0,59.8 L 185.0,59.2 L 188.0,58.5 L 191.0,57.9 L 194.0,57.3 L 197.0,56.7 L 200.0,56.1 L 203.0,55.5 L 206.0,54.9 L 209.0,54.3 L 212.0,53.7 L 215.0,53.2 L 218.0,52.6 L 221.0,52.1 L 224.0,51.6 L 227.0,51.0 L 230.0,50.5 L 233.0,50.0 L 236.0,49.5 L 239.0,49.1 L 242.0,48.6 L 245.0,48.1 L 248.0,47.7 L 251.0,47.3 L 254.0,46.8 L 257.0,46.4 L 260.0,46.0 L 263.0,45.6 L 266.0,45.3 L 269.0,44.9 L 272.0,44.6 L 275.0,44.2 L 278.0,43.9 L 281.0,43.6 L 284.0,43.3 L 287.0,43.0 L 290.0,42.7 L 293.0,42.5 L 296.0,42.2 L 299.0,42.0 L 302.0,41.7 L 305.0,41.5 L 308.0,41.3 L 311.0,41.2 L 314.0,41.0 L 317.0,40.8 L 320.0,40.7 L 323.0,40.6 L 326.0,40.4 L 329.0,40.3 L 332.0,40.2 L 335.0,40.2 L 338.0,40.1 L 341.0,40.1 L 344.0,40.0 L 347.0,40.0 L 350.0,40.0 L 353.0,40.0 L 356.0,40.0 L 359.0,40.1 L 362.0,40.1 L 365.0,40.2 L 368.0,40.2 L 371.0,40.3 L 374.0,40.4 L 377.0,40.6 L 380.0,40.7 L 383.0,40.8 L 386.0,41.0 L 389.0,41.2 L 392.0,41.3 L 395.0,41.5 L 398.0,41.7 L 401.0,42.0 L 404.0,42.2 L 407.0,42.5 L 410.0,42.7 L 413.0,43.0 L 416.0,43.3 L 419.0,43.6 L 422.0,43.9 L 425.0,44.2 L 428.0,44.6 L 431.0,44.9 L 434.0,45.3 L 437.0,45.6 L 440.0,46.0 L 443.0,46.4 L 446.0,46.8 L 449.0,47.3 L 452.0,47.7 L 455.0,48.1 L 458.0,48.6 L 461.0,49.1 L 464.0,49.5 L 467.0,50.0 L 470.0,50.5 L 473.0,51.0 L 476.0,51.6 L 479.0,52.1 L 482.0,52.6 L 485.0,53.2 L 488.0,53.7 L 491.0,54.3 L 494.0,54.9 L 497.0,55.5 L 500.0,56.1 L 503.0,56.7 L 506.0,57.3 L 509.0,57.9 L 512.0,58.5 L 515.0,59.2 L 518.0,59.8 L 521.0,60.5 L 524.0,61.2 L 527.0,61.8 L 530.0,62.5 L 533.0,63.2 L 536.0,63.9 L 539.0,64.6 L 542.0,65.3 L 545.0,66.0 L 548.0,66.7 L 551.0,67.4 L 554.0,68.1 L 557.0,68.9 L 560.0,69.6 L 563.0,70.3 L 566.0,71.1 L 569.0,71.8 L 572.0,72.6 L 575.0,73.4 L 578.0,74.1 L 581.0,74.9 L 584.0,75.6 L 587.0,76.4 L 590.0,77.2 L 593.0,78.0 L 596.0,78.7 L 599.0,79.5 L 602.0,80.3 L 605.0,81.1 L 608.0,81.9 L 611.0,82.6 L 614.0,83.4 L 617.0,84.2 L 620.0,85.0" fill="none" stroke="#8B0029" stroke-width="2.5"/>
  <path d="M 80.0,85.0 L 83.0,85.8 L 86.0,86.6 L 89.0,87.4 L 92.0,88.1 L 95.0,88.9 L 98.0,89.7 L 101.0,90.5 L 104.0,91.3 L 107.0,92.0 L 110.0,92.8 L 113.0,93.6 L 116.0,94.4 L 119.0,95.1 L 122.0,95.9 L 125.0,96.6 L 128.0,97.4 L 131.0,98.2 L 134.0,98.9 L 137.0,99.7 L 140.0,100.4 L 143.0,101.1 L 146.0,101.9 L 149.0,102.6 L 152.0,103.3 L 155.0,104.0 L 158.0,104.7 L 161.0,105.4 L 164.0,106.1 L 167.0,106.8 L 170.0,107.5 L 173.0,108.2 L 176.0,108.8 L 179.0,109.5 L 182.0,110.2 L 185.0,110.8 L 188.0,111.5 L 191.0,112.1 L 194.0,112.7 L 197.0,113.3 L 200.0,113.9 L 203.0,114.5 L 206.0,115.1 L 209.0,115.7 L 212.0,116.3 L 215.0,116.8 L 218.0,117.4 L 221.0,117.9 L 224.0,118.4 L 227.0,119.0 L 230.0,119.5 L 233.0,120.0 L 236.0,120.5 L 239.0,120.9 L 242.0,121.4 L 245.0,121.9 L 248.0,122.3 L 251.0,122.7 L 254.0,123.2 L 257.0,123.6 L 260.0,124.0 L 263.0,124.4 L 266.0,124.7 L 269.0,125.1 L 272.0,125.4 L 275.0,125.8 L 278.0,126.1 L 281.0,126.4 L 284.0,126.7 L 287.0,127.0 L 290.0,127.3 L 293.0,127.5 L 296.0,127.8 L 299.0,128.0 L 302.0,128.3 L 305.0,128.5 L 308.0,128.7 L 311.0,128.8 L 314.0,129.0 L 317.0,129.2 L 320.0,129.3 L 323.0,129.4 L 326.0,129.6 L 329.0,129.7 L 332.0,129.8 L 335.0,129.8 L 338.0,129.9 L 341.0,129.9 L 344.0,130.0 L 347.0,130.0 L 350.0,130.0 L 353.0,130.0 L 356.0,130.0 L 359.0,129.9 L 362.0,129.9 L 365.0,129.8 L 368.0,129.8 L 371.0,129.7 L 374.0,129.6 L 377.0,129.4 L 380.0,129.3 L 383.0,129.2 L 386.0,129.0 L 389.0,128.8 L 392.0,128.7 L 395.0,128.5 L 398.0,128.3 L 401.0,128.0 L 404.0,127.8 L 407.0,127.5 L 410.0,127.3 L 413.0,127.0 L 416.0,126.7 L 419.0,126.4 L 422.0,126.1 L 425.0,125.8 L 428.0,125.4 L 431.0,125.1 L 434.0,124.7 L 437.0,124.4 L 440.0,124.0 L 443.0,123.6 L 446.0,123.2 L 449.0,122.7 L 452.0,122.3 L 455.0,121.9 L 458.0,121.4 L 461.0,120.9 L 464.0,120.5 L 467.0,120.0 L 470.0,119.5 L 473.0,119.0 L 476.0,118.4 L 479.0,117.9 L 482.0,117.4 L 485.0,116.8 L 488.0,116.3 L 491.0,115.7 L 494.0,115.1 L 497.0,114.5 L 500.0,113.9 L 503.0,113.3 L 506.0,112.7 L 509.0,112.1 L 512.0,111.5 L 515.0,110.8 L 518.0,110.2 L 521.0,109.5 L 524.0,108.8 L 527.0,108.2 L 530.0,107.5 L 533.0,106.8 L 536.0,106.1 L 539.0,105.4 L 542.0,104.7 L 545.0,104.0 L 548.0,103.3 L 551.0,102.6 L 554.0,101.9 L 557.0,101.1 L 560.0,100.4 L 563.0,99.7 L 566.0,98.9 L 569.0,98.2 L 572.0,97.4 L 575.0,96.6 L 578.0,95.9 L 581.0,95.1 L 584.0,94.4 L 587.0,93.6 L 590.0,92.8 L 593.0,92.0 L 596.0,91.3 L 599.0,90.5 L 602.0,89.7 L 605.0,88.9 L 608.0,88.1 L 611.0,87.4 L 614.0,86.6 L 617.0,85.8 L 620.0,85.0" fill="none" stroke="#8B0029" stroke-width="2.5" stroke-dasharray="6 4" opacity="0.4"/>
  <text x="80" y="75" text-anchor="middle" font-size="10" fill="#2563EB" font-weight="bold">N</text>
  <text x="620" y="75" text-anchor="middle" font-size="10" fill="#2563EB" font-weight="bold">N</text>
  <text x="350" y="35" text-anchor="middle" font-size="10" fill="#8B0029" font-weight="bold">A</text>
  <text x="680" y="90" font-size="13" fill="#6B7280" font-style="italic">L = λ₁/2</text>
  <text x="40" y="195" text-anchor="middle" font-size="14" font-weight="bold" fill="#8B0029">n=2</text>
  <line x1="80" y1="190" x2="620" y2="190" stroke="#6B7280" stroke-width="1" stroke-dasharray="4 3"/>
  <path d="M 80.0,190.0 L 83.0,188.6 L 86.0,187.2 L 89.0,185.8 L 92.0,184.4 L 95.0,183.1 L 98.0,181.7 L 101.0,180.3 L 104.0,179.0 L 107.0,177.6 L 110.0,176.3 L 113.0,175.0 L 116.0,173.7 L 119.0,172.5 L 122.0,171.2 L 125.0,170.0 L 128.0,168.8 L 131.0,167.6 L 134.0,166.5 L 137.0,165.4 L 140.0,164.3 L 143.0,163.2 L 146.0,162.2 L 149.0,161.2 L 152.0,160.3 L 155.0,159.4 L 158.0,158.5 L 161.0,157.6 L 164.0,156.8 L 167.0,156.1 L 170.0,155.4 L 173.0,154.7 L 176.0,154.0 L 179.0,153.5 L 182.0,152.9 L 185.0,152.4 L 188.0,152.0 L 191.0,151.5 L 194.0,151.2 L 197.0,150.9 L 200.0,150.6 L 203.0,150.4 L 206.0,150.2 L 209.0,150.1 L 212.0,150.0 L 215.0,150.0 L 218.0,150.0 L 221.0,150.1 L 224.0,150.2 L 227.0,150.4 L 230.0,150.6 L 233.0,150.9 L 236.0,151.2 L 239.0,151.5 L 242.0,152.0 L 245.0,152.4 L 248.0,152.9 L 251.0,153.5 L 254.0,154.0 L 257.0,154.7 L 260.0,155.4 L 263.0,156.1 L 266.0,156.8 L 269.0,157.6 L 272.0,158.5 L 275.0,159.4 L 278.0,160.3 L 281.0,161.2 L 284.0,162.2 L 287.0,163.2 L 290.0,164.3 L 293.0,165.4 L 296.0,166.5 L 299.0,167.6 L 302.0,168.8 L 305.0,170.0 L 308.0,171.2 L 311.0,172.5 L 314.0,173.7 L 317.0,175.0 L 320.0,176.3 L 323.0,177.6 L 326.0,179.0 L 329.0,180.3 L 332.0,181.7 L 335.0,183.1 L 338.0,184.4 L 341.0,185.8 L 344.0,187.2 L 347.0,188.6 L 350.0,190.0 L 353.0,191.4 L 356.0,192.8 L 359.0,194.2 L 362.0,195.6 L 365.0,196.9 L 368.0,198.3 L 371.0,199.7 L 374.0,201.0 L 377.0,202.4 L 380.0,203.7 L 383.0,205.0 L 386.0,206.3 L 389.0,207.5 L 392.0,208.8 L 395.0,210.0 L 398.0,211.2 L 401.0,212.4 L 404.0,213.5 L 407.0,214.6 L 410.0,215.7 L 413.0,216.8 L 416.0,217.8 L 419.0,218.8 L 422.0,219.7 L 425.0,220.6 L 428.0,221.5 L 431.0,222.4 L 434.0,223.2 L 437.0,223.9 L 440.0,224.6 L 443.0,225.3 L 446.0,226.0 L 449.0,226.5 L 452.0,227.1 L 455.0,227.6 L 458.0,228.0 L 461.0,228.5 L 464.0,228.8 L 467.0,229.1 L 470.0,229.4 L 473.0,229.6 L 476.0,229.8 L 479.0,229.9 L 482.0,230.0 L 485.0,230.0 L 488.0,230.0 L 491.0,229.9 L 494.0,229.8 L 497.0,229.6 L 500.0,229.4 L 503.0,229.1 L 506.0,228.8 L 509.0,228.5 L 512.0,228.0 L 515.0,227.6 L 518.0,227.1 L 521.0,226.5 L 524.0,226.0 L 527.0,225.3 L 530.0,224.6 L 533.0,223.9 L 536.0,223.2 L 539.0,222.4 L 542.0,221.5 L 545.0,220.6 L 548.0,219.7 L 551.0,218.8 L 554.0,217.8 L 557.0,216.8 L 560.0,215.7 L 563.0,214.6 L 566.0,213.5 L 569.0,212.4 L 572.0,211.2 L 575.0,210.0 L 578.0,208.8 L 581.0,207.5 L 584.0,206.3 L 587.0,205.0 L 590.0,203.7 L 593.0,202.4 L 596.0,201.0 L 599.0,199.7 L 602.0,198.3 L 605.0,196.9 L 608.0,195.6 L 611.0,194.2 L 614.0,192.8 L 617.0,191.4 L 620.0,190.0" fill="none" stroke="#8B0029" stroke-width="2.5"/>
  <path d="M 80.0,190.0 L 83.0,191.4 L 86.0,192.8 L 89.0,194.2 L 92.0,195.6 L 95.0,196.9 L 98.0,198.3 L 101.0,199.7 L 104.0,201.0 L 107.0,202.4 L 110.0,203.7 L 113.0,205.0 L 116.0,206.3 L 119.0,207.5 L 122.0,208.8 L 125.0,210.0 L 128.0,211.2 L 131.0,212.4 L 134.0,213.5 L 137.0,214.6 L 140.0,215.7 L 143.0,216.8 L 146.0,217.8 L 149.0,218.8 L 152.0,219.7 L 155.0,220.6 L 158.0,221.5 L 161.0,222.4 L 164.0,223.2 L 167.0,223.9 L 170.0,224.6 L 173.0,225.3 L 176.0,226.0 L 179.0,226.5 L 182.0,227.1 L 185.0,227.6 L 188.0,228.0 L 191.0,228.5 L 194.0,228.8 L 197.0,229.1 L 200.0,229.4 L 203.0,229.6 L 206.0,229.8 L 209.0,229.9 L 212.0,230.0 L 215.0,230.0 L 218.0,230.0 L 221.0,229.9 L 224.0,229.8 L 227.0,229.6 L 230.0,229.4 L 233.0,229.1 L 236.0,228.8 L 239.0,228.5 L 242.0,228.0 L 245.0,227.6 L 248.0,227.1 L 251.0,226.5 L 254.0,226.0 L 257.0,225.3 L 260.0,224.6 L 263.0,223.9 L 266.0,223.2 L 269.0,222.4 L 272.0,221.5 L 275.0,220.6 L 278.0,219.7 L 281.0,218.8 L 284.0,217.8 L 287.0,216.8 L 290.0,215.7 L 293.0,214.6 L 296.0,213.5 L 299.0,212.4 L 302.0,211.2 L 305.0,210.0 L 308.0,208.8 L 311.0,207.5 L 314.0,206.3 L 317.0,205.0 L 320.0,203.7 L 323.0,202.4 L 326.0,201.0 L 329.0,199.7 L 332.0,198.3 L 335.0,196.9 L 338.0,195.6 L 341.0,194.2 L 344.0,192.8 L 347.0,191.4 L 350.0,190.0 L 353.0,188.6 L 356.0,187.2 L 359.0,185.8 L 362.0,184.4 L 365.0,183.1 L 368.0,181.7 L 371.0,180.3 L 374.0,179.0 L 377.0,177.6 L 380.0,176.3 L 383.0,175.0 L 386.0,173.7 L 389.0,172.5 L 392.0,171.2 L 395.0,170.0 L 398.0,168.8 L 401.0,167.6 L 404.0,166.5 L 407.0,165.4 L 410.0,164.3 L 413.0,163.2 L 416.0,162.2 L 419.0,161.2 L 422.0,160.3 L 425.0,159.4 L 428.0,158.5 L 431.0,157.6 L 434.0,156.8 L 437.0,156.1 L 440.0,155.4 L 443.0,154.7 L 446.0,154.0 L 449.0,153.5 L 452.0,152.9 L 455.0,152.4 L 458.0,152.0 L 461.0,151.5 L 464.0,151.2 L 467.0,150.9 L 470.0,150.6 L 473.0,150.4 L 476.0,150.2 L 479.0,150.1 L 482.0,150.0 L 485.0,150.0 L 488.0,150.0 L 491.0,150.1 L 494.0,150.2 L 497.0,150.4 L 500.0,150.6 L 503.0,150.9 L 506.0,151.2 L 509.0,151.5 L 512.0,152.0 L 515.0,152.4 L 518.0,152.9 L 521.0,153.5 L 524.0,154.0 L 527.0,154.7 L 530.0,155.4 L 533.0,156.1 L 536.0,156.8 L 539.0,157.6 L 542.0,158.5 L 545.0,159.4 L 548.0,160.3 L 551.0,161.2 L 554.0,162.2 L 557.0,163.2 L 560.0,164.3 L 563.0,165.4 L 566.0,166.5 L 569.0,167.6 L 572.0,168.8 L 575.0,170.0 L 578.0,171.2 L 581.0,172.5 L 584.0,173.7 L 587.0,175.0 L 590.0,176.3 L 593.0,177.6 L 596.0,179.0 L 599.0,180.3 L 602.0,181.7 L 605.0,183.1 L 608.0,184.4 L 611.0,185.8 L 614.0,187.2 L 617.0,188.6 L 620.0,190.0" fill="none" stroke="#8B0029" stroke-width="2.5" stroke-dasharray="6 4" opacity="0.4"/>
  <text x="80" y="180" text-anchor="middle" font-size="10" fill="#2563EB" font-weight="bold">N</text>
  <text x="350" y="180" text-anchor="middle" font-size="10" fill="#2563EB" font-weight="bold">N</text>
  <text x="620" y="180" text-anchor="middle" font-size="10" fill="#2563EB" font-weight="bold">N</text>
  <text x="215" y="145" text-anchor="middle" font-size="10" fill="#8B0029" font-weight="bold">A</text>
  <text x="485" y="245" text-anchor="middle" font-size="10" fill="#8B0029" font-weight="bold">A</text>
  <text x="680" y="195" font-size="13" fill="#6B7280" font-style="italic">L = λ₂</text>
  <text x="40" y="300" text-anchor="middle" font-size="14" font-weight="bold" fill="#8B0029">n=3</text>
  <line x1="80" y1="295" x2="620" y2="295" stroke="#6B7280" stroke-width="1" stroke-dasharray="4 3"/>
  <path d="M 80.0,295.0 L 83.0,293.4 L 86.0,291.9 L 89.0,290.3 L 92.0,288.8 L 95.0,287.2 L 98.0,285.7 L 101.0,284.2 L 104.0,282.8 L 107.0,281.4 L 110.0,280.0 L 113.0,278.7 L 116.0,277.4 L 119.0,276.1 L 122.0,274.9 L 125.0,273.8 L 128.0,272.7 L 131.0,271.7 L 134.0,270.7 L 137.0,269.8 L 140.0,269.0 L 143.0,268.3 L 146.0,267.6 L 149.0,267.0 L 152.0,266.5 L 155.0,266.0 L 158.0,265.7 L 161.0,265.4 L 164.0,265.2 L 167.0,265.0 L 170.0,265.0 L 173.0,265.0 L 176.0,265.2 L 179.0,265.4 L 182.0,265.7 L 185.0,266.0 L 188.0,266.5 L 191.0,267.0 L 194.0,267.6 L 197.0,268.3 L 200.0,269.0 L 203.0,269.8 L 206.0,270.7 L 209.0,271.7 L 212.0,272.7 L 215.0,273.8 L 218.0,274.9 L 221.0,276.1 L 224.0,277.4 L 227.0,278.7 L 230.0,280.0 L 233.0,281.4 L 236.0,282.8 L 239.0,284.2 L 242.0,285.7 L 245.0,287.2 L 248.0,288.8 L 251.0,290.3 L 254.0,291.9 L 257.0,293.4 L 260.0,295.0 L 263.0,296.6 L 266.0,298.1 L 269.0,299.7 L 272.0,301.2 L 275.0,302.8 L 278.0,304.3 L 281.0,305.8 L 284.0,307.2 L 287.0,308.6 L 290.0,310.0 L 293.0,311.3 L 296.0,312.6 L 299.0,313.9 L 302.0,315.1 L 305.0,316.2 L 308.0,317.3 L 311.0,318.3 L 314.0,319.3 L 317.0,320.2 L 320.0,321.0 L 323.0,321.7 L 326.0,322.4 L 329.0,323.0 L 332.0,323.5 L 335.0,324.0 L 338.0,324.3 L 341.0,324.6 L 344.0,324.8 L 347.0,325.0 L 350.0,325.0 L 353.0,325.0 L 356.0,324.8 L 359.0,324.6 L 362.0,324.3 L 365.0,324.0 L 368.0,323.5 L 371.0,323.0 L 374.0,322.4 L 377.0,321.7 L 380.0,321.0 L 383.0,320.2 L 386.0,319.3 L 389.0,318.3 L 392.0,317.3 L 395.0,316.2 L 398.0,315.1 L 401.0,313.9 L 404.0,312.6 L 407.0,311.3 L 410.0,310.0 L 413.0,308.6 L 416.0,307.2 L 419.0,305.8 L 422.0,304.3 L 425.0,302.8 L 428.0,301.2 L 431.0,299.7 L 434.0,298.1 L 437.0,296.6 L 440.0,295.0 L 443.0,293.4 L 446.0,291.9 L 449.0,290.3 L 452.0,288.8 L 455.0,287.2 L 458.0,285.7 L 461.0,284.2 L 464.0,282.8 L 467.0,281.4 L 470.0,280.0 L 473.0,278.7 L 476.0,277.4 L 479.0,276.1 L 482.0,274.9 L 485.0,273.8 L 488.0,272.7 L 491.0,271.7 L 494.0,270.7 L 497.0,269.8 L 500.0,269.0 L 503.0,268.3 L 506.0,267.6 L 509.0,267.0 L 512.0,266.5 L 515.0,266.0 L 518.0,265.7 L 521.0,265.4 L 524.0,265.2 L 527.0,265.0 L 530.0,265.0 L 533.0,265.0 L 536.0,265.2 L 539.0,265.4 L 542.0,265.7 L 545.0,266.0 L 548.0,266.5 L 551.0,267.0 L 554.0,267.6 L 557.0,268.3 L 560.0,269.0 L 563.0,269.8 L 566.0,270.7 L 569.0,271.7 L 572.0,272.7 L 575.0,273.8 L 578.0,274.9 L 581.0,276.1 L 584.0,277.4 L 587.0,278.7 L 590.0,280.0 L 593.0,281.4 L 596.0,282.8 L 599.0,284.2 L 602.0,285.7 L 605.0,287.2 L 608.0,288.8 L 611.0,290.3 L 614.0,291.9 L 617.0,293.4 L 620.0,295.0" fill="none" stroke="#8B0029" stroke-width="2.5"/>
  <path d="M 80.0,295.0 L 83.0,296.6 L 86.0,298.1 L 89.0,299.7 L 92.0,301.2 L 95.0,302.8 L 98.0,304.3 L 101.0,305.8 L 104.0,307.2 L 107.0,308.6 L 110.0,310.0 L 113.0,311.3 L 116.0,312.6 L 119.0,313.9 L 122.0,315.1 L 125.0,316.2 L 128.0,317.3 L 131.0,318.3 L 134.0,319.3 L 137.0,320.2 L 140.0,321.0 L 143.0,321.7 L 146.0,322.4 L 149.0,323.0 L 152.0,323.5 L 155.0,324.0 L 158.0,324.3 L 161.0,324.6 L 164.0,324.8 L 167.0,325.0 L 170.0,325.0 L 173.0,325.0 L 176.0,324.8 L 179.0,324.6 L 182.0,324.3 L 185.0,324.0 L 188.0,323.5 L 191.0,323.0 L 194.0,322.4 L 197.0,321.7 L 200.0,321.0 L 203.0,320.2 L 206.0,319.3 L 209.0,318.3 L 212.0,317.3 L 215.0,316.2 L 218.0,315.1 L 221.0,313.9 L 224.0,312.6 L 227.0,311.3 L 230.0,310.0 L 233.0,308.6 L 236.0,307.2 L 239.0,305.8 L 242.0,304.3 L 245.0,302.8 L 248.0,301.2 L 251.0,299.7 L 254.0,298.1 L 257.0,296.6 L 260.0,295.0 L 263.0,293.4 L 266.0,291.9 L 269.0,290.3 L 272.0,288.8 L 275.0,287.2 L 278.0,285.7 L 281.0,284.2 L 284.0,282.8 L 287.0,281.4 L 290.0,280.0 L 293.0,278.7 L 296.0,277.4 L 299.0,276.1 L 302.0,274.9 L 305.0,273.8 L 308.0,272.7 L 311.0,271.7 L 314.0,270.7 L 317.0,269.8 L 320.0,269.0 L 323.0,268.3 L 326.0,267.6 L 329.0,267.0 L 332.0,266.5 L 335.0,266.0 L 338.0,265.7 L 341.0,265.4 L 344.0,265.2 L 347.0,265.0 L 350.0,265.0 L 353.0,265.0 L 356.0,265.2 L 359.0,265.4 L 362.0,265.7 L 365.0,266.0 L 368.0,266.5 L 371.0,267.0 L 374.0,267.6 L 377.0,268.3 L 380.0,269.0 L 383.0,269.8 L 386.0,270.7 L 389.0,271.7 L 392.0,272.7 L 395.0,273.8 L 398.0,274.9 L 401.0,276.1 L 404.0,277.4 L 407.0,278.7 L 410.0,280.0 L 413.0,281.4 L 416.0,282.8 L 419.0,284.2 L 422.0,285.7 L 425.0,287.2 L 428.0,288.8 L 431.0,290.3 L 434.0,291.9 L 437.0,293.4 L 440.0,295.0 L 443.0,296.6 L 446.0,298.1 L 449.0,299.7 L 452.0,301.2 L 455.0,302.8 L 458.0,304.3 L 461.0,305.8 L 464.0,307.2 L 467.0,308.6 L 470.0,310.0 L 473.0,311.3 L 476.0,312.6 L 479.0,313.9 L 482.0,315.1 L 485.0,316.2 L 488.0,317.3 L 491.0,318.3 L 494.0,319.3 L 497.0,320.2 L 500.0,321.0 L 503.0,321.7 L 506.0,322.4 L 509.0,323.0 L 512.0,323.5 L 515.0,324.0 L 518.0,324.3 L 521.0,324.6 L 524.0,324.8 L 527.0,325.0 L 530.0,325.0 L 533.0,325.0 L 536.0,324.8 L 539.0,324.6 L 542.0,324.3 L 545.0,324.0 L 548.0,323.5 L 551.0,323.0 L 554.0,322.4 L 557.0,321.7 L 560.0,321.0 L 563.0,320.2 L 566.0,319.3 L 569.0,318.3 L 572.0,317.3 L 575.0,316.2 L 578.0,315.1 L 581.0,313.9 L 584.0,312.6 L 587.0,311.3 L 590.0,310.0 L 593.0,308.6 L 596.0,307.2 L 599.0,305.8 L 602.0,304.3 L 605.0,302.8 L 608.0,301.2 L 611.0,299.7 L 614.0,298.1 L 617.0,296.6 L 620.0,295.0" fill="none" stroke="#8B0029" stroke-width="2.5" stroke-dasharray="6 4" opacity="0.4"/>
  <text x="80" y="285" text-anchor="middle" font-size="10" fill="#2563EB" font-weight="bold">N</text>
  <text x="260" y="285" text-anchor="middle" font-size="10" fill="#2563EB" font-weight="bold">N</text>
  <text x="440" y="285" text-anchor="middle" font-size="10" fill="#2563EB" font-weight="bold">N</text>
  <text x="620" y="285" text-anchor="middle" font-size="10" fill="#2563EB" font-weight="bold">N</text>
  <text x="170" y="260" text-anchor="middle" font-size="10" fill="#8B0029" font-weight="bold">A</text>
  <text x="350" y="340" text-anchor="middle" font-size="10" fill="#8B0029" font-weight="bold">A</text>
  <text x="530" y="260" text-anchor="middle" font-size="10" fill="#8B0029" font-weight="bold">A</text>
  <text x="680" y="300" font-size="13" fill="#6B7280" font-style="italic">L = 3λ₃/2</text>
  <text x="40" y="405" text-anchor="middle" font-size="14" font-weight="bold" fill="#8B0029">n=4</text>
  <line x1="80" y1="400" x2="620" y2="400" stroke="#6B7280" stroke-width="1" stroke-dasharray="4 3"/>
  <path d="M 80.0,400.0 L 83.0,398.3 L 86.0,396.5 L 89.0,394.8 L 92.0,393.1 L 95.0,391.4 L 98.0,389.8 L 101.0,388.3 L 104.0,386.8 L 107.0,385.3 L 110.0,383.9 L 113.0,382.6 L 116.0,381.4 L 119.0,380.3 L 122.0,379.3 L 125.0,378.3 L 128.0,377.5 L 131.0,376.8 L 134.0,376.2 L 137.0,375.7 L 140.0,375.4 L 143.0,375.1 L 146.0,375.0 L 149.0,375.0 L 152.0,375.1 L 155.0,375.4 L 158.0,375.7 L 161.0,376.2 L 164.0,376.8 L 167.0,377.5 L 170.0,378.3 L 173.0,379.3 L 176.0,380.3 L 179.0,381.4 L 182.0,382.6 L 185.0,383.9 L 188.0,385.3 L 191.0,386.8 L 194.0,388.3 L 197.0,389.8 L 200.0,391.4 L 203.0,393.1 L 206.0,394.8 L 209.0,396.5 L 212.0,398.3 L 215.0,400.0 L 218.0,401.7 L 221.0,403.5 L 224.0,405.2 L 227.0,406.9 L 230.0,408.6 L 233.0,410.2 L 236.0,411.7 L 239.0,413.2 L 242.0,414.7 L 245.0,416.1 L 248.0,417.4 L 251.0,418.6 L 254.0,419.7 L 257.0,420.7 L 260.0,421.7 L 263.0,422.5 L 266.0,423.2 L 269.0,423.8 L 272.0,424.3 L 275.0,424.6 L 278.0,424.9 L 281.0,425.0 L 284.0,425.0 L 287.0,424.9 L 290.0,424.6 L 293.0,424.3 L 296.0,423.8 L 299.0,423.2 L 302.0,422.5 L 305.0,421.7 L 308.0,420.7 L 311.0,419.7 L 314.0,418.6 L 317.0,417.4 L 320.0,416.1 L 323.0,414.7 L 326.0,413.2 L 329.0,411.7 L 332.0,410.2 L 335.0,408.6 L 338.0,406.9 L 341.0,405.2 L 344.0,403.5 L 347.0,401.7 L 350.0,400.0 L 353.0,398.3 L 356.0,396.5 L 359.0,394.8 L 362.0,393.1 L 365.0,391.4 L 368.0,389.8 L 371.0,388.3 L 374.0,386.8 L 377.0,385.3 L 380.0,383.9 L 383.0,382.6 L 386.0,381.4 L 389.0,380.3 L 392.0,379.3 L 395.0,378.3 L 398.0,377.5 L 401.0,376.8 L 404.0,376.2 L 407.0,375.7 L 410.0,375.4 L 413.0,375.1 L 416.0,375.0 L 419.0,375.0 L 422.0,375.1 L 425.0,375.4 L 428.0,375.7 L 431.0,376.2 L 434.0,376.8 L 437.0,377.5 L 440.0,378.3 L 443.0,379.3 L 446.0,380.3 L 449.0,381.4 L 452.0,382.6 L 455.0,383.9 L 458.0,385.3 L 461.0,386.8 L 464.0,388.3 L 467.0,389.8 L 470.0,391.4 L 473.0,393.1 L 476.0,394.8 L 479.0,396.5 L 482.0,398.3 L 485.0,400.0 L 488.0,401.7 L 491.0,403.5 L 494.0,405.2 L 497.0,406.9 L 500.0,408.6 L 503.0,410.2 L 506.0,411.7 L 509.0,413.2 L 512.0,414.7 L 515.0,416.1 L 518.0,417.4 L 521.0,418.6 L 524.0,419.7 L 527.0,420.7 L 530.0,421.7 L 533.0,422.5 L 536.0,423.2 L 539.0,423.8 L 542.0,424.3 L 545.0,424.6 L 548.0,424.9 L 551.0,425.0 L 554.0,425.0 L 557.0,424.9 L 560.0,424.6 L 563.0,424.3 L 566.0,423.8 L 569.0,423.2 L 572.0,422.5 L 575.0,421.7 L 578.0,420.7 L 581.0,419.7 L 584.0,418.6 L 587.0,417.4 L 590.0,416.1 L 593.0,414.7 L 596.0,413.2 L 599.0,411.7 L 602.0,410.2 L 605.0,408.6 L 608.0,406.9 L 611.0,405.2 L 614.0,403.5 L 617.0,401.7 L 620.0,400.0" fill="none" stroke="#8B0029" stroke-width="2.5"/>
  <path d="M 80.0,400.0 L 83.0,401.7 L 86.0,403.5 L 89.0,405.2 L 92.0,406.9 L 95.0,408.6 L 98.0,410.2 L 101.0,411.7 L 104.0,413.2 L 107.0,414.7 L 110.0,416.1 L 113.0,417.4 L 116.0,418.6 L 119.0,419.7 L 122.0,420.7 L 125.0,421.7 L 128.0,422.5 L 131.0,423.2 L 134.0,423.8 L 137.0,424.3 L 140.0,424.6 L 143.0,424.9 L 146.0,425.0 L 149.0,425.0 L 152.0,424.9 L 155.0,424.6 L 158.0,424.3 L 161.0,423.8 L 164.0,423.2 L 167.0,422.5 L 170.0,421.7 L 173.0,420.7 L 176.0,419.7 L 179.0,418.6 L 182.0,417.4 L 185.0,416.1 L 188.0,414.7 L 191.0,413.2 L 194.0,411.7 L 197.0,410.2 L 200.0,408.6 L 203.0,406.9 L 206.0,405.2 L 209.0,403.5 L 212.0,401.7 L 215.0,400.0 L 218.0,398.3 L 221.0,396.5 L 224.0,394.8 L 227.0,393.1 L 230.0,391.4 L 233.0,389.8 L 236.0,388.3 L 239.0,386.8 L 242.0,385.3 L 245.0,383.9 L 248.0,382.6 L 251.0,381.4 L 254.0,380.3 L 257.0,379.3 L 260.0,378.3 L 263.0,377.5 L 266.0,376.8 L 269.0,376.2 L 272.0,375.7 L 275.0,375.4 L 278.0,375.1 L 281.0,375.0 L 284.0,375.0 L 287.0,375.1 L 290.0,375.4 L 293.0,375.7 L 296.0,376.2 L 299.0,376.8 L 302.0,377.5 L 305.0,378.3 L 308.0,379.3 L 311.0,380.3 L 314.0,381.4 L 317.0,382.6 L 320.0,383.9 L 323.0,385.3 L 326.0,386.8 L 329.0,388.3 L 332.0,389.8 L 335.0,391.4 L 338.0,393.1 L 341.0,394.8 L 344.0,396.5 L 347.0,398.3 L 350.0,400.0 L 353.0,401.7 L 356.0,403.5 L 359.0,405.2 L 362.0,406.9 L 365.0,408.6 L 368.0,410.2 L 371.0,411.7 L 374.0,413.2 L 377.0,414.7 L 380.0,416.1 L 383.0,417.4 L 386.0,418.6 L 389.0,419.7 L 392.0,420.7 L 395.0,421.7 L 398.0,422.5 L 401.0,423.2 L 404.0,423.8 L 407.0,424.3 L 410.0,424.6 L 413.0,424.9 L 416.0,425.0 L 419.0,425.0 L 422.0,424.9 L 425.0,424.6 L 428.0,424.3 L 431.0,423.8 L 434.0,423.2 L 437.0,422.5 L 440.0,421.7 L 443.0,420.7 L 446.0,419.7 L 449.0,418.6 L 452.0,417.4 L 455.0,416.1 L 458.0,414.7 L 461.0,413.2 L 464.0,411.7 L 467.0,410.2 L 470.0,408.6 L 473.0,406.9 L 476.0,405.2 L 479.0,403.5 L 482.0,401.7 L 485.0,400.0 L 488.0,398.3 L 491.0,396.5 L 494.0,394.8 L 497.0,393.1 L 500.0,391.4 L 503.0,389.8 L 506.0,388.3 L 509.0,386.8 L 512.0,385.3 L 515.0,383.9 L 518.0,382.6 L 521.0,381.4 L 524.0,380.3 L 527.0,379.3 L 530.0,378.3 L 533.0,377.5 L 536.0,376.8 L 539.0,376.2 L 542.0,375.7 L 545.0,375.4 L 548.0,375.1 L 551.0,375.0 L 554.0,375.0 L 557.0,375.1 L 560.0,375.4 L 563.0,375.7 L 566.0,376.2 L 569.0,376.8 L 572.0,377.5 L 575.0,378.3 L 578.0,379.3 L 581.0,380.3 L 584.0,381.4 L 587.0,382.6 L 590.0,383.9 L 593.0,385.3 L 596.0,386.8 L 599.0,388.3 L 602.0,389.8 L 605.0,391.4 L 608.0,393.1 L 611.0,394.8 L 614.0,396.5 L 617.0,398.3 L 620.0,400.0" fill="none" stroke="#8B0029" stroke-width="2.5" stroke-dasharray="6 4" opacity="0.4"/>
  <text x="80" y="390" text-anchor="middle" font-size="10" fill="#2563EB" font-weight="bold">N</text>
  <text x="215" y="390" text-anchor="middle" font-size="10" fill="#2563EB" font-weight="bold">N</text>
  <text x="350" y="390" text-anchor="middle" font-size="10" fill="#2563EB" font-weight="bold">N</text>
  <text x="485" y="390" text-anchor="middle" font-size="10" fill="#2563EB" font-weight="bold">N</text>
  <text x="620" y="390" text-anchor="middle" font-size="10" fill="#2563EB" font-weight="bold">N</text>
  <text x="148" y="370" text-anchor="middle" font-size="10" fill="#8B0029" font-weight="bold">A</text>
  <text x="282" y="440" text-anchor="middle" font-size="10" fill="#8B0029" font-weight="bold">A</text>
  <text x="418" y="370" text-anchor="middle" font-size="10" fill="#8B0029" font-weight="bold">A</text>
  <text x="552" y="440" text-anchor="middle" font-size="10" fill="#8B0029" font-weight="bold">A</text>
  <text x="680" y="405" font-size="13" fill="#6B7280" font-style="italic">L = 2λ₄</text>
  <text x="375" y="468" text-anchor="middle" font-size="13" fill="#2563EB" font-weight="bold">N</text>
  <text x="395" y="468" font-size="13" fill="#6B7280"> = 마디(node), </text>
  <text x="490" y="468" font-size="13" fill="#8B0029" font-weight="bold">A</text>
  <text x="510" y="468" font-size="13" fill="#6B7280"> = 배(antinode)</text>
</svg>
