<svg xmlns="http://www.w3.org/2000/svg" viewBox="0 0 750 390" font-family="sans-serif">
  <defs>
    <marker id="wpR" markerWidth="10" markerHeight="7" refX="10" refY="3.5" orient="auto" fill="#8B0029">
      <polygon points="0 0, 10 3.5, 0 7"/>
    </marker>
    <marker id="wpB" markerWidth="10" markerHeight="7" refX="10" refY="3.5" orient="auto" fill="#2563EB">
      <polygon points="0 0, 10 3.5, 0 7"/>
    </marker>
    <marker id="wpG" markerWidth="10" markerHeight="7" refX="10" refY="3.5" orient="auto" fill="#6B7280">
      <polygon points="0 0, 10 3.5, 0 7"/>
    </marker>
    <marker id="wpK" markerWidth="10" markerHeight="7" refX="10" refY="3.5" orient="auto" fill="#1a1a1a">
      <polygon points="0 0, 10 3.5, 0 7"/>
    </marker>
  </defs>
  <line x1="60" y1="190" x2="720" y2="190" stroke="#6B7280" stroke-width="1.5" marker-end="url(#wpG)"/>
  <line x1="60" y1="340" x2="60" y2="30" stroke="#6B7280" stroke-width="1.5" marker-end="url(#wpG)"/>
  <text x="725" y="195" font-size="14" fill="#6B7280" font-style="italic">x</text>
  <text x="50" y="28" font-size="14" fill="#6B7280" font-style="italic">y</text>
  <line x1="60" y1="190" x2="660" y2="190" stroke="#6B7280" stroke-width="1" stroke-dasharray="4 3"/>
  <path d="M 60.0,190.0 L 63.3,182.3 L 66.7,174.7 L 70.0,167.1 L 73.3,159.7 L 76.7,152.4 L 80.0,145.3 L 83.3,138.4 L 86.7,131.7 L 90.0,125.3 L 93.3,119.3 L 96.7,113.6 L 100.0,108.3 L 103.3,103.3 L 106.7,98.8 L 110.0,94.7 L 113.3,91.1 L 116.7,88.0 L 120.0,85.4 L 123.3,83.3 L 126.7,81.7 L 130.0,80.6 L 133.3,80.1 L 136.7,80.1 L 140.0,80.6 L 143.3,81.7 L 146.7,83.3 L 150.0,85.4 L 153.3,88.0 L 156.7,91.1 L 160.0,94.7 L 163.3,98.8 L 166.7,103.3 L 170.0,108.3 L 173.3,113.6 L 176.7,119.3 L 180.0,125.3 L 183.3,131.7 L 186.7,138.4 L 190.0,145.3 L 193.3,152.4 L 196.7,159.7 L 200.0,167.1 L 203.3,174.7 L 206.7,182.3 L 210.0,190.0 L 213.3,197.7 L 216.7,205.3 L 220.0,212.9 L 223.3,220.3 L 226.7,227.6 L 230.0,234.7 L 233.3,241.6 L 236.7,248.3 L 240.0,254.7 L 243.3,260.7 L 246.7,266.4 L 250.0,271.7 L 253.3,276.7 L 256.7,281.2 L 260.0,285.3 L 263.3,288.9 L 266.7,292.0 L 270.0,294.6 L 273.3,296.7 L 276.7,298.3 L 280.0,299.4 L 283.3,299.9 L 286.7,299.9 L 290.0,299.4 L 293.3,298.3 L 296.7,296.7 L 300.0,294.6 L 303.3,292.0 L 306.7,288.9 L 310.0,285.3 L 313.3,281.2 L 316.7,276.7 L 320.0,271.7 L 323.3,266.4 L 326.7,260.7 L 330.0,254.7 L 333.3,248.3 L 336.7,241.6 L 340.0,234.7 L 343.3,227.6 L 346.7,220.3 L 350.0,212.9 L 353.3,205.3 L 356.7,197.7 L 360.0,190.0 L 363.3,182.3 L 366.7,174.7 L 370.0,167.1 L 373.3,159.7 L 376.7,152.4 L 380.0,145.3 L 383.3,138.4 L 386.7,131.7 L 390.0,125.3 L 393.3,119.3 L 396.7,113.6 L 400.0,108.3 L 403.3,103.3 L 406.7,98.8 L 410.0,94.7 L 413.3,91.1 L 416.7,88.0 L 420.0,85.4 L 423.3,83.3 L 426.7,81.7 L 430.0,80.6 L 433.3,80.1 L 436.7,80.1 L 440.0,80.6 L 443.3,81.7 L 446.7,83.3 L 450.0,85.4 L 453.3,88.0 L 456.7,91.1 L 460.0,94.7 L 463.3,98.8 L 466.7,103.3 L 470.0,108.3 L 473.3,113.6 L 476.7,119.3 L 480.0,125.3 L 483.3,131.7 L 486.7,138.4 L 490.0,145.3 L 493.3,152.4 L 496.7,159.7 L 500.0,167.1 L 503.3,174.7 L 506.7,182.3 L 510.0,190.0 L 513.3,197.7 L 516.7,205.3 L 520.0,212.9 L 523.3,220.3 L 526.7,227.6 L 530.0,234.7 L 533.3,241.6 L 536.7,248.3 L 540.0,254.7 L 543.3,260.7 L 546.7,266.4 L 550.0,271.7 L 553.3,276.7 L 556.7,281.2 L 560.0,285.3 L 563.3,288.9 L 566.7,292.0 L 570.0,294.6 L 573.3,296.7 L 576.7,298.3 L 580.0,299.4 L 583.3,299.9 L 586.7,299.9 L 590.0,299.4 L 593.3,298.3 L 596.7,296.7 L 600.0,294.6 L 603.3,292.0 L 606.7,288.9 L 610.0,285.3 L 613.3,281.2 L 616.7,276.7 L 620.0,271.7 L 623.3,266.4 L 626.7,260.7 L 630.0,254.7 L 633.3,248.3 L 636.7,241.6 L 640.0,234.7 L 643.3,227.6 L 646.7,220.3 L 650.0,212.9 L 653.3,205.3 L 656.7,197.7 L 660.0,190.0" fill="none" stroke="#8B0029" stroke-width="2.5"/>

  <line x1="135" y1="190" x2="135" y2="80" stroke="#2563EB" stroke-width="2" marker-end="url(#wpB)"/>
  <line x1="128" y1="190" x2="142" y2="190" stroke="#2563EB" stroke-width="1.5"/>
  <line x1="128" y1="80" x2="142" y2="80" stroke="#2563EB" stroke-width="1.5"/>
  <text x="118" y="138" text-anchor="end" font-size="15" fill="#2563EB" font-weight="bold" font-style="italic">y</text>
  <text x="118" y="148" text-anchor="end" font-size="10" fill="#2563EB" font-style="italic">m</text>

  <line x1="135" y1="55" x2="435" y2="55" stroke="#8B0029" stroke-width="2"/>
  <line x1="135" y1="55" x2="145" y2="50" stroke="#8B0029" stroke-width="2"/>
  <line x1="135" y1="55" x2="145" y2="60" stroke="#8B0029" stroke-width="2"/>
  <line x1="435" y1="55" x2="425" y2="50" stroke="#8B0029" stroke-width="2"/>
  <line x1="435" y1="55" x2="425" y2="60" stroke="#8B0029" stroke-width="2"/>
  <line x1="135" y1="55" x2="135" y2="80" stroke="#6B7280" stroke-width="1" stroke-dasharray="3 2"/>
  <line x1="435" y1="55" x2="435" y2="80" stroke="#6B7280" stroke-width="1" stroke-dasharray="3 2"/>
  <text x="285" y="48" text-anchor="middle" font-size="18" fill="#8B0029" font-weight="bold" font-style="italic">λ</text>

  <line x1="285" y1="190" x2="285" y2="300" stroke="#2563EB" stroke-width="2" marker-end="url(#wpB)"/>
  <line x1="278" y1="300" x2="292" y2="300" stroke="#2563EB" stroke-width="1.5"/>
  <text x="270" y="248" text-anchor="end" font-size="15" fill="#2563EB" font-weight="bold" font-style="italic">y</text>
  <text x="270" y="258" text-anchor="end" font-size="10" fill="#2563EB" font-style="italic">m</text>

  <line x1="490" y1="340" x2="610" y2="340" stroke="#8B0029" stroke-width="2.5" marker-end="url(#wpR)"/>
  <text x="550" y="365" text-anchor="middle" font-size="14" fill="#8B0029" font-weight="bold" font-style="italic">v</text>
  <text x="500" y="130" font-size="15" fill="#1a1a1a" font-style="italic">y = y<tspan baseline-shift="sub" font-size="11">m</tspan> sin(kx − ωt)</text>
  <text x="135" y="72" text-anchor="middle" font-size="12" fill="#6B7280">마루</text>
  <text x="285" y="322" text-anchor="middle" font-size="12" fill="#6B7280">골</text>
</svg>
