<svg xmlns="http://www.w3.org/2000/svg" viewBox="0 0 800 500" font-family="sans-serif">
  <defs>
    <marker id="wsR" markerWidth="10" markerHeight="7" refX="10" refY="3.5" orient="auto" fill="#8B0029">
      <polygon points="0 0, 10 3.5, 0 7"/>
    </marker>
    <marker id="wsB" markerWidth="10" markerHeight="7" refX="10" refY="3.5" orient="auto" fill="#2563EB">
      <polygon points="0 0, 10 3.5, 0 7"/>
    </marker>
    <marker id="wsG" markerWidth="10" markerHeight="7" refX="10" refY="3.5" orient="auto" fill="#6B7280">
      <polygon points="0 0, 10 3.5, 0 7"/>
    </marker>
    <marker id="wsK" markerWidth="10" markerHeight="7" refX="10" refY="3.5" orient="auto" fill="#1a1a1a">
      <polygon points="0 0, 10 3.5, 0 7"/>
    </marker>
  </defs>
  <text x="200" y="25" text-anchor="middle" font-size="16" font-weight="bold" fill="#8B0029">보강 간섭 (φ = 0)</text>
  <g transform="translate(30, 35)">
    <line x1="20" y1="80" x2="360" y2="80" stroke="#6B7280" stroke-width="1" stroke-dasharray="4 3"/>
    <path d="M 20.0,80.0 L 22.5,75.6 L 25.0,71.2 L 27.5,66.9 L 30.0,62.8 L 32.5,58.8 L 35.0,55.0 L 37.5,51.5 L 40.0,48.2 L 42.5,45.2 L 45.0,42.6 L 47.5,40.3 L 50.0,38.4 L 52.5,36.9 L 55.0,35.9 L 57.5,35.2 L 60.0,35.0 L 62.5,35.2 L 65.0,35.9 L 67.5,36.9 L 70.0,38.4 L 72.5,40.3 L 75.0,42.6 L 77.5,45.2 L 80.0,48.2 L 82.5,51.5 L 85.0,55.0 L 87.5,58.8 L 90.0,62.8 L 92.5,66.9 L 95.0,71.2 L 97.5,75.6 L 100.0,80.0 L 102.5,84.4 L 105.0,88.8 L 107.5,93.1 L 110.0,97.2 L 112.5,101.2 L 115.0,105.0 L 117.5,108.5 L 120.0,111.8 L 122.5,114.8 L 125.0,117.4 L 127.5,119.7 L 130.0,121.6 L 132.5,123.1 L 135.0,124.1 L 137.5,124.8 L 140.0,125.0 L 142.5,124.8 L 145.0,124.1 L 147.5,123.1 L 150.0,121.6 L 152.5,119.7 L 155.0,117.4 L 157.5,114.8 L 160.0,111.8 L 162.5,108.5 L 165.0,105.0 L 167.5,101.2 L 170.0,97.2 L 172.5,93.1 L 175.0,88.8 L 177.5,84.4 L 180.0,80.0 L 182.5,75.6 L 185.0,71.2 L 187.5,66.9 L 190.0,62.8 L 192.5,58.8 L 195.0,55.0 L 197.5,51.5 L 200.0,48.2 L 202.5,45.2 L 205.0,42.6 L 207.5,40.3 L 210.0,38.4 L 212.5,36.9 L 215.0,35.9 L 217.5,35.2 L 220.0,35.0 L 222.5,35.2 L 225.0,35.9 L 227.5,36.9 L 230.0,38.4 L 232.5,40.3 L 235.0,42.6 L 237.5,45.2 L 240.0,48.2 L 242.5,51.5 L 245.0,55.0 L 247.5,58.8 L 250.0,62.8 L 252.5,66.9 L 255.0,71.2 L 257.5,75.6 L 260.0,80.0 L 262.5,84.4 L 265.0,88.8 L 267.5,93.1 L 270.0,97.2 L 272.5,101.2 L 275.0,105.0 L 277.5,108.5 L 280.0,111.8 L 282.5,114.8 L 285.0,117.4 L 287.5,119.7 L 290.0,121.6 L 292.5,123.1 L 295.0,124.1 L 297.5,124.8 L 300.0,125.0 L 302.5,124.8 L 305.0,124.1 L 307.5,123.1 L 310.0,121.6 L 312.5,119.7 L 315.0,117.4 L 317.5,114.8 L 320.0,111.8 L 322.5,108.5 L 325.0,105.0 L 327.5,101.2 L 330.0,97.2 L 332.5,93.1 L 335.0,88.8 L 337.5,84.4 L 340.0,80.0" fill="none" stroke="#2563EB" stroke-width="1.5" stroke-dasharray="6 3"/>
    <path d="M 20.0,80.0 L 22.5,75.6 L 25.0,71.2 L 27.5,66.9 L 30.0,62.8 L 32.5,58.8 L 35.0,55.0 L 37.5,51.5 L 40.0,48.2 L 42.5,45.2 L 45.0,42.6 L 47.5,40.3 L 50.0,38.4 L 52.5,36.9 L 55.0,35.9 L 57.5,35.2 L 60.0,35.0 L 62.5,35.2 L 65.0,35.9 L 67.5,36.9 L 70.0,38.4 L 72.5,40.3 L 75.0,42.6 L 77.5,45.2 L 80.0,48.2 L 82.5,51.5 L 85.0,55.0 L 87.5,58.8 L 90.0,62.8 L 92.5,66.9 L 95.0,71.2 L 97.5,75.6 L 100.0,80.0 L 102.5,84.4 L 105.0,88.8 L 107.5,93.1 L 110.0,97.2 L 112.5,101.2 L 115.0,105.0 L 117.5,108.5 L 120.0,111.8 L 122.5,114.8 L 125.0,117.4 L 127.5,119.7 L 130.0,121.6 L 132.5,123.1 L 135.0,124.1 L 137.5,124.8 L 140.0,125.0 L 142.5,124.8 L 145.0,124.1 L 147.5,123.1 L 150.0,121.6 L 152.5,119.7 L 155.0,117.4 L 157.5,114.8 L 160.0,111.8 L 162.5,108.5 L 165.0,105.0 L 167.5,101.2 L 170.0,97.2 L 172.5,93.1 L 175.0,88.8 L 177.5,84.4 L 180.0,80.0 L 182.5,75.6 L 185.0,71.2 L 187.5,66.9 L 190.0,62.8 L 192.5,58.8 L 195.0,55.0 L 197.5,51.5 L 200.0,48.2 L 202.5,45.2 L 205.0,42.6 L 207.5,40.3 L 210.0,38.4 L 212.5,36.9 L 215.0,35.9 L 217.5,35.2 L 220.0,35.0 L 222.5,35.2 L 225.0,35.9 L 227.5,36.9 L 230.0,38.4 L 232.5,40.3 L 235.0,42.6 L 237.5,45.2 L 240.0,48.2 L 242.5,51.5 L 245.0,55.0 L 247.5,58.8 L 250.0,62.8 L 252.5,66.9 L 255.0,71.2 L 257.5,75.6 L 260.0,80.0 L 262.5,84.4 L 265.0,88.8 L 267.5,93.1 L 270.0,97.2 L 272.5,101.2 L 275.0,105.0 L 277.5,108.5 L 280.0,111.8 L 282.5,114.8 L 285.0,117.4 L 287.5,119.7 L 290.0,121.6 L 292.5,123.1 L 295.0,124.1 L 297.5,124.8 L 300.0,125.0 L 302.5,124.8 L 305.0,124.1 L 307.5,123.1 L 310.0,121.6 L 312.5,119.7 L 315.0,117.4 L 317.5,114.8 L 320.0,111.8 L 322.5,108.5 L 325.0,105.0 L 327.5,101.2 L 330.0,97.2 L 332.5,93.1 L 335.0,88.8 L 337.5,84.4 L 340.0,80.0" fill="none" stroke="#8B0029" stroke-width="1.5" stroke-dasharray="6 3"/>
    <text x="345" y="44" font-size="12" fill="#2563EB" font-style="italic">y₁</text>
    <text x="345" y="64" font-size="12" fill="#8B0029" font-style="italic">y₂</text>
    <text x="375" y="85" font-size="24" font-weight="bold" fill="#6B7280">=</text>
  </g>
  <g transform="translate(420, 35)">
    <line x1="20" y1="80" x2="360" y2="80" stroke="#6B7280" stroke-width="1" stroke-dasharray="4 3"/>
    <path d="M 20.0,80.0 L 22.5,71.2 L 25.0,62.4 L 27.5,53.9 L 30.0,45.6 L 32.5,37.6 L 35.0,30.0 L 37.5,22.9 L 40.0,16.4 L 42.5,10.4 L 45.0,5.2 L 47.5,0.6 L 50.0,-3.1 L 52.5,-6.1 L 55.0,-8.3 L 57.5,-9.6 L 60.0,-10.0 L 62.5,-9.6 L 65.0,-8.3 L 67.5,-6.1 L 70.0,-3.1 L 72.5,0.6 L 75.0,5.2 L 77.5,10.4 L 80.0,16.4 L 82.5,22.9 L 85.0,30.0 L 87.5,37.6 L 90.0,45.6 L 92.5,53.9 L 95.0,62.4 L 97.5,71.2 L 100.0,80.0 L 102.5,88.8 L 105.0,97.6 L 107.5,106.1 L 110.0,114.4 L 112.5,122.4 L 115.0,130.0 L 117.5,137.1 L 120.0,143.6 L 122.5,149.6 L 125.0,154.8 L 127.5,159.4 L 130.0,163.1 L 132.5,166.1 L 135.0,168.3 L 137.5,169.6 L 140.0,170.0 L 142.5,169.6 L 145.0,168.3 L 147.5,166.1 L 150.0,163.1 L 152.5,159.4 L 155.0,154.8 L 157.5,149.6 L 160.0,143.6 L 162.5,137.1 L 165.0,130.0 L 167.5,122.4 L 170.0,114.4 L 172.5,106.1 L 175.0,97.6 L 177.5,88.8 L 180.0,80.0 L 182.5,71.2 L 185.0,62.4 L 187.5,53.9 L 190.0,45.6 L 192.5,37.6 L 195.0,30.0 L 197.5,22.9 L 200.0,16.4 L 202.5,10.4 L 205.0,5.2 L 207.5,0.6 L 210.0,-3.1 L 212.5,-6.1 L 215.0,-8.3 L 217.5,-9.6 L 220.0,-10.0 L 222.5,-9.6 L 225.0,-8.3 L 227.5,-6.1 L 230.0,-3.1 L 232.5,0.6 L 235.0,5.2 L 237.5,10.4 L 240.0,16.4 L 242.5,22.9 L 245.0,30.0 L 247.5,37.6 L 250.0,45.6 L 252.5,53.9 L 255.0,62.4 L 257.5,71.2 L 260.0,80.0 L 262.5,88.8 L 265.0,97.6 L 267.5,106.1 L 270.0,114.4 L 272.5,122.4 L 275.0,130.0 L 277.5,137.1 L 280.0,143.6 L 282.5,149.6 L 285.0,154.8 L 287.5,159.4 L 290.0,163.1 L 292.5,166.1 L 295.0,168.3 L 297.5,169.6 L 300.0,170.0 L 302.5,169.6 L 305.0,168.3 L 307.5,166.1 L 310.0,163.1 L 312.5,159.4 L 315.0,154.8 L 317.5,149.6 L 320.0,143.6 L 322.5,137.1 L 325.0,130.0 L 327.5,122.4 L 330.0,114.4 L 332.5,106.1 L 335.0,97.6 L 337.5,88.8 L 340.0,80.0" fill="none" stroke="#8B0029" stroke-width="2.5"/>
    <text x="280" y="18" font-size="13" fill="#8B0029" font-weight="bold">2yₘ</text>
    <text x="190" y="170" text-anchor="middle" font-size="12" fill="#6B7280">진폭 = 2yₘ</text>
  </g>

  <text x="200" y="220" text-anchor="middle" font-size="16" font-weight="bold" fill="#8B0029">상쇄 간섭 (φ = π)</text>
  <g transform="translate(30, 230)">
    <line x1="20" y1="80" x2="360" y2="80" stroke="#6B7280" stroke-width="1" stroke-dasharray="4 3"/>
    <path d="M 20.0,80.0 L 22.5,75.6 L 25.0,71.2 L 27.5,66.9 L 30.0,62.8 L 32.5,58.8 L 35.0,55.0 L 37.5,51.5 L 40.0,48.2 L 42.5,45.2 L 45.0,42.6 L 47.5,40.3 L 50.0,38.4 L 52.5,36.9 L 55.0,35.9 L 57.5,35.2 L 60.0,35.0 L 62.5,35.2 L 65.0,35.9 L 67.5,36.9 L 70.0,38.4 L 72.5,40.3 L 75.0,42.6 L 77.5,45.2 L 80.0,48.2 L 82.5,51.5 L 85.0,55.0 L 87.5,58.8 L 90.0,62.8 L 92.5,66.9 L 95.0,71.2 L 97.5,75.6 L 100.0,80.0 L 102.5,84.4 L 105.0,88.8 L 107.5,93.1 L 110.0,97.2 L 112.5,101.2 L 115.0,105.0 L 117.5,108.5 L 120.0,111.8 L 122.5,114.8 L 125.0,117.4 L 127.5,119.7 L 130.0,121.6 L 132.5,123.1 L 135.0,124.1 L 137.5,124.8 L 140.0,125.0 L 142.5,124.8 L 145.0,124.1 L 147.5,123.1 L 150.0,121.6 L 152.5,119.7 L 155.0,117.4 L 157.5,114.8 L 160.0,111.8 L 162.5,108.5 L 165.0,105.0 L 167.5,101.2 L 170.0,97.2 L 172.5,93.1 L 175.0,88.8 L 177.5,84.4 L 180.0,80.0 L 182.5,75.6 L 185.0,71.2 L 187.5,66.9 L 190.0,62.8 L 192.5,58.8 L 195.0,55.0 L 197.5,51.5 L 200.0,48.2 L 202.5,45.2 L 205.0,42.6 L 207.5,40.3 L 210.0,38.4 L 212.5,36.9 L 215.0,35.9 L 217.5,35.2 L 220.0,35.0 L 222.5,35.2 L 225.0,35.9 L 227.5,36.9 L 230.0,38.4 L 232.5,40.3 L 235.0,42.6 L 237.5,45.2 L 240.0,48.2 L 242.5,51.5 L 245.0,55.0 L 247.5,58.8 L 250.0,62.8 L 252.5,66.9 L 255.0,71.2 L 257.5,75.6 L 260.0,80.0 L 262.5,84.4 L 265.0,88.8 L 267.5,93.1 L 270.0,97.2 L 272.5,101.2 L 275.0,105.0 L 277.5,108.5 L 280.0,111.8 L 282.5,114.8 L 285.0,117.4 L 287.5,119.7 L 290.0,121.6 L 292.5,123.1 L 295.0,124.1 L 297.5,124.8 L 300.0,125.0 L 302.5,124.8 L 305.0,124.1 L 307.5,123.1 L 310.0,121.6 L 312.5,119.7 L 315.0,117.4 L 317.5,114.8 L 320.0,111.8 L 322.5,108.5 L 325.0,105.0 L 327.5,101.2 L 330.0,97.2 L 332.5,93.1 L 335.0,88.8 L 337.5,84.4 L 340.0,80.0" fill="none" stroke="#2563EB" stroke-width="1.5" stroke-dasharray="6 3"/>
    <path d="M 20.0,80.0 L 22.5,84.4 L 25.0,88.8 L 27.5,93.1 L 30.0,97.2 L 32.5,101.2 L 35.0,105.0 L 37.5,108.5 L 40.0,111.8 L 42.5,114.8 L 45.0,117.4 L 47.5,119.7 L 50.0,121.6 L 52.5,123.1 L 55.0,124.1 L 57.5,124.8 L 60.0,125.0 L 62.5,124.8 L 65.0,124.1 L 67.5,123.1 L 70.0,121.6 L 72.5,119.7 L 75.0,117.4 L 77.5,114.8 L 80.0,111.8 L 82.5,108.5 L 85.0,105.0 L 87.5,101.2 L 90.0,97.2 L 92.5,93.1 L 95.0,88.8 L 97.5,84.4 L 100.0,80.0 L 102.5,75.6 L 105.0,71.2 L 107.5,66.9 L 110.0,62.8 L 112.5,58.8 L 115.0,55.0 L 117.5,51.5 L 120.0,48.2 L 122.5,45.2 L 125.0,42.6 L 127.5,40.3 L 130.0,38.4 L 132.5,36.9 L 135.0,35.9 L 137.5,35.2 L 140.0,35.0 L 142.5,35.2 L 145.0,35.9 L 147.5,36.9 L 150.0,38.4 L 152.5,40.3 L 155.0,42.6 L 157.5,45.2 L 160.0,48.2 L 162.5,51.5 L 165.0,55.0 L 167.5,58.8 L 170.0,62.8 L 172.5,66.9 L 175.0,71.2 L 177.5,75.6 L 180.0,80.0 L 182.5,84.4 L 185.0,88.8 L 187.5,93.1 L 190.0,97.2 L 192.5,101.2 L 195.0,105.0 L 197.5,108.5 L 200.0,111.8 L 202.5,114.8 L 205.0,117.4 L 207.5,119.7 L 210.0,121.6 L 212.5,123.1 L 215.0,124.1 L 217.5,124.8 L 220.0,125.0 L 222.5,124.8 L 225.0,124.1 L 227.5,123.1 L 230.0,121.6 L 232.5,119.7 L 235.0,117.4 L 237.5,114.8 L 240.0,111.8 L 242.5,108.5 L 245.0,105.0 L 247.5,101.2 L 250.0,97.2 L 252.5,93.1 L 255.0,88.8 L 257.5,84.4 L 260.0,80.0 L 262.5,75.6 L 265.0,71.2 L 267.5,66.9 L 270.0,62.8 L 272.5,58.8 L 275.0,55.0 L 277.5,51.5 L 280.0,48.2 L 282.5,45.2 L 285.0,42.6 L 287.5,40.3 L 290.0,38.4 L 292.5,36.9 L 295.0,35.9 L 297.5,35.2 L 300.0,35.0 L 302.5,35.2 L 305.0,35.9 L 307.5,36.9 L 310.0,38.4 L 312.5,40.3 L 315.0,42.6 L 317.5,45.2 L 320.0,48.2 L 322.5,51.5 L 325.0,55.0 L 327.5,58.8 L 330.0,62.8 L 332.5,66.9 L 335.0,71.2 L 337.5,75.6 L 340.0,80.0" fill="none" stroke="#8B0029" stroke-width="1.5" stroke-dasharray="6 3"/>
    <text x="345" y="44" font-size="12" fill="#2563EB" font-style="italic">y₁</text>
    <text x="345" y="124" font-size="12" fill="#8B0029" font-style="italic">y₂</text>
    <text x="375" y="85" font-size="24" font-weight="bold" fill="#6B7280">=</text>
  </g>
  <g transform="translate(420, 230)">
    <line x1="20" y1="80" x2="360" y2="80" stroke="#6B7280" stroke-width="1" stroke-dasharray="4 3"/>
    <line x1="20" y1="80" x2="340" y2="80" stroke="#8B0029" stroke-width="2.5"/>
    <text x="170" y="106" text-anchor="middle" font-size="12" fill="#6B7280">진폭 = 0 (완전 상쇄)</text>
  </g>

  <text x="200" y="390" text-anchor="middle" font-size="16" font-weight="bold" fill="#8B0029">중간 간섭 (φ = 2π/3)</text>
  <g transform="translate(30, 400)">
    <line x1="20" y1="50" x2="360" y2="50" stroke="#6B7280" stroke-width="1" stroke-dasharray="4 3"/>
    <path d="M 20.0,50.0 L 22.5,47.4 L 25.0,44.7 L 27.5,42.2 L 30.0,39.7 L 32.5,37.3 L 35.0,35.0 L 37.5,32.9 L 40.0,30.9 L 42.5,29.1 L 45.0,27.6 L 47.5,26.2 L 50.0,25.1 L 52.5,24.2 L 55.0,23.5 L 57.5,23.1 L 60.0,23.0 L 62.5,23.1 L 65.0,23.5 L 67.5,24.2 L 70.0,25.1 L 72.5,26.2 L 75.0,27.6 L 77.5,29.1 L 80.0,30.9 L 82.5,32.9 L 85.0,35.0 L 87.5,37.3 L 90.0,39.7 L 92.5,42.2 L 95.0,44.7 L 97.5,47.4 L 100.0,50.0 L 102.5,52.6 L 105.0,55.3 L 107.5,57.8 L 110.0,60.3 L 112.5,62.7 L 115.0,65.0 L 117.5,67.1 L 120.0,69.1 L 122.5,70.9 L 125.0,72.4 L 127.5,73.8 L 130.0,74.9 L 132.5,75.8 L 135.0,76.5 L 137.5,76.9 L 140.0,77.0 L 142.5,76.9 L 145.0,76.5 L 147.5,75.8 L 150.0,74.9 L 152.5,73.8 L 155.0,72.4 L 157.5,70.9 L 160.0,69.1 L 162.5,67.1 L 165.0,65.0 L 167.5,62.7 L 170.0,60.3 L 172.5,57.8 L 175.0,55.3 L 177.5,52.6 L 180.0,50.0 L 182.5,47.4 L 185.0,44.7 L 187.5,42.2 L 190.0,39.7 L 192.5,37.3 L 195.0,35.0 L 197.5,32.9 L 200.0,30.9 L 202.5,29.1 L 205.0,27.6 L 207.5,26.2 L 210.0,25.1 L 212.5,24.2 L 215.0,23.5 L 217.5,23.1 L 220.0,23.0 L 222.5,23.1 L 225.0,23.5 L 227.5,24.2 L 230.0,25.1 L 232.5,26.2 L 235.0,27.6 L 237.5,29.1 L 240.0,30.9 L 242.5,32.9 L 245.0,35.0 L 247.5,37.3 L 250.0,39.7 L 252.5,42.2 L 255.0,44.7 L 257.5,47.4 L 260.0,50.0 L 262.5,52.6 L 265.0,55.3 L 267.5,57.8 L 270.0,60.3 L 272.5,62.7 L 275.0,65.0 L 277.5,67.1 L 280.0,69.1 L 282.5,70.9 L 285.0,72.4 L 287.5,73.8 L 290.0,74.9 L 292.5,75.8 L 295.0,76.5 L 297.5,76.9 L 300.0,77.0 L 302.5,76.9 L 305.0,76.5 L 307.5,75.8 L 310.0,74.9 L 312.5,73.8 L 315.0,72.4 L 317.5,70.9 L 320.0,69.1 L 322.5,67.1 L 325.0,65.0 L 327.5,62.7 L 330.0,60.3 L 332.5,57.8 L 335.0,55.3 L 337.5,52.6 L 340.0,50.0" fill="none" stroke="#2563EB" stroke-width="1.5" stroke-dasharray="6 3"/>
    <path d="M 20.0,26.6 L 22.5,28.1 L 25.0,29.7 L 27.5,31.5 L 30.0,33.6 L 32.5,35.7 L 35.0,38.1 L 37.5,40.5 L 40.0,43.0 L 42.5,45.6 L 45.0,48.2 L 47.5,50.9 L 50.0,53.5 L 52.5,56.1 L 55.0,58.7 L 57.5,61.1 L 60.0,63.5 L 62.5,65.7 L 65.0,67.8 L 67.5,69.7 L 70.0,71.4 L 72.5,72.9 L 75.0,74.2 L 77.5,75.3 L 80.0,76.1 L 82.5,76.6 L 85.0,76.9 L 87.5,77.0 L 90.0,76.8 L 92.5,76.3 L 95.0,75.6 L 97.5,74.6 L 100.0,73.4 L 102.5,71.9 L 105.0,70.3 L 107.5,68.5 L 110.0,66.4 L 112.5,64.3 L 115.0,61.9 L 117.5,59.5 L 120.0,57.0 L 122.5,54.4 L 125.0,51.8 L 127.5,49.1 L 130.0,46.5 L 132.5,43.9 L 135.0,41.3 L 137.5,38.9 L 140.0,36.5 L 142.5,34.3 L 145.0,32.2 L 147.5,30.3 L 150.0,28.6 L 152.5,27.1 L 155.0,25.8 L 157.5,24.7 L 160.0,23.9 L 162.5,23.4 L 165.0,23.1 L 167.5,23.0 L 170.0,23.2 L 172.5,23.7 L 175.0,24.4 L 177.5,25.4 L 180.0,26.6 L 182.5,28.1 L 185.0,29.7 L 187.5,31.5 L 190.0,33.6 L 192.5,35.7 L 195.0,38.1 L 197.5,40.5 L 200.0,43.0 L 202.5,45.6 L 205.0,48.2 L 207.5,50.9 L 210.0,53.5 L 212.5,56.1 L 215.0,58.7 L 217.5,61.1 L 220.0,63.5 L 222.5,65.7 L 225.0,67.8 L 227.5,69.7 L 230.0,71.4 L 232.5,72.9 L 235.0,74.2 L 237.5,75.3 L 240.0,76.1 L 242.5,76.6 L 245.0,76.9 L 247.5,77.0 L 250.0,76.8 L 252.5,76.3 L 255.0,75.6 L 257.5,74.6 L 260.0,73.4 L 262.5,71.9 L 265.0,70.3 L 267.5,68.5 L 270.0,66.4 L 272.5,64.3 L 275.0,61.9 L 277.5,59.5 L 280.0,57.0 L 282.5,54.4 L 285.0,51.8 L 287.5,49.1 L 290.0,46.5 L 292.5,43.9 L 295.0,41.3 L 297.5,38.9 L 300.0,36.5 L 302.5,34.3 L 305.0,32.2 L 307.5,30.3 L 310.0,28.6 L 312.5,27.1 L 315.0,25.8 L 317.5,24.7 L 320.0,23.9 L 322.5,23.4 L 325.0,23.1 L 327.5,23.0 L 330.0,23.2 L 332.5,23.7 L 335.0,24.4 L 337.5,25.4 L 340.0,26.6" fill="none" stroke="#8B0029" stroke-width="1.5" stroke-dasharray="6 3"/>
    <text x="345" y="54" font-size="12" fill="#2563EB" font-style="italic">y₁</text>
    <text x="345" y="31" font-size="12" fill="#8B0029" font-style="italic">y₂</text>
    <text x="375" y="55" font-size="24" font-weight="bold" fill="#6B7280">=</text>
  </g>
  <g transform="translate(420, 400)">
    <line x1="20" y1="50" x2="360" y2="50" stroke="#6B7280" stroke-width="1" stroke-dasharray="4 3"/>
    <path d="M 20.0,26.6 L 22.5,25.4 L 25.0,24.4 L 27.5,23.7 L 30.0,23.2 L 32.5,23.0 L 35.0,23.1 L 37.5,23.4 L 40.0,23.9 L 42.5,24.7 L 45.0,25.8 L 47.5,27.1 L 50.0,28.6 L 52.5,30.3 L 55.0,32.2 L 57.5,34.3 L 60.0,36.5 L 62.5,38.9 L 65.0,41.3 L 67.5,43.9 L 70.0,46.5 L 72.5,49.1 L 75.0,51.8 L 77.5,54.4 L 80.0,57.0 L 82.5,59.5 L 85.0,61.9 L 87.5,64.3 L 90.0,66.4 L 92.5,68.5 L 95.0,70.3 L 97.5,71.9 L 100.0,73.4 L 102.5,74.6 L 105.0,75.6 L 107.5,76.3 L 110.0,76.8 L 112.5,77.0 L 115.0,76.9 L 117.5,76.6 L 120.0,76.1 L 122.5,75.3 L 125.0,74.2 L 127.5,72.9 L 130.0,71.4 L 132.5,69.7 L 135.0,67.8 L 137.5,65.7 L 140.0,63.5 L 142.5,61.1 L 145.0,58.7 L 147.5,56.1 L 150.0,53.5 L 152.5,50.9 L 155.0,48.2 L 157.5,45.6 L 160.0,43.0 L 162.5,40.5 L 165.0,38.1 L 167.5,35.7 L 170.0,33.6 L 172.5,31.5 L 175.0,29.7 L 177.5,28.1 L 180.0,26.6 L 182.5,25.4 L 185.0,24.4 L 187.5,23.7 L 190.0,23.2 L 192.5,23.0 L 195.0,23.1 L 197.5,23.4 L 200.0,23.9 L 202.5,24.7 L 205.0,25.8 L 207.5,27.1 L 210.0,28.6 L 212.5,30.3 L 215.0,32.2 L 217.5,34.3 L 220.0,36.5 L 222.5,38.9 L 225.0,41.3 L 227.5,43.9 L 230.0,46.5 L 232.5,49.1 L 235.0,51.8 L 237.5,54.4 L 240.0,57.0 L 242.5,59.5 L 245.0,61.9 L 247.5,64.3 L 250.0,66.4 L 252.5,68.5 L 255.0,70.3 L 257.5,71.9 L 260.0,73.4 L 262.5,74.6 L 265.0,75.6 L 267.5,76.3 L 270.0,76.8 L 272.5,77.0 L 275.0,76.9 L 277.5,76.6 L 280.0,76.1 L 282.5,75.3 L 285.0,74.2 L 287.5,72.9 L 290.0,71.4 L 292.5,69.7 L 295.0,67.8 L 297.5,65.7 L 300.0,63.5 L 302.5,61.1 L 305.0,58.7 L 307.5,56.1 L 310.0,53.5 L 312.5,50.9 L 315.0,48.2 L 317.5,45.6 L 320.0,43.0 L 322.5,40.5 L 325.0,38.1 L 327.5,35.7 L 330.0,33.6 L 332.5,31.5 L 335.0,29.7 L 337.5,28.1 L 340.0,26.6" fill="none" stroke="#8B0029" stroke-width="2.5"/>
    <text x="180" y="15" text-anchor="middle" font-size="12" fill="#6B7280">φ = 2π/3 → 진폭 = yₘ</text>
  </g>
</svg>
