<svg xmlns="http://www.w3.org/2000/svg" viewBox="0 0 700 480" font-family="sans-serif">
  <defs>
    <marker id="cpR" markerWidth="10" markerHeight="7" refX="10" refY="3.5" orient="auto" fill="#8B0029"><polygon points="0 0, 10 3.5, 0 7"/></marker>
    <marker id="cpB" markerWidth="10" markerHeight="7" refX="10" refY="3.5" orient="auto" fill="#2563EB"><polygon points="0 0, 10 3.5, 0 7"/></marker>
    <marker id="cpG" markerWidth="10" markerHeight="7" refX="10" refY="3.5" orient="auto" fill="#6B7280"><polygon points="0 0, 10 3.5, 0 7"/></marker>
    <marker id="cpK" markerWidth="10" markerHeight="7" refX="10" refY="3.5" orient="auto" fill="#1a1a1a"><polygon points="0 0, 10 3.5, 0 7"/></marker>
  </defs>
  <line x1="80" y1="400" x2="650" y2="400" stroke="#6B7280" stroke-width="2" marker-end="url(#cpG)"/><line x1="80" y1="400" x2="80" y2="30" stroke="#6B7280" stroke-width="2" marker-end="url(#cpG)"/><text x="650" y="425" text-anchor="middle" font-size="15" fill="#6B7280" font-style="italic">V</text><text x="55" y="40" text-anchor="middle" font-size="15" fill="#6B7280" font-style="italic">p</text><text x="80" y="425" text-anchor="middle" font-size="13" fill="#6B7280">0</text>
  <path d="M 137.0,183.9 L 139.0,186.5 L 141.0,189.1 L 143.0,191.7 L 145.0,194.2 L 147.0,196.6 L 149.0,199.0 L 151.0,201.4 L 153.0,203.7 L 155.0,206.0 L 156.9,208.2 L 158.9,210.4 L 160.9,212.6 L 162.9,214.7 L 164.9,216.8 L 166.9,218.8 L 168.9,220.8 L 170.9,222.8 L 172.9,224.7 L 174.9,226.6 L 176.9,228.5 L 178.9,230.3 L 180.9,232.1 L 182.9,233.9 L 184.9,235.7 L 186.9,237.4 L 188.9,239.1 L 190.9,240.8 L 192.9,242.4 L 194.9,244.1 L 196.8,245.6 L 198.8,247.2 L 200.8,248.8 L 202.8,250.3 L 204.8,251.8 L 206.8,253.3 L 208.8,254.7 L 210.8,256.2 L 212.8,257.6 L 214.8,259.0 L 216.8,260.4 L 218.8,261.7 L 220.8,263.0 L 222.8,264.4 L 224.8,265.7 L 226.8,266.9 L 228.8,268.2 L 230.8,269.5 L 232.8,270.7 L 234.8,271.9 L 236.7,273.1 L 238.7,274.3 L 240.7,275.4 L 242.7,276.6 L 244.7,277.7 L 246.7,278.9 L 248.7,280.0 L 250.7,281.1 L 252.7,282.1 L 254.7,283.2 L 256.7,284.2 L 258.7,285.3 L 260.7,286.3 L 262.7,287.3 L 264.7,288.3 L 266.7,289.3 L 268.7,290.3 L 270.7,291.3 L 272.7,292.2 L 274.7,293.2 L 276.6,294.1 L 278.6,295.0 L 280.6,295.9 L 282.6,296.8 L 284.6,297.7 L 286.6,298.6 L 288.6,299.5 L 290.6,300.3 L 292.6,301.2 L 294.6,302.0 L 296.6,302.8 L 298.6,303.7 L 300.6,304.5 L 302.6,305.3 L 304.6,306.1 L 306.6,306.9 L 308.6,307.6 L 310.6,308.4 L 312.6,309.2 L 314.6,309.9 L 316.5,310.7 L 318.5,311.4 L 320.5,312.1 L 322.5,312.9 L 324.5,313.6 L 326.5,314.3 L 328.5,315.0 L 330.5,315.7 L 332.5,316.4 L 334.5,317.0 L 336.5,317.7 L 336.5,317.7 L 339.5,319.1 L 342.5,320.5 L 345.4,321.8 L 348.4,323.1 L 351.4,324.4 L 354.4,325.7 L 357.4,326.9 L 360.3,328.1 L 363.3,329.4 L 366.3,330.5 L 369.3,331.7 L 372.3,332.9 L 375.2,334.0 L 378.2,335.1 L 381.2,336.2 L 384.2,337.3 L 387.2,338.3 L 390.1,339.4 L 393.1,340.4 L 396.1,341.4 L 399.1,342.4 L 402.1,343.4 L 405.0,344.3 L 408.0,345.3 L 411.0,346.2 L 414.0,347.1 L 417.0,348.1 L 419.9,348.9 L 422.9,349.8 L 425.9,350.7 L 428.9,351.5 L 431.9,352.4 L 434.8,353.2 L 437.8,354.0 L 440.8,354.8 L 443.8,355.6 L 446.8,356.4 L 449.7,357.2 L 452.7,358.0 L 455.7,358.7 L 458.7,359.5 L 461.7,360.2 L 464.7,360.9 L 467.6,361.6 L 470.6,362.3 L 473.6,363.0 L 476.6,363.7 L 479.6,364.4 L 482.5,365.0 L 485.5,365.7 L 488.5,366.4 L 491.5,367.0 L 494.5,367.6 L 497.4,368.3 L 500.4,368.9 L 503.4,369.5 L 506.4,370.1 L 509.4,370.7 L 512.3,371.3 L 515.3,371.8 L 518.3,372.4 L 521.3,373.0 L 524.3,373.5 L 527.2,374.1 L 530.2,374.6 L 533.2,375.2 L 536.2,375.7 L 539.2,376.2 L 542.1,376.7 L 545.1,377.3 L 548.1,377.8 L 551.1,378.3 L 554.1,378.8 L 557.0,379.2 L 560.0,379.7 L 563.0,380.2 L 566.0,380.7 L 569.0,381.1 L 571.9,381.6 L 574.9,382.1 L 577.9,382.5 L 580.9,383.0 L 583.9,383.4 L 586.8,383.8 L 589.8,384.3 L 592.8,384.7 L 595.8,385.1 L 598.8,385.5 L 601.7,386.0 L 604.7,386.4 L 607.7,386.8 L 610.7,387.2 L 613.7,387.6 L 616.6,388.0 L 619.6,388.4 L 622.6,388.7 L 625.6,389.1 L 628.6,389.5 L 631.5,389.9 L 634.5,390.2 L 634.5,390.2 L 631.0,389.9 L 627.6,389.6 L 624.1,389.3 L 620.6,389.0 L 617.1,388.7 L 613.6,388.3 L 610.1,388.0 L 606.6,387.7 L 603.2,387.4 L 599.7,387.0 L 596.2,386.7 L 592.7,386.3 L 589.2,386.0 L 585.7,385.6 L 582.2,385.3 L 578.8,384.9 L 575.3,384.5 L 571.8,384.2 L 568.3,383.8 L 564.8,383.4 L 561.3,383.0 L 557.9,382.7 L 554.4,382.3 L 550.9,381.9 L 547.4,381.5 L 543.9,381.1 L 540.4,380.7 L 536.9,380.3 L 533.5,379.8 L 530.0,379.4 L 526.5,379.0 L 523.0,378.6 L 519.5,378.1 L 516.0,377.7 L 512.5,377.2 L 509.1,376.8 L 505.6,376.3 L 502.1,375.9 L 498.6,375.4 L 495.1,374.9 L 491.6,374.4 L 488.1,373.9 L 484.7,373.5 L 481.2,373.0 L 477.7,372.4 L 474.2,371.9 L 470.7,371.4 L 467.2,370.9 L 463.8,370.4 L 460.3,369.8 L 456.8,369.3 L 453.3,368.7 L 449.8,368.1 L 446.3,367.6 L 442.8,367.0 L 439.4,366.4 L 435.9,365.8 L 432.4,365.2 L 428.9,364.6 L 425.4,364.0 L 421.9,363.3 L 418.4,362.7 L 415.0,362.1 L 411.5,361.4 L 408.0,360.7 L 404.5,360.1 L 401.0,359.4 L 397.5,358.7 L 394.1,358.0 L 390.6,357.2 L 387.1,356.5 L 383.6,355.8 L 380.1,355.0 L 376.6,354.2 L 373.1,353.5 L 369.7,352.7 L 366.2,351.9 L 362.7,351.1 L 359.2,350.2 L 355.7,349.4 L 352.2,348.5 L 348.7,347.7 L 345.3,346.8 L 341.8,345.9 L 338.3,344.9 L 334.8,344.0 L 331.3,343.1 L 327.8,342.1 L 324.3,341.1 L 320.9,340.1 L 317.4,339.1 L 313.9,338.0 L 310.4,337.0 L 306.9,335.9 L 303.4,334.8 L 300.0,333.7 L 296.5,332.5 L 293.0,331.4 L 289.5,330.2 L 286.0,329.0 L 286.0,329.0 L 284.5,328.2 L 283.0,327.5 L 281.5,326.7 L 280.1,326.0 L 278.6,325.2 L 277.1,324.4 L 275.6,323.6 L 274.1,322.8 L 272.6,322.0 L 271.1,321.2 L 269.6,320.4 L 268.1,319.6 L 266.6,318.7 L 265.2,317.9 L 263.7,317.0 L 262.2,316.2 L 260.7,315.3 L 259.2,314.4 L 257.7,313.5 L 256.2,312.6 L 254.7,311.7 L 253.2,310.8 L 251.7,309.8 L 250.2,308.9 L 248.8,307.9 L 247.3,307.0 L 245.8,306.0 L 244.3,305.0 L 242.8,304.0 L 241.3,303.0 L 239.8,302.0 L 238.3,300.9 L 236.8,299.9 L 235.3,298.8 L 233.9,297.7 L 232.4,296.6 L 230.9,295.5 L 229.4,294.4 L 227.9,293.3 L 226.4,292.2 L 224.9,291.0 L 223.4,289.8 L 221.9,288.6 L 220.4,287.4 L 219.0,286.2 L 217.5,285.0 L 216.0,283.7 L 214.5,282.5 L 213.0,281.2 L 211.5,279.9 L 210.0,278.6 L 208.5,277.2 L 207.0,275.9 L 205.5,274.5 L 204.1,273.1 L 202.6,271.7 L 201.1,270.3 L 199.6,268.9 L 198.1,267.4 L 196.6,265.9 L 195.1,264.4 L 193.6,262.9 L 192.1,261.3 L 190.6,259.8 L 189.2,258.2 L 187.7,256.6 L 186.2,254.9 L 184.7,253.3 L 183.2,251.6 L 181.7,249.9 L 180.2,248.1 L 178.7,246.4 L 177.2,244.6 L 175.7,242.8 L 174.3,240.9 L 172.8,239.1 L 171.3,237.2 L 169.8,235.2 L 168.3,233.3 L 166.8,231.3 L 165.3,229.3 L 163.8,227.2 L 162.3,225.1 L 160.8,223.0 L 159.4,220.9 L 157.9,218.7 L 156.4,216.5 L 154.9,214.2 L 153.4,211.9 L 151.9,209.6 L 150.4,207.2 L 148.9,204.8 L 147.4,202.3 L 145.9,199.8 L 144.5,197.3 L 143.0,194.7 L 141.5,192.1 L 140.0,189.4 L 138.5,186.7 L 137.0,183.9" fill="#8B0029" fill-opacity="0.08"/>
  <path d="M 137.0,183.9 L 139.0,186.5 L 141.0,189.1 L 143.0,191.7 L 145.0,194.2 L 147.0,196.6 L 149.0,199.0 L 151.0,201.4 L 153.0,203.7 L 155.0,206.0 L 156.9,208.2 L 158.9,210.4 L 160.9,212.6 L 162.9,214.7 L 164.9,216.8 L 166.9,218.8 L 168.9,220.8 L 170.9,222.8 L 172.9,224.7 L 174.9,226.6 L 176.9,228.5 L 178.9,230.3 L 180.9,232.1 L 182.9,233.9 L 184.9,235.7 L 186.9,237.4 L 188.9,239.1 L 190.9,240.8 L 192.9,242.4 L 194.9,244.1 L 196.8,245.6 L 198.8,247.2 L 200.8,248.8 L 202.8,250.3 L 204.8,251.8 L 206.8,253.3 L 208.8,254.7 L 210.8,256.2 L 212.8,257.6 L 214.8,259.0 L 216.8,260.4 L 218.8,261.7 L 220.8,263.0 L 222.8,264.4 L 224.8,265.7 L 226.8,266.9 L 228.8,268.2 L 230.8,269.5 L 232.8,270.7 L 234.8,271.9 L 236.7,273.1 L 238.7,274.3 L 240.7,275.4 L 242.7,276.6 L 244.7,277.7 L 246.7,278.9 L 248.7,280.0 L 250.7,281.1 L 252.7,282.1 L 254.7,283.2 L 256.7,284.2 L 258.7,285.3 L 260.7,286.3 L 262.7,287.3 L 264.7,288.3 L 266.7,289.3 L 268.7,290.3 L 270.7,291.3 L 272.7,292.2 L 274.7,293.2 L 276.6,294.1 L 278.6,295.0 L 280.6,295.9 L 282.6,296.8 L 284.6,297.7 L 286.6,298.6 L 288.6,299.5 L 290.6,300.3 L 292.6,301.2 L 294.6,302.0 L 296.6,302.8 L 298.6,303.7 L 300.6,304.5 L 302.6,305.3 L 304.6,306.1 L 306.6,306.9 L 308.6,307.6 L 310.6,308.4 L 312.6,309.2 L 314.6,309.9 L 316.5,310.7 L 318.5,311.4 L 320.5,312.1 L 322.5,312.9 L 324.5,313.6 L 326.5,314.3 L 328.5,315.0 L 330.5,315.7 L 332.5,316.4 L 334.5,317.0 L 336.5,317.7" fill="none" stroke="#8B0029" stroke-width="2.5"/><line x1="226.8" y1="266.9" x2="246.7" y2="278.9" stroke="#8B0029" stroke-width="2.5" marker-end="url(#cpR)"/>
  <path d="M 336.5,317.7 L 339.5,319.1 L 342.5,320.5 L 345.4,321.8 L 348.4,323.1 L 351.4,324.4 L 354.4,325.7 L 357.4,326.9 L 360.3,328.1 L 363.3,329.4 L 366.3,330.5 L 369.3,331.7 L 372.3,332.9 L 375.2,334.0 L 378.2,335.1 L 381.2,336.2 L 384.2,337.3 L 387.2,338.3 L 390.1,339.4 L 393.1,340.4 L 396.1,341.4 L 399.1,342.4 L 402.1,343.4 L 405.0,344.3 L 408.0,345.3 L 411.0,346.2 L 414.0,347.1 L 417.0,348.1 L 419.9,348.9 L 422.9,349.8 L 425.9,350.7 L 428.9,351.5 L 431.9,352.4 L 434.8,353.2 L 437.8,354.0 L 440.8,354.8 L 443.8,355.6 L 446.8,356.4 L 449.7,357.2 L 452.7,358.0 L 455.7,358.7 L 458.7,359.5 L 461.7,360.2 L 464.7,360.9 L 467.6,361.6 L 470.6,362.3 L 473.6,363.0 L 476.6,363.7 L 479.6,364.4 L 482.5,365.0 L 485.5,365.7 L 488.5,366.4 L 491.5,367.0 L 494.5,367.6 L 497.4,368.3 L 500.4,368.9 L 503.4,369.5 L 506.4,370.1 L 509.4,370.7 L 512.3,371.3 L 515.3,371.8 L 518.3,372.4 L 521.3,373.0 L 524.3,373.5 L 527.2,374.1 L 530.2,374.6 L 533.2,375.2 L 536.2,375.7 L 539.2,376.2 L 542.1,376.7 L 545.1,377.3 L 548.1,377.8 L 551.1,378.3 L 554.1,378.8 L 557.0,379.2 L 560.0,379.7 L 563.0,380.2 L 566.0,380.7 L 569.0,381.1 L 571.9,381.6 L 574.9,382.1 L 577.9,382.5 L 580.9,383.0 L 583.9,383.4 L 586.8,383.8 L 589.8,384.3 L 592.8,384.7 L 595.8,385.1 L 598.8,385.5 L 601.7,386.0 L 604.7,386.4 L 607.7,386.8 L 610.7,387.2 L 613.7,387.6 L 616.6,388.0 L 619.6,388.4 L 622.6,388.7 L 625.6,389.1 L 628.6,389.5 L 631.5,389.9 L 634.5,390.2" fill="none" stroke="#6B7280" stroke-width="2.5"/><line x1="470.6" y1="362.3" x2="500.4" y2="368.9" stroke="#6B7280" stroke-width="2.5" marker-end="url(#cpG)"/>
  <path d="M 634.5,390.2 L 631.0,389.9 L 627.6,389.6 L 624.1,389.3 L 620.6,389.0 L 617.1,388.7 L 613.6,388.3 L 610.1,388.0 L 606.6,387.7 L 603.2,387.4 L 599.7,387.0 L 596.2,386.7 L 592.7,386.3 L 589.2,386.0 L 585.7,385.6 L 582.2,385.3 L 578.8,384.9 L 575.3,384.5 L 571.8,384.2 L 568.3,383.8 L 564.8,383.4 L 561.3,383.0 L 557.9,382.7 L 554.4,382.3 L 550.9,381.9 L 547.4,381.5 L 543.9,381.1 L 540.4,380.7 L 536.9,380.3 L 533.5,379.8 L 530.0,379.4 L 526.5,379.0 L 523.0,378.6 L 519.5,378.1 L 516.0,377.7 L 512.5,377.2 L 509.1,376.8 L 505.6,376.3 L 502.1,375.9 L 498.6,375.4 L 495.1,374.9 L 491.6,374.4 L 488.1,373.9 L 484.7,373.5 L 481.2,373.0 L 477.7,372.4 L 474.2,371.9 L 470.7,371.4 L 467.2,370.9 L 463.8,370.4 L 460.3,369.8 L 456.8,369.3 L 453.3,368.7 L 449.8,368.1 L 446.3,367.6 L 442.8,367.0 L 439.4,366.4 L 435.9,365.8 L 432.4,365.2 L 428.9,364.6 L 425.4,364.0 L 421.9,363.3 L 418.4,362.7 L 415.0,362.1 L 411.5,361.4 L 408.0,360.7 L 404.5,360.1 L 401.0,359.4 L 397.5,358.7 L 394.1,358.0 L 390.6,357.2 L 387.1,356.5 L 383.6,355.8 L 380.1,355.0 L 376.6,354.2 L 373.1,353.5 L 369.7,352.7 L 366.2,351.9 L 362.7,351.1 L 359.2,350.2 L 355.7,349.4 L 352.2,348.5 L 348.7,347.7 L 345.3,346.8 L 341.8,345.9 L 338.3,344.9 L 334.8,344.0 L 331.3,343.1 L 327.8,342.1 L 324.3,341.1 L 320.9,340.1 L 317.4,339.1 L 313.9,338.0 L 310.4,337.0 L 306.9,335.9 L 303.4,334.8 L 300.0,333.7 L 296.5,332.5 L 293.0,331.4 L 289.5,330.2 L 286.0,329.0" fill="none" stroke="#2563EB" stroke-width="2.5"/><line x1="477.7" y1="372.4" x2="442.8" y2="367.0" stroke="#2563EB" stroke-width="2.5" marker-end="url(#cpB)"/>
  <path d="M 286.0,329.0 L 284.5,328.2 L 283.0,327.5 L 281.5,326.7 L 280.1,326.0 L 278.6,325.2 L 277.1,324.4 L 275.6,323.6 L 274.1,322.8 L 272.6,322.0 L 271.1,321.2 L 269.6,320.4 L 268.1,319.6 L 266.6,318.7 L 265.2,317.9 L 263.7,317.0 L 262.2,316.2 L 260.7,315.3 L 259.2,314.4 L 257.7,313.5 L 256.2,312.6 L 254.7,311.7 L 253.2,310.8 L 251.7,309.8 L 250.2,308.9 L 248.8,307.9 L 247.3,307.0 L 245.8,306.0 L 244.3,305.0 L 242.8,304.0 L 241.3,303.0 L 239.8,302.0 L 238.3,300.9 L 236.8,299.9 L 235.3,298.8 L 233.9,297.7 L 232.4,296.6 L 230.9,295.5 L 229.4,294.4 L 227.9,293.3 L 226.4,292.2 L 224.9,291.0 L 223.4,289.8 L 221.9,288.6 L 220.4,287.4 L 219.0,286.2 L 217.5,285.0 L 216.0,283.7 L 214.5,282.5 L 213.0,281.2 L 211.5,279.9 L 210.0,278.6 L 208.5,277.2 L 207.0,275.9 L 205.5,274.5 L 204.1,273.1 L 202.6,271.7 L 201.1,270.3 L 199.6,268.9 L 198.1,267.4 L 196.6,265.9 L 195.1,264.4 L 193.6,262.9 L 192.1,261.3 L 190.6,259.8 L 189.2,258.2 L 187.7,256.6 L 186.2,254.9 L 184.7,253.3 L 183.2,251.6 L 181.7,249.9 L 180.2,248.1 L 178.7,246.4 L 177.2,244.6 L 175.7,242.8 L 174.3,240.9 L 172.8,239.1 L 171.3,237.2 L 169.8,235.2 L 168.3,233.3 L 166.8,231.3 L 165.3,229.3 L 163.8,227.2 L 162.3,225.1 L 160.8,223.0 L 159.4,220.9 L 157.9,218.7 L 156.4,216.5 L 154.9,214.2 L 153.4,211.9 L 151.9,209.6 L 150.4,207.2 L 148.9,204.8 L 147.4,202.3 L 145.9,199.8 L 144.5,197.3 L 143.0,194.7 L 141.5,192.1 L 140.0,189.4 L 138.5,186.7 L 137.0,183.9" fill="none" stroke="#6B7280" stroke-width="2.5"/><line x1="219.0" y1="286.2" x2="204.1" y2="273.1" stroke="#6B7280" stroke-width="2.5" marker-end="url(#cpG)"/>
  <circle cx="137.0" cy="183.9" r="5" fill="#8B0029"/><text x="122.0" y="171.9" text-anchor="middle" font-size="16" font-weight="bold" fill="#8B0029" font-style="italic">a</text><circle cx="336.5" cy="317.7" r="5" fill="#8B0029"/><text x="351.5" y="305.7" text-anchor="start" font-size="16" font-weight="bold" fill="#8B0029" font-style="italic">b</text><circle cx="634.5" cy="390.2" r="5" fill="#2563EB"/><text x="649.5" y="390.2" text-anchor="start" font-size="16" font-weight="bold" fill="#2563EB" font-style="italic">c</text><circle cx="286.0" cy="329.0" r="5" fill="#2563EB"/><text x="271.0" y="349.0" text-anchor="end" font-size="16" font-weight="bold" fill="#2563EB" font-style="italic">d</text>
  <text x="320" y="75" text-anchor="middle" font-size="14" font-weight="bold" fill="#8B0029">등온팽창</text><text x="320" y="92" text-anchor="middle" font-size="13" fill="#8B0029" font-style="italic">T<tspan baseline-shift="sub" font-size="10">H</tspan></text><text x="380" y="345" text-anchor="middle" font-size="14" font-weight="bold" fill="#2563EB">등온압축</text><text x="380" y="362" text-anchor="middle" font-size="13" fill="#2563EB" font-style="italic">T<tspan baseline-shift="sub" font-size="10">L</tspan></text><text x="540" y="210" text-anchor="start" font-size="13" fill="#6B7280">단열팽창</text><text x="540" y="226" text-anchor="start" font-size="12" fill="#6B7280" font-style="italic">Q = 0</text><text x="120" y="210" text-anchor="end" font-size="13" fill="#6B7280">단열압축</text><text x="120" y="226" text-anchor="end" font-size="12" fill="#6B7280" font-style="italic">Q = 0</text>
  <text x="340" y="230" text-anchor="middle" font-size="16" font-weight="bold" fill="#8B0029" font-style="italic">W</text><text x="340" y="248" text-anchor="middle" font-size="12" fill="#6B7280">(알짜 일)</text><line x1="280" y1="42" x2="280" y2="62" stroke="#8B0029" stroke-width="2.5" marker-end="url(#cpR)"/><text x="290" y="50" text-anchor="start" font-size="13" fill="#8B0029" font-style="italic">|Q<tspan baseline-shift="sub" font-size="10">H</tspan>| 흡수</text><line x1="390" y1="380" x2="390" y2="393" stroke="#2563EB" stroke-width="2" marker-end="url(#cpB)"/><text x="390" y="410" text-anchor="middle" font-size="13" fill="#2563EB" font-style="italic">|Q<tspan baseline-shift="sub" font-size="10">L</tspan>| 방출</text><text x="375" y="460" text-anchor="middle" font-size="15" font-weight="bold" fill="#8B0029">ε = W/|Q<tspan baseline-shift="sub" font-size="11">H</tspan>| = 1 − T<tspan baseline-shift="sub" font-size="11">L</tspan>/T<tspan baseline-shift="sub" font-size="11">H</tspan></text>
</svg>
