<svg xmlns="http://www.w3.org/2000/svg" viewBox="0 0 700 450" font-family="sans-serif">
  <defs>
    <marker id="ar-red" markerWidth="10" markerHeight="7" refX="9" refY="3.5" orient="auto">
      <polygon points="0 0, 10 3.5, 0 7" fill="#8B0029"/>
    </marker>
    <marker id="ar-blue" markerWidth="10" markerHeight="7" refX="9" refY="3.5" orient="auto">
      <polygon points="0 0, 10 3.5, 0 7" fill="#2563EB"/>
    </marker>
    <marker id="ar-gray" markerWidth="8" markerHeight="6" refX="7" refY="3" orient="auto">
      <polygon points="0 0, 8 3, 0 6" fill="#6B7280"/>
    </marker>
  </defs>

  <!-- Incline surface -->
  <polygon points="60,390 560,390 560,170" fill="#F3F4F6" stroke="#6B7280" stroke-width="2"/>

  <!-- Hatching on ground -->
  <line x1="60" y1="396" x2="50" y2="406" stroke="#6B7280" stroke-width="1"/>
  <line x1="100" y1="396" x2="90" y2="406" stroke="#6B7280" stroke-width="1"/>
  <line x1="140" y1="396" x2="130" y2="406" stroke="#6B7280" stroke-width="1"/>
  <line x1="180" y1="396" x2="170" y2="406" stroke="#6B7280" stroke-width="1"/>
  <line x1="220" y1="396" x2="210" y2="406" stroke="#6B7280" stroke-width="1"/>
  <line x1="260" y1="396" x2="250" y2="406" stroke="#6B7280" stroke-width="1"/>
  <line x1="300" y1="396" x2="290" y2="406" stroke="#6B7280" stroke-width="1"/>
  <line x1="340" y1="396" x2="330" y2="406" stroke="#6B7280" stroke-width="1"/>
  <line x1="380" y1="396" x2="370" y2="406" stroke="#6B7280" stroke-width="1"/>
  <line x1="420" y1="396" x2="410" y2="406" stroke="#6B7280" stroke-width="1"/>
  <line x1="460" y1="396" x2="450" y2="406" stroke="#6B7280" stroke-width="1"/>
  <line x1="500" y1="396" x2="490" y2="406" stroke="#6B7280" stroke-width="1"/>
  <line x1="540" y1="396" x2="530" y2="406" stroke="#6B7280" stroke-width="1"/>

  <!-- Angle arc -->
  <path d="M 510 390 A 50 50 0 0 0 546 362" fill="none" stroke="#6B7280" stroke-width="1"/>
  <text x="518" y="372" font-size="14" fill="#6B7280" font-style="italic">θ</text>

  <!-- Block on incline (rotated ~24 degrees) -->
  <g transform="translate(380,275) rotate(-23.6)">
    <rect x="-28" y="-28" width="56" height="56" fill="#F3F4F6" stroke="#1a1a1a" stroke-width="2" rx="3"/>
    <text x="0" y="5" font-size="14" fill="#1a1a1a" text-anchor="middle" font-weight="bold" font-style="italic">m</text>
  </g>

  <!-- Weight (mg) - straight down -->
  <line x1="380" y1="277" x2="380" y2="390" stroke="#8B0029" stroke-width="2.5" marker-end="url(#ar-red)"/>
  <text x="393" y="383" font-size="14" fill="#8B0029" font-weight="bold" font-style="italic">mg</text>

  <!-- Normal force (perpendicular to incline surface) -->
  <!-- Slope angle ~23.6 deg. Normal direction: (-sin23.6, -cos23.6) ≈ (-0.4, -0.92) -->
  <line x1="380" y1="275" x2="340" y2="180" stroke="#2563EB" stroke-width="2.5" marker-end="url(#ar-blue)"/>
  <text x="322" y="175" font-size="14" fill="#2563EB" font-weight="bold" font-style="italic">N</text>

  <!-- Friction force (up along the incline) -->
  <!-- Along-incline up direction: (-cos23.6, sin23.6) ≈ (-0.916, -0.4) -->
  <line x1="380" y1="275" x2="300" y2="310" stroke="#8B0029" stroke-width="2.5" marker-end="url(#ar-red)"/>
  <text x="282" y="322" font-size="14" fill="#8B0029" font-weight="bold" font-style="italic">f</text>

  <!-- mg sin θ component (along incline, downhill) -->
  <line x1="380" y1="277" x2="455" y2="245" stroke="#6B7280" stroke-width="1" stroke-dasharray="4 3" marker-end="url(#ar-gray)"/>
  <text x="462" y="238" font-size="14" fill="#6B7280" font-style="italic">mg sin θ</text>

  <!-- mg cos θ component (into surface) -->
  <line x1="380" y1="277" x2="418" y2="360" stroke="#6B7280" stroke-width="1" stroke-dasharray="4 3" marker-end="url(#ar-gray)"/>
  <text x="428" y="348" font-size="14" fill="#6B7280" font-style="italic">mg cos θ</text>

  <!-- Tilted coordinate axes -->
  <g transform="translate(120,145)">
    <line x1="0" y1="0" x2="55" y2="-24" stroke="#6B7280" stroke-width="1" marker-end="url(#ar-gray)"/>
    <text x="62" y="-20" font-size="14" fill="#6B7280" font-style="italic">x</text>
    <line x1="0" y1="0" x2="-24" y2="-55" stroke="#6B7280" stroke-width="1" marker-end="url(#ar-gray)"/>
    <text x="-32" y="-52" font-size="14" fill="#6B7280" font-style="italic">y</text>
  </g>

  <!-- Equations on right side -->
  <text x="620" y="220" font-size="14" fill="#1a1a1a" text-anchor="middle">x: mg sin θ − f = ma</text>
  <text x="620" y="245" font-size="14" fill="#1a1a1a" text-anchor="middle">y: N − mg cos θ = 0</text>
</svg>