<svg xmlns="http://www.w3.org/2000/svg" viewBox="0 0 700 450" font-family="sans-serif">
  <defs>
    <marker id="ifR" markerWidth="10" markerHeight="7" refX="10" refY="3.5" orient="auto"><polygon points="0 0, 10 3.5, 0 7" fill="#8B0029"/></marker>
    <marker id="ifB" markerWidth="10" markerHeight="7" refX="10" refY="3.5" orient="auto"><polygon points="0 0, 10 3.5, 0 7" fill="#2563EB"/></marker>
    <marker id="ifG" markerWidth="10" markerHeight="7" refX="10" refY="3.5" orient="auto"><polygon points="0 0, 10 3.5, 0 7" fill="#6B7280"/></marker>
  </defs>
  <rect width="100%" height="100%" fill="white"/>
  <polygon points="60,390 560,390 560,170" fill="#F3F4F6" stroke="#6B7280" stroke-width="2"/>
  <line x1="60" y1="396" x2="50" y2="406" stroke="#6B7280" stroke-width="1" fill="none"/>
  <line x1="100" y1="396" x2="90" y2="406" stroke="#6B7280" stroke-width="1" fill="none"/>
  <line x1="140" y1="396" x2="130" y2="406" stroke="#6B7280" stroke-width="1" fill="none"/>
  <line x1="180" y1="396" x2="170" y2="406" stroke="#6B7280" stroke-width="1" fill="none"/>
  <line x1="220" y1="396" x2="210" y2="406" stroke="#6B7280" stroke-width="1" fill="none"/>
  <line x1="260" y1="396" x2="250" y2="406" stroke="#6B7280" stroke-width="1" fill="none"/>
  <line x1="300" y1="396" x2="290" y2="406" stroke="#6B7280" stroke-width="1" fill="none"/>
  <line x1="340" y1="396" x2="330" y2="406" stroke="#6B7280" stroke-width="1" fill="none"/>
  <line x1="380" y1="396" x2="370" y2="406" stroke="#6B7280" stroke-width="1" fill="none"/>
  <line x1="420" y1="396" x2="410" y2="406" stroke="#6B7280" stroke-width="1" fill="none"/>
  <line x1="460" y1="396" x2="450" y2="406" stroke="#6B7280" stroke-width="1" fill="none"/>
  <line x1="500" y1="396" x2="490" y2="406" stroke="#6B7280" stroke-width="1" fill="none"/>
  <line x1="540" y1="396" x2="530" y2="406" stroke="#6B7280" stroke-width="1" fill="none"/>
  <text x="495.4" y="381.4" font-size="14" fill="#6B7280" text-anchor="middle" font-weight="bold" font-style="italic">θ</text>
  <g transform="translate(380,275) rotate(-23.7)">
  <rect x="-28" y="-28" width="56" height="56" rx="3" fill="#F3F4F6" stroke="#1a1a1a" stroke-width="2"/>
  <text x="0" y="5" font-size="14" fill="#1a1a1a" text-anchor="middle" font-weight="bold" font-style="italic">m</text>
  </g>
  <line x1="380" y1="277" x2="380" y2="390" stroke="#8B0029" stroke-width="2.5" fill="none" marker-end="url(#ifR)"/>
  <text x="393" y="383" font-size="14" fill="#8B0029" font-weight="bold" font-style="italic">mg</text>
  <line x1="380" y1="275" x2="338.5" y2="180.7" stroke="#2563EB" stroke-width="2.5" fill="none" marker-end="url(#ifB)"/>
  <text x="322" y="175" font-size="14" fill="#2563EB" font-weight="bold" font-style="italic">N</text>
  <line x1="380" y1="275" x2="299.5" y2="310.4" stroke="#8B0029" stroke-width="2.5" fill="none" marker-end="url(#ifR)"/>
  <text x="282" y="322" font-size="14" fill="#8B0029" font-weight="bold" font-style="italic">f</text>
  <line x1="380" y1="277" x2="455.1" y2="244" stroke="#6B7280" stroke-width="1" fill="none" marker-end="url(#ifG)" stroke-dasharray="4 3"/>
  <text x="462" y="238" font-size="14" fill="#6B7280" font-style="italic">mg sin θ</text>
  <line x1="380" y1="277" x2="417.1" y2="361.2" stroke="#6B7280" stroke-width="1" fill="none" marker-end="url(#ifG)" stroke-dasharray="4 3"/>
  <text x="428" y="348" font-size="14" fill="#6B7280" font-style="italic">mg cos θ</text>
  <line x1="120" y1="145" x2="174.9" y2="120.8" stroke="#6B7280" stroke-width="1" fill="none" marker-end="url(#ifG)"/>
  <text x="184.1" y="116.8" font-size="14" fill="#6B7280" font-style="italic">x</text>
  <line x1="120" y1="145" x2="95.8" y2="90.1" stroke="#6B7280" stroke-width="1" fill="none" marker-end="url(#ifG)"/>
  <text x="91.8" y="80.9" font-size="14" fill="#6B7280" font-style="italic">y</text>
  <text x="620" y="220" font-size="14" fill="#1a1a1a" text-anchor="middle">x: mg sin θ − f = ma</text>
  <text x="620" y="245" font-size="14" fill="#1a1a1a" text-anchor="middle">y: N − mg cos θ = 0</text>
</svg>
