<svg xmlns="http://www.w3.org/2000/svg" viewBox="0 0 700 440" font-family="sans-serif">
  <defs>
    <marker id="lmR" markerWidth="10" markerHeight="7" refX="10" refY="3.5" orient="auto"><polygon points="0 0, 10 3.5, 0 7" fill="#8B0029"/></marker>
    <marker id="lmB" markerWidth="10" markerHeight="7" refX="10" refY="3.5" orient="auto"><polygon points="0 0, 10 3.5, 0 7" fill="#2563EB"/></marker>
    <marker id="lmG" markerWidth="10" markerHeight="7" refX="10" refY="3.5" orient="auto"><polygon points="0 0, 10 3.5, 0 7" fill="#6B7280"/></marker>
  </defs>
  <rect width="100%" height="100%" fill="white"/>
  <line x1="400" y1="40" x2="400" y2="400" stroke="#6B7280" stroke-width="1.5" fill="none" stroke-dasharray="5 4"/>
  <line x1="160" y1="300" x2="395" y2="300" stroke="#2563EB" stroke-width="2" fill="none" stroke-dasharray="6 3"/>
  <rect x="388" y="288" width="12" height="12" fill="none" stroke="#2563EB" stroke-width="1.5"/>
  <text x="280" y="325" font-size="18" fill="#2563EB" text-anchor="middle" font-weight="bold" font-style="italic">r sin φ</text>
  <line x1="160" y1="300" x2="392" y2="166" stroke="#2563EB" stroke-width="3" fill="none" marker-end="url(#lmB)"/>
  <text x="262" y="252" font-size="26" fill="#2563EB" font-weight="bold" font-style="italic">r</text>
  <circle cx="160" cy="300" r="6" fill="#1a1a1a" stroke="#1a1a1a" stroke-width="0"/>
  <text x="145" y="325" font-size="22" fill="#1a1a1a" font-weight="bold">O</text>
  <circle cx="95" cy="220" r="18" fill="none" stroke="#8B0029" stroke-width="2.5"/>
  <circle cx="95" cy="220" r="5" fill="#8B0029" stroke="#8B0029" stroke-width="0"/>
  <text x="69" y="226" font-size="24" fill="#8B0029" text-anchor="end" font-weight="bold" font-style="italic">ℓ</text>
  <text x="69" y="248" font-size="13" fill="#6B7280" text-anchor="end">지면 밖</text>
  <circle cx="400" cy="160" r="11" fill="#F3F4F6" stroke="#6B7280" stroke-width="2.5"/>
  <text x="420" y="156" font-size="20" fill="#1a1a1a" font-style="italic">m</text>
  <line x1="400" y1="153" x2="400" y2="40" stroke="#8B0029" stroke-width="3" fill="none" marker-end="url(#lmR)"/>
  <text x="416" y="65" font-size="24" fill="#8B0029" font-weight="bold" font-style="italic">p = mv</text>
  <path d="M 424.2,145.9 A 28,28 0 0,0 400,132" fill="none" stroke="#6B7280" stroke-width="1.5" data-angle-origin="400,160" data-angle-radius="28" data-angle-start="30.3" data-angle-end="90"/>
  <text x="421.9" y="126.8" font-size="18" fill="#6B7280" text-anchor="middle" font-weight="bold" font-style="italic">φ</text>
</svg>
