<svg xmlns="http://www.w3.org/2000/svg" viewBox="0 0 500 380" font-family="sans-serif">
  <defs>
    <marker id="pvR" markerWidth="10" markerHeight="7" refX="10" refY="3.5" orient="auto"><polygon points="0 0, 10 3.5, 0 7" fill="#8B0029"/></marker>
    <marker id="pvB" markerWidth="10" markerHeight="7" refX="10" refY="3.5" orient="auto"><polygon points="0 0, 10 3.5, 0 7" fill="#2563EB"/></marker>
    <marker id="pvG" markerWidth="10" markerHeight="7" refX="10" refY="3.5" orient="auto"><polygon points="0 0, 10 3.5, 0 7" fill="#6B7280"/></marker>
  </defs>
  <rect width="100%" height="100%" fill="white"/>
  <text x="220" y="28" font-size="15" fill="#6B7280" text-anchor="middle">위에서 본 모습 (top view)</text>
  <circle cx="220" cy="195" r="150" fill="none" stroke="#6B7280" stroke-width="1.5"/>
  <circle cx="220" cy="195" r="4" fill="#6B7280" stroke="#6B7280" stroke-width="0"/>
  <text x="205" y="218" font-size="14" fill="#6B7280">O</text>
  <line x1="220" y1="195" x2="370" y2="195" stroke="#8B0029" stroke-width="2.5" fill="none" marker-end="url(#pvR)"/>
  <text x="340" y="225" font-size="17" fill="#8B0029" font-weight="bold" font-style="italic">L(t)</text>
  <line x1="220" y1="195" x2="351.4" y2="133.7" stroke="#8B0029" stroke-width="2" fill="none" marker-end="url(#pvR)" stroke-dasharray="5 3"/>
  <text x="360" y="122" font-size="17" fill="#8B0029" font-weight="bold" font-style="italic">L(t+dt)</text>
  <line x1="370" y1="195" x2="351.4" y2="133.7" stroke="#2563EB" stroke-width="2.5" fill="none" marker-end="url(#pvB)"/>
  <text x="388" y="155" font-size="18" fill="#2563EB" font-weight="bold" font-style="italic">dL</text>
  <text x="388" y="175" font-size="14" fill="#2563EB">= τ dt</text>
  <path d="M 275,195 A 55,55 0 0,0 269.8,171.8" fill="none" stroke="#6B7280" stroke-width="1.5" data-angle-origin="220,195" data-angle-radius="55" data-angle-start="0" data-angle-end="25"/>
  <text x="289.3" y="184.6" font-size="17" fill="#6B7280" text-anchor="middle" font-weight="bold" font-style="italic">dφ</text>
  <path d="M 316.4,80.1 A 150,150 0 0,0 123.6,80.1" fill="none" stroke="#6B7280" stroke-width="2" data-angle-origin="220,195" data-angle-radius="150" data-angle-start="50" data-angle-end="130"/>
  <text x="225" y="60" font-size="14" fill="#6B7280" text-anchor="middle">세차 방향</text>
  <text x="250" y="355" font-size="16" fill="#6B7280" text-anchor="middle">|dL| = L · dφ = τ · dt = Mgr · dt</text>
</svg>
