<svg xmlns="http://www.w3.org/2000/svg" viewBox="0 0 700 420" font-family="sans-serif">
  <defs>
    <marker id="tcR" markerWidth="10" markerHeight="7" refX="10" refY="3.5" orient="auto"><polygon points="0 0, 10 3.5, 0 7" fill="#8B0029"/></marker>
    <marker id="tcB" markerWidth="10" markerHeight="7" refX="10" refY="3.5" orient="auto"><polygon points="0 0, 10 3.5, 0 7" fill="#2563EB"/></marker>
    <marker id="tcG" markerWidth="10" markerHeight="7" refX="10" refY="3.5" orient="auto"><polygon points="0 0, 10 3.5, 0 7" fill="#6B7280"/></marker>
  </defs>
  <rect width="100%" height="100%" fill="white"/>
  <circle cx="140" cy="320" r="6" fill="#1a1a1a" stroke="#1a1a1a" stroke-width="0"/>
  <text x="125" y="345" font-size="22" fill="#1a1a1a" font-weight="bold">O</text>
  <line x1="220" y1="86" x2="560" y2="237" stroke="#6B7280" stroke-width="1.5" fill="none" stroke-dasharray="5 4"/>
  <text x="568" y="245" font-size="14" fill="#6B7280">힘의 작용선</text>
  <line x1="140" y1="320" x2="256" y2="105" stroke="#2563EB" stroke-width="2" fill="none" stroke-dasharray="6 3"/>
  <rect x="251" y="100" width="11" height="11" fill="none" stroke="#2563EB" stroke-width="1.5" transform="rotate(24,256.5,105.5)"/>
  <text x="158" y="208" font-size="18" fill="#2563EB" font-weight="bold" font-style="italic">r sin φ</text>
  <line x1="140" y1="320" x2="380" y2="160" stroke="#2563EB" stroke-width="3" fill="none" marker-end="url(#tcB)"/>
  <text x="240" y="252" font-size="26" fill="#2563EB" font-weight="bold" font-style="italic">r</text>
  <circle cx="380" cy="160" r="5" fill="#1a1a1a" stroke="#1a1a1a" stroke-width="0"/>
  <text x="372" y="148" font-size="18" fill="#1a1a1a" text-anchor="end">P</text>
  <line x1="380" y1="160" x2="495" y2="211" stroke="#8B0029" stroke-width="3" fill="none" marker-end="url(#tcR)"/>
  <text x="510" y="220" font-size="26" fill="#8B0029" font-weight="bold" font-style="italic">F</text>
  <path d="M 407.4,172.2 A 30,30 0 0,0 405,143.4" fill="none" stroke="#6B7280" stroke-width="1.5" data-angle-origin="380,160" data-angle-radius="30" data-angle-start="-23.9" data-angle-end="33.7"/>
  <text x="425.8" y="161.1" font-size="18" fill="#6B7280" text-anchor="middle" font-weight="bold" font-style="italic">φ</text>
  <circle cx="80" cy="130" r="18" fill="none" stroke="#8B0029" stroke-width="2.5"/>
  <line x1="67" y1="117" x2="93" y2="143" stroke="#8B0029" stroke-width="2.5" fill="none"/>
  <line x1="93" y1="117" x2="67" y2="143" stroke="#8B0029" stroke-width="2.5" fill="none"/>
  <text x="106" y="138" font-size="24" fill="#8B0029" font-weight="bold" font-style="italic">τ</text>
  <text x="57" y="172" font-size="13" fill="#6B7280">지면 안쪽</text>
</svg>
