<svg xmlns="http://www.w3.org/2000/svg" viewBox="0 0 400 500" font-family="sans-serif">
  <defs>
    <marker id="yyR" markerWidth="10" markerHeight="7" refX="10" refY="3.5" orient="auto"><polygon points="0 0, 10 3.5, 0 7" fill="#8B0029"/></marker>
    <marker id="yyB" markerWidth="10" markerHeight="7" refX="10" refY="3.5" orient="auto"><polygon points="0 0, 10 3.5, 0 7" fill="#2563EB"/></marker>
    <marker id="yyG" markerWidth="10" markerHeight="7" refX="10" refY="3.5" orient="auto"><polygon points="0 0, 10 3.5, 0 7" fill="#6B7280"/></marker>
  </defs>
  <rect width="100%" height="100%" fill="white"/>
  <rect x="160" y="42" width="80" height="10" rx="3" fill="#6B7280" stroke="#6B7280" stroke-width="0"/>
  <line x1="200" y1="52" x2="200" y2="247" stroke="#6B7280" stroke-width="1.5" fill="none"/>
  <circle cx="200" cy="268" r="75" fill="#F3F4F6" stroke="#6B7280" stroke-width="2.5"/>
  <circle cx="200" cy="268" r="20" fill="#ffffff" stroke="#6B7280" stroke-width="1.5"/>
  <circle cx="200" cy="268" r="3" fill="#6B7280" stroke="#6B7280" stroke-width="0"/>
  <line x1="200" y1="248" x2="200" y2="108" stroke="#8B0029" stroke-width="2.5" fill="none" marker-end="url(#yyR)"/>
  <text x="215" y="168" font-size="18" fill="#8B0029" font-weight="bold" font-style="italic">T</text>
  <line x1="200" y1="348" x2="200" y2="468" stroke="#2563EB" stroke-width="2.5" fill="none" marker-end="url(#yyB)"/>
  <text x="215" y="448" font-size="18" fill="#2563EB" font-weight="bold" font-style="italic">Mg</text>
  <line x1="200" y1="304" x2="275" y2="304" stroke="#6B7280" stroke-width="1" fill="none" stroke-dasharray="4 3"/>
  <text x="237" y="322" font-size="15" fill="#6B7280" text-anchor="middle" font-style="italic">R</text>
  <line x1="220" y1="268" x2="280" y2="238" stroke="#6B7280" stroke-width="0.8" fill="none" stroke-dasharray="3 2"/>
  <circle cx="220" cy="268" r="2" fill="#6B7280" stroke="#6B7280" stroke-width="0"/>
  <text x="284" y="242" font-size="14" fill="#6B7280" font-style="italic">R₀</text>
  <path d="M 168.3,200 A 75,75 0 0,1 231.7,200" fill="none" stroke="#2563EB" stroke-width="2" data-angle-origin="200,268" data-angle-radius="75" data-angle-start="115" data-angle-end="65"/>
  <text x="240" y="202" font-size="16" fill="#2563EB" font-style="italic">α</text>
  <line x1="95" y1="250" x2="95" y2="348" stroke="#6B7280" stroke-width="2" fill="none" marker-end="url(#yyG)" stroke-dasharray="6 4"/>
  <text x="42" y="310" font-size="15" fill="#6B7280" font-weight="bold" font-style="italic">a_com</text>
</svg>
